<svg width="188" height="46" viewBox="0 0 188 46" fill="none" xmlns="http://www.w3.org/2000/svg">
<rect width="188" height="46" rx="20" fill="#D0C9F9"/>
<path d="M59.5028 14.9091L62.6669 24.8551H62.7884L65.9588 14.9091H69.027L64.5142 28H60.9474L56.4283 14.9091H59.5028ZM70.6026 28V14.9091H79.4237V17.1911H73.3704V20.3104H78.9698V22.5923H73.3704V25.718H79.4492V28H70.6026ZM81.6241 28V14.9091H86.7889C87.7775 14.9091 88.6213 15.0859 89.3201 15.4396C90.0233 15.7891 90.5581 16.2855 90.9245 16.929C91.2953 17.5682 91.4806 18.3203 91.4806 19.1854C91.4806 20.0547 91.2931 20.8026 90.9181 21.429C90.5431 22.0511 89.9998 22.5284 89.2882 22.8608C88.5808 23.1932 87.7243 23.3594 86.7186 23.3594H83.2605V21.1349H86.2711C86.7995 21.1349 87.2385 21.0625 87.5879 20.9176C87.9373 20.7727 88.1973 20.5554 88.3677 20.2656C88.5424 19.9759 88.6298 19.6158 88.6298 19.1854C88.6298 18.7507 88.5424 18.3842 88.3677 18.0859C88.1973 17.7876 87.9352 17.5618 87.5815 17.4084C87.2321 17.2507 86.791 17.1719 86.2583 17.1719H84.3919V28H81.6241ZM88.6937 22.0426L91.9473 28H88.8919L85.7086 22.0426H88.6937ZM96.2044 14.9091V28H93.4366V14.9091H96.2044ZM98.4815 28V14.9091H107.149V17.1911H101.249V20.3104H106.574V22.5923H101.249V28H98.4815ZM108.244 14.9091H111.344L114.329 20.5469H114.457L117.442 14.9091H120.542L115.767 23.3722V28H113.019V23.3722L108.244 14.9091Z" fill="black"/>
<rect width="188" height="46" rx="20" fill="#D0C9F9"/>
<path d="M57.1378 28V14.9091H62.3793C63.3423 14.9091 64.1456 15.0518 64.7891 15.3374C65.4325 15.6229 65.9162 16.0192 66.2401 16.5263C66.5639 17.0291 66.7259 17.6087 66.7259 18.2649C66.7259 18.7763 66.6236 19.2259 66.419 19.6136C66.2145 19.9972 65.9332 20.3125 65.5753 20.5597C65.2216 20.8026 64.8168 20.9751 64.3608 21.0774V21.2053C64.8594 21.2266 65.326 21.3672 65.7607 21.6271C66.1996 21.8871 66.5554 22.2514 66.8281 22.7202C67.1009 23.1847 67.2372 23.7386 67.2372 24.3821C67.2372 25.0767 67.0646 25.6967 66.7195 26.2422C66.3786 26.7834 65.8736 27.2116 65.2045 27.527C64.5355 27.8423 63.7109 28 62.7308 28H57.1378ZM59.9055 25.7372H62.1619C62.9332 25.7372 63.4957 25.5902 63.8494 25.2962C64.2031 24.9979 64.38 24.6016 64.38 24.1072C64.38 23.745 64.2926 23.4254 64.1179 23.1484C63.9432 22.8714 63.6939 22.6541 63.37 22.4964C63.0504 22.3388 62.669 22.2599 62.2259 22.2599H59.9055V25.7372ZM59.9055 20.3871H61.9574C62.3366 20.3871 62.6733 20.321 62.9673 20.1889C63.2656 20.0526 63.5 19.8608 63.6705 19.6136C63.8452 19.3665 63.9325 19.0703 63.9325 18.7251C63.9325 18.2521 63.7642 17.8707 63.4276 17.581C63.0952 17.2912 62.6222 17.1463 62.0085 17.1463H59.9055V20.3871ZM71.2946 28H68.3287L72.8478 14.9091H76.4146L80.9274 28H77.9615L74.6824 17.9006H74.5801L71.2946 28ZM71.1092 22.8544H78.1149V25.0149H71.1092V22.8544ZM93.4382 19.4922H90.6385C90.5874 19.13 90.483 18.8082 90.3253 18.527C90.1676 18.2415 89.9652 17.9986 89.718 17.7983C89.4709 17.598 89.1854 17.4446 88.8615 17.3381C88.5419 17.2315 88.1946 17.1783 87.8196 17.1783C87.142 17.1783 86.5518 17.3466 86.049 17.6832C85.5462 18.0156 85.1563 18.5014 84.8793 19.1406C84.6023 19.7756 84.4638 20.5469 84.4638 21.4545C84.4638 22.3878 84.6023 23.1719 84.8793 23.8068C85.1605 24.4418 85.5526 24.9212 86.0554 25.245C86.5582 25.5689 87.1399 25.7308 87.8004 25.7308C88.1712 25.7308 88.5142 25.6818 88.8295 25.5838C89.1491 25.4858 89.4325 25.343 89.6797 25.1555C89.9268 24.9638 90.1314 24.7315 90.2933 24.4588C90.4595 24.1861 90.5746 23.875 90.6385 23.5256L93.4382 23.5384C93.3658 24.1392 93.1847 24.7188 92.8949 25.277C92.6094 25.831 92.2237 26.3274 91.7379 26.7663C91.2564 27.201 90.6811 27.5462 90.0121 27.8018C89.3473 28.0533 88.5952 28.179 87.7557 28.179C86.5881 28.179 85.544 27.9148 84.6236 27.3864C83.7074 26.858 82.983 26.093 82.4503 25.0916C81.9219 24.0902 81.6577 22.8778 81.6577 21.4545C81.6577 20.027 81.9261 18.8125 82.4631 17.8111C83 16.8097 83.7287 16.0469 84.6491 15.5227C85.5696 14.9943 86.6051 14.7301 87.7557 14.7301C88.5142 14.7301 89.2173 14.8366 89.8651 15.0497C90.517 15.2628 91.0945 15.5739 91.5973 15.983C92.1001 16.3878 92.5092 16.8842 92.8246 17.4723C93.1442 18.0604 93.3487 18.7337 93.4382 19.4922ZM95.4229 28V14.9091H98.1907V20.6811H98.3633L103.074 14.9091H106.392L101.534 20.7706L106.449 28H103.138L99.5522 22.6179L98.1907 24.2798V28H95.4229Z" fill="black"/>
</svg>
