<svg width="188" height="46" viewBox="0 0 188 46" fill="none" xmlns="http://www.w3.org/2000/svg">
<rect width="188" height="46" rx="20" fill="#D0C9F9"/>
<path d="M59.5028 14.9091L62.6669 24.8551H62.7884L65.9588 14.9091H69.027L64.5142 28H60.9474L56.4283 14.9091H59.5028ZM70.6026 28V14.9091H79.4237V17.1911H73.3704V20.3104H78.9698V22.5923H73.3704V25.718H79.4492V28H70.6026ZM81.6241 28V14.9091H86.7889C87.7775 14.9091 88.6213 15.0859 89.3201 15.4396C90.0233 15.7891 90.5581 16.2855 90.9245 16.929C91.2953 17.5682 91.4806 18.3203 91.4806 19.1854C91.4806 20.0547 91.2931 20.8026 90.9181 21.429C90.5431 22.0511 89.9998 22.5284 89.2882 22.8608C88.5808 23.1932 87.7243 23.3594 86.7186 23.3594H83.2605V21.1349H86.2711C86.7995 21.1349 87.2385 21.0625 87.5879 20.9176C87.9373 20.7727 88.1973 20.5554 88.3677 20.2656C88.5424 19.9759 88.6298 19.6158 88.6298 19.1854C88.6298 18.7507 88.5424 18.3842 88.3677 18.0859C88.1973 17.7876 87.9352 17.5618 87.5815 17.4084C87.2321 17.2507 86.791 17.1719 86.2583 17.1719H84.3919V28H81.6241ZM88.6937 22.0426L91.9473 28H88.8919L85.7086 22.0426H88.6937ZM96.2044 14.9091V28H93.4366V14.9091H96.2044ZM98.4815 28V14.9091H107.149V17.1911H101.249V20.3104H106.574V22.5923H101.249V28H98.4815ZM108.244 14.9091H111.344L114.329 20.5469H114.457L117.442 14.9091H120.542L115.767 23.3722V28H113.019V23.3722L108.244 14.9091Z" fill="black"/>
</svg>
