<svg width="140" height="140" viewBox="0 0 140 140" fill="none" xmlns="http://www.w3.org/2000/svg">
<path d="M140 70.0005C140 108.66 108.66 139.999 70.0005 139.999C31.3406 139.999 0 108.66 0 70.0005C0 31.3406 31.3406 0.000976562 70.0005 0.000976562C108.66 0.000976562 140 31.3406 140 70.0005Z" fill="#A4E6DA"/>
<path d="M106.697 41.1263H33.2921V139.998H106.697V41.1263Z" fill="black"/>
<path d="M110.584 149.378V149.385H29.4219V149.378C29.4219 144.795 30.1796 140.381 31.5872 136.273C31.8395 135.531 32.1152 134.796 32.4134 134.069V134.062C32.6816 133.389 32.9798 132.723 33.293 132.073C33.3165 132.019 33.339 131.974 33.3624 131.92C34.2111 130.13 35.1976 128.408 36.2995 126.772C36.9269 125.838 37.6002 124.92 38.3045 124.04C38.794 123.436 39.291 122.847 39.8031 122.281C40.0563 121.99 40.3235 121.707 40.5917 121.424C40.859 121.149 41.1272 120.873 41.4029 120.597C41.4254 120.575 41.4564 120.544 41.4789 120.529C42.8255 119.182 44.2716 117.952 45.7861 116.819C46.5588 116.245 47.3391 115.71 48.1502 115.19C48.2496 115.121 48.3565 115.06 48.4635 114.999C49.1677 114.547 49.887 114.127 50.6213 113.728C50.6288 113.721 50.6363 113.721 50.6438 113.721H50.6513L50.6597 113.713C50.927 113.576 51.1868 113.422 51.4475 113.255C51.5084 113.224 51.5619 113.193 51.6228 113.155C51.8376 113.025 52.0514 112.887 52.2661 112.749C52.3346 112.703 52.404 112.657 52.4725 112.62C52.6563 112.497 52.8391 112.374 53.0229 112.237C53.2527 112.083 53.4824 111.915 53.7038 111.748C53.7038 111.748 53.7038 111.739 53.7113 111.748C53.7197 111.739 53.7272 111.724 53.7347 111.724C53.9485 111.571 54.1633 111.411 54.3696 111.242L54.3771 111.235C55.6553 110.217 56.8406 109.077 57.9041 107.83C58.8606 106.714 59.7252 105.512 60.4745 104.234C61.3082 102.842 62.0125 101.365 62.5629 99.8199C62.8387 99.0397 63.0834 98.2444 63.2822 97.4258C63.4351 96.8518 63.5579 96.2704 63.6648 95.6815C63.9246 94.2129 64.0625 92.6975 64.0625 91.153L69.9761 91.183H70.037L71.0395 91.1905L76.0585 91.2139C76.0585 92.7284 76.1879 94.2129 76.4411 95.659C76.5405 96.2554 76.6699 96.8443 76.8228 97.4258C77.0141 98.2294 77.2514 99.0172 77.5196 99.7824C78.0701 101.343 78.7659 102.835 79.6005 104.234C80.2813 105.397 81.0541 106.491 81.9103 107.524C83.0272 108.894 84.2903 110.133 85.6745 111.242C85.8733 111.411 86.0721 111.571 86.2784 111.717C86.3403 111.778 86.4088 111.823 86.4782 111.862C86.4857 111.877 86.4932 111.884 86.5082 111.892C86.5391 111.908 86.5701 111.923 86.5926 111.946C86.6076 111.954 86.6235 111.961 86.6385 111.976C86.6995 112.03 86.7604 112.076 86.8298 112.122C87.0136 112.245 87.189 112.374 87.3728 112.497C87.4338 112.543 87.4872 112.581 87.5491 112.62L87.9617 112.894C88.1071 112.986 88.2449 113.071 88.3903 113.155C88.5507 113.246 88.7045 113.346 88.8648 113.437C89.0177 113.537 89.178 113.629 89.3393 113.713C89.3928 113.728 89.4312 113.759 89.4763 113.782L89.7294 113.919C89.7829 113.95 89.8364 113.981 89.8823 114.011C90.0886 114.127 90.2874 114.241 90.4862 114.355C90.8154 114.547 91.1521 114.746 91.4737 114.953C91.7869 115.144 92.1011 115.343 92.4068 115.564C93.0417 115.97 93.6616 116.414 94.2655 116.872C94.2655 116.88 94.273 116.88 94.273 116.88H94.2814C95.0542 117.454 95.8034 118.066 96.5377 118.694C97.2261 119.283 97.8844 119.895 98.5268 120.537C98.5727 120.576 98.6112 120.613 98.6571 120.659C100.532 122.526 102.222 124.569 103.699 126.773C104.823 128.44 105.825 130.199 106.698 132.035C109.191 137.29 110.584 143.166 110.584 149.378Z" fill="#ECC19C"/>
<path d="M110.584 149.378H29.4219C29.4219 144.795 30.1796 140.381 31.5872 136.273C31.8395 135.531 32.1152 134.796 32.4134 134.07V134.062C32.6816 133.389 32.9798 132.723 33.293 132.073C33.3165 132.02 33.339 131.974 33.3624 131.92C34.2111 130.13 35.1976 128.408 36.2995 126.772C36.9269 125.838 37.6002 124.92 38.3045 124.04C38.794 123.436 39.291 122.847 39.8031 122.281C40.0563 121.99 40.3235 121.707 40.5917 121.424C40.859 121.149 41.1272 120.873 41.4029 120.597C41.4254 120.575 41.4564 120.544 41.4789 120.529C42.8255 119.182 44.2716 117.952 45.7861 116.819C46.5588 116.245 47.3391 115.71 48.1502 115.19C48.2496 115.121 48.3565 115.06 48.4635 114.999C49.1677 114.547 49.887 114.127 50.6213 113.728C50.6213 113.721 50.6288 113.721 50.6288 113.721C50.6363 113.713 50.6363 113.713 50.6438 113.721H50.6513V113.713H50.6597C50.927 113.56 51.1868 113.407 51.4475 113.255C51.5084 113.224 51.5619 113.193 51.6228 113.155C51.8376 113.025 52.0514 112.887 52.2661 112.749C52.4725 112.611 52.6788 112.466 52.8851 112.329C52.9695 112.267 53.0539 112.206 53.1383 112.145C53.3296 112.015 53.5209 111.877 53.7038 111.739C53.7113 111.732 53.7272 111.724 53.7347 111.724C53.7422 111.717 53.7497 111.709 53.7572 111.702C53.956 111.548 54.1558 111.387 54.3546 111.227L54.3621 111.22C54.3696 111.227 54.3696 111.227 54.3771 111.235C54.8131 111.678 55.2567 112.107 55.7312 112.512C55.961 112.711 56.1982 112.902 56.4355 113.093C56.443 113.109 56.443 113.109 56.4505 113.101C56.6728 113.277 56.8866 113.446 57.1088 113.614C57.1623 113.652 57.2082 113.691 57.2617 113.721C57.4914 113.882 57.7203 114.042 57.95 114.195C58.4705 114.539 59.006 114.861 59.5489 115.159C59.8246 115.312 60.0994 115.457 60.3826 115.595C60.6733 115.741 60.964 115.871 61.2547 115.993C61.2932 116.024 61.3316 116.039 61.3701 116.046C61.6983 116.192 62.0275 116.33 62.3641 116.452C62.7008 116.574 63.045 116.697 63.3891 116.804C63.6498 116.888 63.9096 116.964 64.1769 117.034C64.4141 117.102 64.6514 117.163 64.8886 117.217C64.9421 117.24 64.9955 117.248 65.0574 117.255C65.8302 117.431 66.6254 117.569 67.4366 117.669C67.7114 117.699 67.9871 117.73 68.2703 117.752C68.8367 117.798 69.4022 117.822 69.9761 117.822H70.037C70.2058 117.822 70.3737 117.822 70.5425 117.814C70.55 117.822 70.5575 117.822 70.565 117.814C70.6269 117.822 70.6879 117.822 70.7488 117.814C70.7638 117.822 70.7798 117.814 70.7948 117.807C70.8792 117.807 70.9551 117.798 71.0395 117.791C71.3987 117.776 71.7513 117.752 72.103 117.722C72.4087 117.691 72.7153 117.653 73.0136 117.615C73.0595 117.615 73.097 117.615 73.1355 117.607C73.1739 117.599 73.2124 117.599 73.2508 117.584C73.4881 117.553 73.7169 117.507 73.9466 117.47C73.9701 117.47 74.0001 117.461 74.0235 117.461C74.061 117.461 74.0995 117.454 74.1304 117.439C74.1614 117.431 74.1914 117.424 74.2224 117.416C74.3124 117.4 74.4005 117.381 74.4896 117.362C74.6115 117.338 74.7334 117.312 74.8544 117.285C74.9735 117.26 75.0926 117.235 75.2089 117.202C75.5456 117.117 75.8822 117.034 76.2114 116.934C76.5405 116.835 76.8688 116.735 77.1904 116.62C77.6949 116.452 78.1845 116.261 78.6665 116.054C78.9881 115.917 79.2939 115.779 79.608 115.618C79.8753 115.496 80.136 115.358 80.3882 115.213C80.5795 115.113 80.7634 115.006 80.9462 114.899C81.1535 114.792 81.3523 114.67 81.5511 114.539C81.6045 114.509 81.658 114.478 81.7114 114.447C81.8802 114.341 82.0406 114.234 82.201 114.118C82.2929 114.065 82.3773 114.004 82.4617 113.943C82.5151 113.912 82.5611 113.874 82.607 113.844C82.8283 113.691 83.0431 113.529 83.2569 113.361C83.2644 113.361 83.2719 113.361 83.2719 113.354C83.3179 113.323 83.3723 113.285 83.4173 113.246C83.5176 113.17 83.6245 113.086 83.7239 112.994C83.8843 112.872 84.0446 112.742 84.1984 112.611C84.7105 112.183 85.2 111.724 85.667 111.25L85.682 111.235C85.9427 111.448 86.21 111.656 86.4782 111.862C86.4857 111.877 86.4932 111.884 86.5082 111.892C86.5391 111.908 86.5701 111.923 86.5926 111.946C86.6076 111.954 86.6235 111.961 86.6385 111.976C86.8758 112.153 87.1206 112.329 87.3728 112.497C87.4338 112.543 87.4872 112.581 87.5491 112.62C87.8239 112.803 88.1071 112.979 88.3903 113.155C88.7045 113.346 89.0252 113.529 89.3468 113.706C89.4003 113.721 89.4387 113.752 89.4847 113.774C89.5682 113.82 89.6526 113.874 89.7295 113.919C89.7829 113.95 89.8364 113.981 89.8823 114.011C90.0886 114.127 90.2874 114.241 90.4862 114.356C90.8154 114.547 91.1521 114.746 91.4737 114.953C91.7869 115.144 92.1011 115.343 92.4068 115.564C93.0417 115.97 93.6616 116.414 94.2655 116.873H94.2814C95.0542 117.454 95.8109 118.059 96.5377 118.694C97.226 119.283 97.8844 119.895 98.5268 120.537C98.5727 120.576 98.6112 120.613 98.6571 120.659C100.532 122.526 102.222 124.569 103.699 126.773C104.823 128.44 105.825 130.199 106.698 132.035C109.191 137.29 110.584 143.166 110.584 149.378Z" fill="#7C7FC0"/>
<path d="M70.0671 117.828L70.0445 117.867L70.0361 117.882C70.0211 117.897 70.0136 117.92 69.9986 117.935C67.8408 121.248 64.2838 122.976 60.7033 122.976C57.7728 122.976 54.8282 121.821 52.6169 119.45L48.4625 114.999C49.1668 114.547 49.8861 114.127 50.6203 113.728C50.6278 113.721 50.6353 113.721 50.6428 113.721H50.6504V113.713H50.6588C50.9261 113.56 51.1858 113.407 51.4465 113.255C51.5075 113.224 51.5609 113.193 51.6228 113.155C51.8366 113.025 52.0505 112.887 52.2652 112.749C52.3337 112.703 52.4031 112.657 52.4715 112.62C52.6094 112.52 52.7472 112.428 52.8841 112.329C52.9301 112.298 52.976 112.267 53.022 112.237C53.2517 112.076 53.4815 111.915 53.7028 111.748C53.7028 111.739 53.7028 111.739 53.7113 111.748C53.7263 111.724 53.7413 111.717 53.7563 111.702C53.956 111.548 54.1548 111.387 54.3536 111.227C54.3611 111.235 54.3611 111.235 54.3686 111.242C54.8047 111.686 55.2558 112.114 55.7303 112.512C55.9601 112.719 56.1973 112.918 56.4346 113.093C56.4421 113.109 56.4421 113.109 56.4496 113.101C56.6643 113.285 56.8856 113.453 57.1079 113.614C57.1613 113.652 57.2073 113.691 57.2607 113.721C57.4821 113.889 57.7118 114.05 57.9491 114.195C58.462 114.547 58.9975 114.868 59.548 115.159C59.8237 115.312 60.0985 115.457 60.3817 115.595C60.6724 115.741 60.9631 115.871 61.2538 115.993C61.2923 116.024 61.3307 116.039 61.3682 116.046C62.0256 116.337 62.6999 116.582 63.3873 116.804C63.648 116.888 63.9077 116.964 64.175 117.034C64.4122 117.102 64.6495 117.163 64.8868 117.217C64.9402 117.24 64.9937 117.248 65.0556 117.255C65.8283 117.446 66.6235 117.584 67.4347 117.669C67.7104 117.707 67.9852 117.737 68.2684 117.752C68.8273 117.807 69.3928 117.829 69.9667 117.829H70.0671V117.828Z" fill="#E7ECF2"/>
<path d="M91.6191 115.056L87.5266 119.448C85.3153 121.819 82.3698 122.974 79.4326 122.974C75.8363 122.974 72.2558 121.229 70.1064 117.879L70.0989 117.864L70.068 117.825C76.1729 117.818 81.6964 115.293 85.667 111.246L85.6745 111.238C86.2184 111.69 86.7839 112.11 87.3653 112.501C87.4272 112.547 87.4807 112.585 87.5416 112.623C87.8173 112.807 88.0996 112.983 88.3828 113.159C88.697 113.35 89.0177 113.534 89.3393 113.709C89.3928 113.725 89.4312 113.755 89.4772 113.779C90.1505 114.153 90.8154 114.543 91.4662 114.957C91.5197 114.988 91.5656 115.018 91.6191 115.056Z" fill="#E7ECF2"/>
<path d="M91.68 25.305C91.68 30.4994 90.64 35.4415 88.7495 39.9475C88.5816 40.3451 88.4137 40.7352 88.2224 41.1253C84.5192 49.1893 78.0475 55.7228 70.037 59.532C70.022 59.532 70.0145 59.5395 69.9995 59.548C65.0874 61.8737 59.6024 63.1734 53.8116 63.1734C50.2237 63.1734 46.7501 62.6764 43.4604 61.7433C42.0453 61.3382 40.6677 60.8562 39.3295 60.3048H39.322C39.1607 60.2363 39.0078 60.1669 38.855 60.0985C38.7246 60.045 38.6027 59.9916 38.4799 59.9381C37.6537 58.553 36.9119 57.1069 36.262 55.6074C35.5802 54.0245 35.0063 52.3712 34.5478 50.6728C33.7291 47.6363 33.293 44.4226 33.293 41.1253C33.293 20.8599 49.7257 4.42725 69.9995 4.42725H70.037C76.6015 4.43475 82.7599 6.16401 88.0921 9.19397C88.3218 9.67505 88.5357 10.1655 88.7495 10.6625C89.4537 12.3299 90.0277 14.0442 90.4862 15.8184V15.8259C91.2665 18.8568 91.68 22.0312 91.68 25.305Z" fill="#141720"/>
<path d="M106.697 41.1263C106.697 46.8411 105.388 52.2502 103.063 57.0694C96.7281 52.9535 91.7025 46.9939 88.7495 39.9484C86.8514 35.4424 85.8114 30.5003 85.8114 25.3059C85.8114 20.1106 86.8514 15.1685 88.7495 10.6625C88.8714 10.3718 88.9942 10.0895 89.1236 9.79883C99.6586 16.2479 106.697 27.8679 106.697 41.1263Z" fill="#141720"/>
<path d="M101.151 39.2826V62.6464C101.151 62.9521 101.143 63.2513 101.136 63.557C101.127 63.8327 101.12 64.1 101.105 64.3757C101.097 64.6205 101.081 64.8652 101.059 65.11C101.051 65.2863 101.036 65.4616 101.02 65.6379C101.013 65.7448 101.005 65.8443 100.99 65.9512C100.974 66.1425 100.959 66.3413 100.928 66.5326C100.898 66.9002 100.852 67.2594 100.799 67.627C100.791 67.7189 100.776 67.8108 100.761 67.9027C100.737 68.0855 100.707 68.2693 100.676 68.4532V68.4757C100.669 68.5141 100.661 68.5451 100.661 68.5835C100.615 68.8123 100.577 69.0421 100.538 69.2718C100.47 69.6385 100.401 70.0061 100.324 70.3653C100.317 70.3812 100.317 70.3962 100.309 70.4112C100.301 70.4647 100.294 70.5191 100.279 70.5725C100.271 70.5875 100.271 70.6025 100.264 70.6185C100.233 70.7788 100.194 70.9392 100.156 71.0921C100.148 71.1305 100.141 71.1615 100.133 71.1999C100.118 71.2834 100.102 71.3678 100.072 71.4522C100.049 71.59 100.01 71.7279 99.9803 71.8648C99.9569 71.9417 99.9419 72.0261 99.9109 72.103C99.8959 72.1724 99.8734 72.2408 99.8575 72.3018C99.6971 72.9292 99.5133 73.5415 99.322 74.1539C99.2301 74.4446 99.1382 74.7269 99.0388 75.0176C99.0313 75.0485 99.0163 75.0795 99.0088 75.1095C98.9244 75.3543 98.8325 75.6075 98.7481 75.8532C98.7406 75.8682 98.7406 75.8757 98.7331 75.8907C98.7021 75.9676 98.6721 76.0435 98.6412 76.1279C98.5493 76.3727 98.4574 76.6174 98.358 76.8622C98.2435 77.1614 98.1216 77.4521 97.9988 77.7428C97.8919 78.0025 97.7765 78.2623 97.6621 78.523C97.6471 78.569 97.6237 78.6065 97.6087 78.6524C97.4783 78.9281 97.3564 79.2038 97.2261 79.4711C97.0957 79.7543 96.9578 80.0375 96.8125 80.3207C96.805 80.3357 96.7975 80.3432 96.79 80.3592C96.5218 80.9022 96.2311 81.4526 95.9404 81.9806L95.5277 82.7149C94.3499 84.7424 93.0417 86.647 91.6181 88.4072C91.4268 88.6595 91.228 88.9042 91.0217 89.1415C90.7385 89.4856 90.4478 89.8223 90.1571 90.1515C89.9123 90.4262 89.6601 90.7094 89.3994 90.9776C89.3919 90.9927 89.3844 91.0002 89.3693 91.0152C88.6351 91.8038 87.8848 92.5531 87.1196 93.2574C86.9668 93.4102 86.8064 93.5481 86.646 93.6935C86.3853 93.9307 86.1256 94.1595 85.8574 94.3818C85.6511 94.5656 85.4372 94.7409 85.2225 94.9173C84.672 95.3683 84.1215 95.8044 83.5626 96.2105C83.3329 96.3858 83.0956 96.5546 82.8593 96.715C82.4767 96.9907 82.0866 97.2504 81.6955 97.5027C81.4817 97.6481 81.2604 97.7859 81.0381 97.9163C80.9997 97.9388 80.9687 97.9622 80.9312 97.9772C80.1885 98.4367 79.4317 98.8569 78.689 99.2245C78.4977 99.3239 78.3073 99.4158 78.116 99.5077C77.9247 99.5996 77.7259 99.6905 77.5186 99.7824C77.2664 99.8978 77.0141 100.005 76.7619 100.104C76.6625 100.15 76.563 100.189 76.4636 100.219C76.1645 100.341 75.8588 100.456 75.5606 100.555C75.1854 100.693 74.8028 100.808 74.4287 100.915C74.168 100.991 73.9007 101.061 73.64 101.122C73.625 101.129 73.61 101.137 73.5865 101.137C73.3268 101.198 73.067 101.259 72.8063 101.305C72.7378 101.32 72.6684 101.335 72.6 101.344C72.3852 101.381 72.1714 101.42 71.9576 101.443C71.651 101.489 71.3452 101.527 71.0395 101.543C70.9317 101.558 70.8323 101.565 70.7254 101.565C70.4806 101.58 70.2434 101.589 70.0061 101.589H69.9761C69.7388 101.589 69.5016 101.58 69.2643 101.565C69.1724 101.565 69.0805 101.558 68.9886 101.543C68.7748 101.534 68.5525 101.512 68.3237 101.481C68.2778 101.481 68.2243 101.473 68.1784 101.466C67.8952 101.427 67.6119 101.381 67.3212 101.328C67.0765 101.289 66.8317 101.236 66.5795 101.175C65.2713 100.877 63.9246 100.426 62.5629 99.8209C61.4001 99.3089 60.2213 98.689 59.051 97.9697C58.9825 97.9313 58.9216 97.8853 58.8522 97.8469C58.3317 97.5262 57.8047 97.182 57.2917 96.8219C57.001 96.6156 56.7103 96.4093 56.4196 96.1945C55.509 95.5296 54.6059 94.8028 53.7188 94.0226C53.474 93.8004 53.2292 93.5781 52.9845 93.3493C52.7397 93.127 52.495 92.8973 52.2577 92.676C51.6913 92.1321 51.1408 91.5741 50.6128 90.9852C50.5744 90.9542 50.5444 90.9158 50.5134 90.8857C50.2921 90.6485 50.0699 90.4037 49.8476 90.1515C49.2362 89.4622 48.6388 88.7514 48.0733 88.0086C47.8511 87.7414 47.6448 87.4657 47.4385 87.1909C46.6657 86.165 45.9305 85.094 45.2422 83.9846C45.0584 83.6864 44.8755 83.3807 44.6992 83.0825C44.4854 82.7224 44.2781 82.3557 44.0718 81.9881C43.7736 81.4526 43.4904 80.9097 43.2156 80.3592C42.7711 79.4946 42.366 78.6065 41.9909 77.7043C41.899 77.4896 41.8071 77.2758 41.7311 77.062C41.6083 76.7863 41.5014 76.503 41.402 76.2273C41.356 76.0979 41.3026 75.9676 41.2641 75.8372C41.1572 75.5625 41.0578 75.2867 40.9659 75.011C40.8281 74.6059 40.6986 74.1924 40.5683 73.7797C40.4454 73.3821 40.331 72.9836 40.2241 72.5784C40.1013 72.1499 39.9869 71.7138 39.8875 71.2702C39.88 71.2243 39.864 71.1783 39.8565 71.1324C39.8565 71.1174 39.849 71.1099 39.849 71.0939C39.7037 70.4975 39.5818 69.8851 39.4664 69.2737C39.4205 69.044 39.382 68.8142 39.352 68.5769C39.2451 67.9805 39.1682 67.3691 39.0988 66.7567C39.0613 66.4885 39.0378 66.2212 39.0153 65.953C38.9844 65.6698 38.9619 65.3951 38.9459 65.1118C38.9084 64.5989 38.885 64.0794 38.87 63.5589C38.8625 63.2532 38.854 62.954 38.854 62.6483V39.2826C38.854 22.6586 51.8826 9.07209 68.2928 8.18401C68.3237 8.17651 68.3462 8.17651 68.3772 8.17651C68.591 8.16901 68.8057 8.16151 69.0196 8.154C69.3412 8.14556 69.6544 8.13806 69.9761 8.13806H70.0061C70.3353 8.13806 70.6644 8.14556 70.9936 8.154H71.062C71.2918 8.16151 71.5215 8.16901 71.7504 8.18401H71.7738C71.8807 8.19151 71.9876 8.19995 72.0945 8.20746C72.3243 8.22246 72.554 8.23747 72.7754 8.26091C72.8907 8.26841 72.9976 8.27591 73.112 8.29186C73.1889 8.29936 73.2574 8.30686 73.3343 8.31436C74.5506 8.44471 75.7444 8.64352 76.9072 8.90329C78.9347 9.3628 80.8853 10.0202 82.7364 10.8539C84.4657 11.6266 86.1106 12.5522 87.6476 13.6156C88.3669 14.1051 89.0552 14.6256 89.721 15.177C89.9808 15.3908 90.234 15.6047 90.4862 15.8194V15.8269C91.9623 17.1126 93.3165 18.5277 94.5177 20.0732C98.6187 25.2975 101.09 31.862 101.143 39.0069C101.151 39.0988 101.151 39.1907 101.151 39.2826Z" fill="#ECC19C"/>
<path d="M106.698 41.1263C106.698 41.5399 106.69 41.945 106.675 42.3576C106.667 42.7562 106.644 43.1613 106.613 43.5589V43.6049C106.591 44.0025 106.552 44.3926 106.514 44.7827C106.475 45.1813 106.43 45.5789 106.376 45.9765C106.322 46.3741 106.262 46.7727 106.201 47.1628C106.131 47.5604 106.063 47.9505 105.986 48.3406C105.978 48.3631 105.971 48.3941 105.971 48.425C105.818 49.1743 105.642 49.9086 105.443 50.6429C105.328 51.0714 105.213 51.4925 105.084 51.9136C104.961 52.3337 104.823 52.7473 104.678 53.1599C104.548 53.5425 104.403 53.9251 104.265 54.3002C104.249 54.3312 104.234 54.3612 104.227 54.3921C104.066 54.7897 103.905 55.1949 103.73 55.5934C103.522 56.0904 103.301 56.5875 103.064 57.0695C102.414 56.6484 101.771 56.2048 101.152 55.7303C100.929 55.57 100.707 55.4096 100.493 55.2333C100.256 55.057 100.026 54.8741 99.7974 54.6903C99.1466 54.1624 98.5117 53.6119 97.8994 53.0305C97.7315 52.8776 97.5627 52.7238 97.3948 52.5559C97.1351 52.3112 96.8828 52.0589 96.6296 51.8057C95.5896 50.7423 94.6106 49.6254 93.7075 48.4475C93.4318 48.0959 93.172 47.7442 92.9123 47.3766C92.6591 47.0324 92.4143 46.6808 92.177 46.3207C91.3668 45.1044 90.6241 43.8421 89.9508 42.5339C89.7904 42.2282 89.6375 41.914 89.4922 41.5933C89.4153 41.4395 89.3393 41.2867 89.2699 41.1263C89.2699 41.1263 89.2624 41.1188 89.2624 41.1113C89.0871 40.7287 88.9108 40.3386 88.7504 39.9485C88.5816 40.3461 88.4137 40.7362 88.2224 41.1263C84.5191 49.1893 78.0475 55.7228 70.038 59.533C70.022 59.533 70.0145 59.5405 69.9995 59.548C65.0874 61.8737 59.6024 63.1744 53.8116 63.1744C50.2237 63.1744 46.7501 62.6774 43.4604 61.7434C42.0453 61.3382 40.6686 60.8562 39.3295 60.3057H39.322C39.1607 60.2363 39.0078 60.1679 38.855 60.0994C38.7246 60.045 38.6027 59.9916 38.4799 59.9381C37.6537 58.554 36.9119 57.1079 36.262 55.6084C35.5802 54.0245 35.0073 52.3721 34.5478 50.6738C33.7291 47.6364 33.293 44.4235 33.293 41.1263C33.293 20.8609 49.7257 4.42822 69.9995 4.42822H70.038C76.6015 4.43572 82.7599 6.16499 88.0921 9.19401C88.4362 9.38532 88.7804 9.59163 89.1246 9.79888C99.6596 16.248 106.698 27.868 106.698 41.1263Z" fill="#141720"/>
</svg>
