<svg width="493" height="800" viewBox="0 0 493 800" fill="none" xmlns="http://www.w3.org/2000/svg">
<rect width="493" height="800" rx="40" fill="#6A6DAB"/>
<rect x="23" y="489" width="257" height="46" rx="20" fill="#D0C9F9"/>
<rect x="23" y="583" width="257" height="46" rx="20" fill="#D0C9F9"/>
<path d="M105.48 379.072L107.656 384.32C107.549 384.405 107.432 384.48 107.304 384.544C107.176 384.608 107.059 384.683 106.952 384.768C106.077 383.317 105.213 382.251 104.36 381.568C103.741 381.077 103.091 380.725 102.408 380.512C101.747 380.299 101.053 380.192 100.328 380.192H97.256C96.936 380.192 96.6053 380.213 96.264 380.256C95.944 380.277 95.688 380.32 95.496 380.384C94.984 380.619 94.728 381.152 94.728 381.984V389.184H99.432C100.477 389.184 101.192 388.96 101.576 388.512C102.067 387.957 102.312 386.944 102.312 385.472H103.24V394.4H102.312C102.312 392.736 102.067 391.627 101.576 391.072C101.171 390.603 100.456 390.368 99.432 390.368H94.728V398.272C94.728 399.147 94.888 399.691 95.208 399.904C95.5493 400.181 96.4453 400.32 97.896 400.32V401.376H89.992V400.352C91.144 400.352 91.8907 400.213 92.232 399.936C92.5307 399.68 92.68 399.136 92.68 398.304V381.984C92.68 381.387 92.552 380.96 92.296 380.704C91.912 380.32 91.144 380.128 89.992 380.128V379.072H105.48ZM127.062 395.488C127.169 395.552 127.286 395.616 127.414 395.68C127.542 395.744 127.66 395.808 127.766 395.872C127.404 396.832 127.052 397.771 126.71 398.688C126.39 399.584 126.049 400.48 125.686 401.376H109.206V400.352C110.188 400.352 110.902 400.192 111.35 399.872C111.713 399.552 111.894 399.072 111.894 398.432V381.984C111.894 381.749 111.862 381.547 111.798 381.376C111.692 381.099 111.564 380.875 111.414 380.704C110.988 380.32 110.252 380.128 109.206 380.128V379.072H124.95C125.313 379.989 125.665 380.896 126.006 381.792C126.369 382.688 126.732 383.595 127.094 384.512C126.988 384.576 126.881 384.651 126.774 384.736C126.668 384.8 126.561 384.853 126.454 384.896C126.006 384 125.505 383.264 124.95 382.688C124.396 382.112 123.884 381.664 123.414 381.344C122.284 380.576 120.972 380.192 119.478 380.192H116.086C115.404 380.192 114.849 380.341 114.422 380.64C114.102 380.896 113.942 381.344 113.942 381.984V389.184H118.742C119.766 389.184 120.47 388.96 120.854 388.512C121.345 387.957 121.59 386.912 121.59 385.376H122.55V394.24H121.59C121.59 392.597 121.345 391.531 120.854 391.04C120.47 390.592 119.766 390.368 118.742 390.368H113.942V398.464C113.942 399.125 114.102 399.595 114.422 399.872C114.636 400.043 114.881 400.149 115.158 400.192C115.457 400.256 115.788 400.288 116.15 400.288H119.83C121.516 400.288 122.828 399.979 123.766 399.36C124.321 398.997 124.865 398.485 125.398 397.824C125.953 397.163 126.508 396.384 127.062 395.488ZM154.448 401.376H146.832V400.352C148.048 400.352 148.858 400.181 149.264 399.84C149.605 399.52 149.776 399.051 149.776 398.432V381.12C148.432 384.576 147.109 387.989 145.808 391.36C144.528 394.709 143.237 398.112 141.936 401.568H140.944C139.664 398.176 138.416 394.816 137.2 391.488C135.984 388.139 134.736 384.757 133.456 381.344V398.432C133.456 399.136 133.637 399.637 134 399.936C134.426 400.213 135.162 400.352 136.208 400.352V401.376H129.648V400.352C130.693 400.352 131.376 400.235 131.696 400C132.037 399.744 132.208 399.349 132.208 398.816V381.856C132.208 381.237 132.037 380.8 131.696 380.544C131.354 380.267 130.682 380.128 129.68 380.128V379.072H134.992C136.144 382.229 137.296 385.344 138.448 388.416C139.621 391.488 140.784 394.613 141.936 397.792C143.088 394.613 144.24 391.488 145.392 388.416C146.565 385.344 147.728 382.229 148.88 379.072H154.448V380.128C153.21 380.128 152.453 380.267 152.176 380.544C151.941 380.843 151.824 381.248 151.824 381.76V398.432C151.824 399.093 151.962 399.563 152.24 399.84C152.645 400.181 153.381 400.352 154.448 400.352V401.376ZM177.454 401.376H169.486V400.288C170.446 400.288 171.139 400.224 171.566 400.096C172.014 399.968 172.291 399.776 172.398 399.52C172.419 399.499 172.43 399.435 172.43 399.328C172.43 399.221 172.408 399.115 172.366 399.008C172.323 398.88 172.28 398.752 172.238 398.624C172.152 398.453 172.067 398.283 171.982 398.112C171.918 397.92 171.843 397.728 171.758 397.536C171.523 396.832 171.278 396.139 171.022 395.456C170.766 394.773 170.52 394.091 170.286 393.408H161.518C161.262 394.176 160.995 394.944 160.718 395.712C160.462 396.48 160.206 397.259 159.95 398.048C159.843 398.261 159.768 398.464 159.726 398.656C159.704 398.827 159.694 398.987 159.694 399.136C159.694 399.392 159.747 399.573 159.854 399.68C160.046 400.085 160.92 400.288 162.478 400.288V401.376H155.598V400.288C156.152 400.288 156.6 400.213 156.942 400.064C157.304 399.936 157.635 399.691 157.934 399.328C158.083 399.136 158.222 398.891 158.35 398.592C158.478 398.293 158.616 397.963 158.766 397.6C158.894 397.237 159.118 396.587 159.438 395.648C159.779 394.709 160.163 393.621 160.59 392.384C161.016 391.147 161.475 389.845 161.966 388.48C162.456 387.115 162.915 385.813 163.342 384.576C163.768 383.339 164.142 382.251 164.462 381.312C164.803 380.373 165.038 379.723 165.166 379.36C165.443 379.211 165.72 379.072 165.998 378.944C166.275 378.795 166.552 378.645 166.83 378.496C168.11 381.824 169.368 385.12 170.606 388.384C171.843 391.627 173.102 394.912 174.382 398.24C174.659 398.965 174.99 399.488 175.374 399.808C175.822 400.128 176.515 400.288 177.454 400.288V401.376ZM169.87 392.128C169.187 390.315 168.494 388.501 167.79 386.688C167.107 384.875 166.424 383.061 165.742 381.248C165.102 383.061 164.462 384.875 163.822 386.688C163.203 388.501 162.574 390.315 161.934 392.128H169.87ZM196.568 395.84L194.36 401.408H178.648V400.352C179.736 400.352 180.526 400.192 181.016 399.872C181.379 399.616 181.56 399.168 181.56 398.528V381.92C181.56 381.216 181.39 380.736 181.048 380.48C180.643 380.203 179.843 380.064 178.648 380.064V379.04H186.744V380.064C185.336 380.064 184.462 380.203 184.12 380.48C183.779 380.757 183.608 381.237 183.608 381.92V398.56C183.608 399.2 183.747 399.648 184.024 399.904C184.344 400.16 184.878 400.288 185.624 400.288H189.176C190.627 400.288 191.843 399.893 192.824 399.104C193.848 398.379 194.83 397.152 195.768 395.424L196.568 395.84ZM215.969 395.488C216.075 395.552 216.193 395.616 216.321 395.68C216.449 395.744 216.566 395.808 216.673 395.872C216.31 396.832 215.958 397.771 215.617 398.688C215.297 399.584 214.955 400.48 214.593 401.376H198.113V400.352C199.094 400.352 199.809 400.192 200.257 399.872C200.619 399.552 200.801 399.072 200.801 398.432V381.984C200.801 381.749 200.769 381.547 200.705 381.376C200.598 381.099 200.47 380.875 200.321 380.704C199.894 380.32 199.158 380.128 198.113 380.128V379.072H213.857C214.219 379.989 214.571 380.896 214.913 381.792C215.275 382.688 215.638 383.595 216.001 384.512C215.894 384.576 215.787 384.651 215.681 384.736C215.574 384.8 215.467 384.853 215.361 384.896C214.913 384 214.411 383.264 213.857 382.688C213.302 382.112 212.79 381.664 212.321 381.344C211.19 380.576 209.878 380.192 208.385 380.192H204.993C204.31 380.192 203.755 380.341 203.329 380.64C203.009 380.896 202.849 381.344 202.849 381.984V389.184H207.649C208.673 389.184 209.377 388.96 209.761 388.512C210.251 387.957 210.497 386.912 210.497 385.376H211.457V394.24H210.497C210.497 392.597 210.251 391.531 209.761 391.04C209.377 390.592 208.673 390.368 207.649 390.368H202.849V398.464C202.849 399.125 203.009 399.595 203.329 399.872C203.542 400.043 203.787 400.149 204.065 400.192C204.363 400.256 204.694 400.288 205.057 400.288H208.737C210.422 400.288 211.734 399.979 212.673 399.36C213.227 398.997 213.771 398.485 214.305 397.824C214.859 397.163 215.414 396.384 215.969 395.488Z" fill="white"/>
<path d="M353.76 401.376H346.144V400.352C347.36 400.352 348.171 400.181 348.576 399.84C348.917 399.52 349.088 399.051 349.088 398.432V381.12C347.744 384.576 346.421 387.989 345.12 391.36C343.84 394.709 342.549 398.112 341.248 401.568H340.256C338.976 398.176 337.728 394.816 336.512 391.488C335.296 388.139 334.048 384.757 332.768 381.344V398.432C332.768 399.136 332.949 399.637 333.312 399.936C333.739 400.213 334.475 400.352 335.52 400.352V401.376H328.96V400.352C330.005 400.352 330.688 400.235 331.008 400C331.349 399.744 331.52 399.349 331.52 398.816V381.856C331.52 381.237 331.349 380.8 331.008 380.544C330.667 380.267 329.995 380.128 328.992 380.128V379.072H334.304C335.456 382.229 336.608 385.344 337.76 388.416C338.933 391.488 340.096 394.613 341.248 397.792C342.4 394.613 343.552 391.488 344.704 388.416C345.877 385.344 347.04 382.229 348.192 379.072H353.76V380.128C352.523 380.128 351.765 380.267 351.488 380.544C351.253 380.843 351.136 381.248 351.136 381.76V398.432C351.136 399.093 351.275 399.563 351.552 399.84C351.957 400.181 352.693 400.352 353.76 400.352V401.376ZM376.766 401.376H368.798V400.288C369.758 400.288 370.451 400.224 370.878 400.096C371.326 399.968 371.603 399.776 371.71 399.52C371.731 399.499 371.742 399.435 371.742 399.328C371.742 399.221 371.721 399.115 371.678 399.008C371.635 398.88 371.593 398.752 371.55 398.624C371.465 398.453 371.379 398.283 371.294 398.112C371.23 397.92 371.155 397.728 371.07 397.536C370.835 396.832 370.59 396.139 370.334 395.456C370.078 394.773 369.833 394.091 369.598 393.408H360.83C360.574 394.176 360.307 394.944 360.03 395.712C359.774 396.48 359.518 397.259 359.262 398.048C359.155 398.261 359.081 398.464 359.038 398.656C359.017 398.827 359.006 398.987 359.006 399.136C359.006 399.392 359.059 399.573 359.166 399.68C359.358 400.085 360.233 400.288 361.79 400.288V401.376H354.91V400.288C355.465 400.288 355.913 400.213 356.254 400.064C356.617 399.936 356.947 399.691 357.246 399.328C357.395 399.136 357.534 398.891 357.662 398.592C357.79 398.293 357.929 397.963 358.078 397.6C358.206 397.237 358.43 396.587 358.75 395.648C359.091 394.709 359.475 393.621 359.902 392.384C360.329 391.147 360.787 389.845 361.278 388.48C361.769 387.115 362.227 385.813 362.654 384.576C363.081 383.339 363.454 382.251 363.774 381.312C364.115 380.373 364.35 379.723 364.478 379.36C364.755 379.211 365.033 379.072 365.31 378.944C365.587 378.795 365.865 378.645 366.142 378.496C367.422 381.824 368.681 385.12 369.918 388.384C371.155 391.627 372.414 394.912 373.694 398.24C373.971 398.965 374.302 399.488 374.686 399.808C375.134 400.128 375.827 400.288 376.766 400.288V401.376ZM369.182 392.128C368.499 390.315 367.806 388.501 367.102 386.688C366.419 384.875 365.737 383.061 365.054 381.248C364.414 383.061 363.774 384.875 363.134 386.688C362.515 388.501 361.886 390.315 361.246 392.128H369.182ZM395.881 395.84L393.673 401.408H377.961V400.352C379.049 400.352 379.838 400.192 380.329 399.872C380.691 399.616 380.873 399.168 380.873 398.528V381.92C380.873 381.216 380.702 380.736 380.361 380.48C379.955 380.203 379.155 380.064 377.961 380.064V379.04H386.057V380.064C384.649 380.064 383.774 380.203 383.433 380.48C383.091 380.757 382.921 381.237 382.921 381.92V398.56C382.921 399.2 383.059 399.648 383.337 399.904C383.657 400.16 384.19 400.288 384.937 400.288H388.489C389.939 400.288 391.155 399.893 392.137 399.104C393.161 398.379 394.142 397.152 395.081 395.424L395.881 395.84ZM415.281 395.488C415.388 395.552 415.505 395.616 415.633 395.68C415.761 395.744 415.878 395.808 415.985 395.872C415.622 396.832 415.27 397.771 414.929 398.688C414.609 399.584 414.268 400.48 413.905 401.376H397.425V400.352C398.406 400.352 399.121 400.192 399.569 399.872C399.932 399.552 400.113 399.072 400.113 398.432V381.984C400.113 381.749 400.081 381.547 400.017 381.376C399.91 381.099 399.782 380.875 399.633 380.704C399.206 380.32 398.47 380.128 397.425 380.128V379.072H413.169C413.532 379.989 413.884 380.896 414.225 381.792C414.588 382.688 414.95 383.595 415.313 384.512C415.206 384.576 415.1 384.651 414.993 384.736C414.886 384.8 414.78 384.853 414.673 384.896C414.225 384 413.724 383.264 413.169 382.688C412.614 382.112 412.102 381.664 411.633 381.344C410.502 380.576 409.19 380.192 407.697 380.192H404.305C403.622 380.192 403.068 380.341 402.641 380.64C402.321 380.896 402.161 381.344 402.161 381.984V389.184H406.961C407.985 389.184 408.689 388.96 409.073 388.512C409.564 387.957 409.809 386.912 409.809 385.376H410.769V394.24H409.809C409.809 392.597 409.564 391.531 409.073 391.04C408.689 390.592 407.985 390.368 406.961 390.368H402.161V398.464C402.161 399.125 402.321 399.595 402.641 399.872C402.854 400.043 403.1 400.149 403.377 400.192C403.676 400.256 404.006 400.288 404.369 400.288H408.049C409.734 400.288 411.046 399.979 411.985 399.36C412.54 398.997 413.084 398.485 413.617 397.824C414.172 397.163 414.726 396.384 415.281 395.488Z" fill="white"/>
<path d="M37.7917 523.25C37.7917 519.219 43.1667 519.219 45.8542 516.531C47.1979 515.187 43.1667 515.187 43.1667 508.469C43.1667 503.99 44.9579 501.75 48.5417 501.75C52.1255 501.75 53.9167 503.99 53.9167 508.469C53.9167 515.187 49.8854 515.187 51.2292 516.531C53.9167 519.219 59.2917 519.219 59.2917 523.25" stroke="black" stroke-width="2" stroke-linecap="round" stroke-linejoin="round"/>
<path d="M75.4167 510.708H61.0833" stroke="black" stroke-width="2" stroke-linecap="round" stroke-linejoin="round"/>
<path d="M68.25 503.542V517.875" stroke="black" stroke-width="2" stroke-linecap="round" stroke-linejoin="round"/>
<path d="M63.9492 613.186C60.7797 613.186 58.1865 615.78 58.1865 618.949C58.1865 620.275 58.6475 621.427 59.339 622.407H40.322C39.3423 622.407 38.5932 621.658 38.5932 620.678V600.508H67.4068V614.339C66.4271 613.647 65.2169 613.186 63.9492 613.186Z" fill="#F2EDDA"/>
<path d="M54.7288 606.271H57.0338V603.966H54.7288V606.271ZM43.2034 617.797H45.5085V615.492H43.2034V617.797ZM43.2034 612.034H45.5085V609.729H43.2034V612.034ZM43.2034 606.271H45.5085V603.966H43.2034V606.271ZM54.7288 617.797H57.0338V615.492H54.7288V617.797ZM54.7288 612.034H57.0338V609.729H54.7288V612.034ZM60.4915 612.034H62.7966V609.729H60.4915V612.034V612.034ZM60.4915 606.271H62.7966V603.966H60.4915V606.271V606.271ZM48.9661 617.797H51.2712V615.492H48.9661V617.797ZM48.9661 612.034H51.2712V609.729H48.9661V612.034ZM48.9661 606.271H51.2712V603.966H48.9661V606.271Z" fill="#AAB1BA"/>
<path d="M45.5085 592.441V594.746C45.5085 595.38 44.9898 595.898 44.3559 595.898C44.0677 595.898 43.7797 595.783 43.5491 595.553C43.3186 595.322 43.2033 595.034 43.2033 594.746V592.441C43.2033 591.807 43.722 591.288 44.3559 591.288C44.6441 591.288 44.9322 591.403 45.1627 591.634C45.3932 591.864 45.5085 592.153 45.5085 592.441ZM62.7966 592.441V594.746C62.7966 595.38 62.2779 595.898 61.644 595.898C61.2983 595.898 61.0101 595.783 60.8372 595.553C60.6067 595.322 60.4915 595.034 60.4915 594.746V592.441C60.4915 591.807 61.0101 591.288 61.644 591.288C61.9898 591.288 62.2779 591.403 62.4508 591.634C62.6813 591.864 62.7966 592.153 62.7966 592.441ZM57.0339 592.441V594.746C57.0339 595.38 56.5153 595.898 55.8813 595.898C55.5356 595.898 55.2474 595.783 55.0745 595.553C54.8441 595.322 54.7288 595.034 54.7288 594.746V592.441C54.7288 591.807 55.2474 591.288 55.8813 591.288C56.2271 591.288 56.5153 591.403 56.6881 591.634C56.9186 591.864 57.0339 592.153 57.0339 592.441ZM51.2712 592.441V594.746C51.2712 595.38 50.7525 595.898 50.1186 595.898C49.7728 595.898 49.4847 595.783 49.3118 595.553C49.0814 595.322 48.9661 595.034 48.9661 594.746V592.441C48.9661 591.807 49.4847 591.288 50.1187 591.288C50.4644 591.288 50.7526 591.403 50.9255 591.634C51.1559 591.864 51.2712 592.153 51.2712 592.441Z" fill="#ECF4F7"/>
<path d="M69.7118 598.203V618.949C69.7118 617.047 68.7898 615.376 67.4068 614.339V600.508H38.5932V620.678C38.5932 621.658 39.3424 622.407 40.322 622.407H59.339C60.3763 623.79 62.0475 624.712 63.9492 624.712H38.5932C37.4407 624.712 36.2882 623.559 36.2882 622.407V598.203H69.7118V598.203Z" fill="#FFD0A1"/>
<path d="M69.7118 594.746V598.203H36.2882V594.746C36.2882 593.593 37.4407 592.441 38.5932 592.441H43.2034V594.746C43.2034 595.034 43.3187 595.322 43.5492 595.553C43.7797 595.783 44.0678 595.898 44.356 595.898C44.9899 595.898 45.5085 595.38 45.5085 594.746V592.441H48.9661V594.746C48.9661 595.034 49.0814 595.322 49.3119 595.553C49.5423 595.783 49.8305 595.898 50.1187 595.898C50.7526 595.898 51.2712 595.38 51.2712 594.746V592.441H54.7289V594.746C54.7289 595.034 54.8441 595.322 55.0746 595.553C55.3051 595.783 55.5933 595.898 55.8814 595.898C56.5153 595.898 57.034 595.38 57.034 594.746V592.441H60.4916V594.746C60.4916 595.034 60.6069 595.322 60.8374 595.553C61.0679 595.783 61.356 595.898 61.6442 595.898C62.2781 595.898 62.7967 595.38 62.7967 594.746V592.441H67.4069C68.5593 592.441 69.7118 593.593 69.7118 594.746Z" fill="#FF7474"/>
<path d="M67.4068 614.339C68.7898 615.376 69.7118 617.047 69.7118 618.949C69.7118 622.119 67.1186 624.712 63.9492 624.712C62.0475 624.712 60.3763 623.79 59.339 622.407C58.5898 621.427 58.1864 620.217 58.1864 618.949C58.1864 615.78 60.7796 613.186 63.9491 613.186C65.2169 613.186 66.4271 613.647 67.4068 614.339Z" fill="#ECF4F7"/>
<path d="M63.9492 625C60.6068 625 57.8983 622.292 57.8983 618.949C57.8983 615.607 60.6068 612.898 63.9492 612.898C67.2915 612.898 70 615.607 70 618.949C70 622.292 67.2915 625 63.9492 625ZM63.9492 613.475C60.9526 613.475 58.4746 615.953 58.4746 618.949C58.4746 621.946 60.9525 624.424 63.9492 624.424C66.9458 624.424 69.4238 621.946 69.4238 618.949C69.4238 615.953 66.9457 613.475 63.9492 613.475ZM57.6102 625H38.5932C37.2678 625 36 623.732 36 622.407V598.203C36 598.031 36.1153 597.915 36.2882 597.915H67.4068C67.5797 597.915 67.6949 598.031 67.6949 598.203C67.6949 598.376 67.5797 598.492 67.4068 598.492H36.5762V622.407C36.5762 623.386 37.6135 624.424 38.5932 624.424H57.6102C57.783 624.424 57.8983 624.539 57.8983 624.712C57.8983 624.885 57.783 625 57.6102 625ZM56.4576 622.695H40.322C39.2271 622.695 38.3051 621.773 38.3051 620.678V600.508C38.3051 600.336 38.4203 600.22 38.5932 600.22H67.4068C67.5797 600.22 67.6949 600.336 67.6949 600.508V611.458C67.6949 611.63 67.5797 611.746 67.4068 611.746C67.2339 611.746 67.1186 611.63 67.1186 611.458V600.797H38.8814V620.678C38.8814 621.485 39.5153 622.119 40.322 622.119H56.4576C56.6305 622.119 56.7457 622.234 56.7457 622.407C56.7457 622.58 56.6305 622.695 56.4576 622.695ZM67.4068 619.237H63.9492C63.7763 619.237 63.661 619.122 63.661 618.949V616.644C63.661 616.471 63.7763 616.356 63.9492 616.356C64.122 616.356 64.2373 616.471 64.2373 616.644V618.661H67.4068C67.5797 618.661 67.6949 618.776 67.6949 618.949C67.6949 619.122 67.5797 619.237 67.4068 619.237ZM55.8813 618.085H54.7288C54.5559 618.085 54.4406 617.969 54.4406 617.797V615.492C54.4406 615.319 54.5559 615.203 54.7288 615.203H55.8813C56.0542 615.203 56.1695 615.319 56.1695 615.492C56.1695 615.664 56.0542 615.78 55.8813 615.78H55.0169V617.509H55.8813C56.0542 617.509 56.1695 617.624 56.1695 617.797C56.1695 617.97 56.0542 618.085 55.8813 618.085ZM51.2712 618.085H48.9661C48.7932 618.085 48.6779 617.969 48.6779 617.797V615.492C48.6779 615.319 48.7932 615.203 48.9661 615.203H51.2712C51.444 615.203 51.5593 615.319 51.5593 615.492V617.797C51.5593 617.969 51.444 618.085 51.2712 618.085ZM49.2543 617.508H50.9831V615.78H49.2543V617.508ZM45.5085 618.085H43.2034C43.0305 618.085 42.9152 617.969 42.9152 617.797V615.492C42.9152 615.319 43.0305 615.203 43.2034 615.203H45.5085C45.6813 615.203 45.7966 615.319 45.7966 615.492V617.797C45.7966 617.969 45.6813 618.085 45.5085 618.085ZM43.4915 617.508H45.2203V615.78H43.4915V617.508V617.508ZM69.7118 612.898C69.539 612.898 69.4237 612.783 69.4237 612.61V594.746C69.4237 593.766 68.3864 592.729 67.4067 592.729H65.1017C64.9288 592.729 64.8135 592.614 64.8135 592.441C64.8135 592.268 64.9288 592.152 65.1017 592.152H67.4067C68.7322 592.152 69.9999 593.42 69.9999 594.746V612.61C70 612.783 69.8847 612.898 69.7118 612.898ZM57.0339 612.322H54.7288C54.556 612.322 54.4407 612.207 54.4407 612.034V609.729C54.4407 609.556 54.556 609.441 54.7288 609.441H57.0339C57.2068 609.441 57.3221 609.556 57.3221 609.729V612.034C57.322 612.207 57.2068 612.322 57.0339 612.322ZM55.0169 611.746H56.7457V610.017H55.0169V611.746ZM51.2712 612.322H48.9661C48.7932 612.322 48.6779 612.207 48.6779 612.034V609.729C48.6779 609.556 48.7932 609.441 48.9661 609.441H51.2712C51.444 609.441 51.5593 609.556 51.5593 609.729V612.034C51.5593 612.207 51.444 612.322 51.2712 612.322ZM49.2543 611.746H50.9831V610.017H49.2543V611.746ZM45.5085 612.322H43.2034C43.0305 612.322 42.9152 612.207 42.9152 612.034V609.729C42.9152 609.556 43.0305 609.441 43.2034 609.441H45.5085C45.6813 609.441 45.7966 609.556 45.7966 609.729V612.034C45.7966 612.207 45.6813 612.322 45.5085 612.322ZM43.4915 611.746H45.2203V610.017H43.4915V611.746V611.746ZM62.7966 611.17C62.6237 611.17 62.5084 611.054 62.5084 610.881V610.017H60.7796V610.881C60.7796 611.054 60.6643 611.17 60.4915 611.17C60.3186 611.17 60.2033 611.054 60.2033 610.881V609.729C60.2033 609.556 60.3186 609.441 60.4915 609.441H62.7966C62.9695 609.441 63.0847 609.556 63.0847 609.729V610.881C63.0847 611.054 62.9695 611.17 62.7966 611.17ZM62.7966 606.559H60.4915C60.3186 606.559 60.2034 606.444 60.2034 606.271V603.966C60.2034 603.793 60.3186 603.678 60.4915 603.678H62.7966C62.9695 603.678 63.0847 603.793 63.0847 603.966V606.271C63.0847 606.444 62.9695 606.559 62.7966 606.559ZM60.7796 605.983H62.5084V604.254H60.7796V605.983ZM57.0339 606.559H54.7288C54.556 606.559 54.4407 606.444 54.4407 606.271V603.966C54.4407 603.793 54.556 603.678 54.7288 603.678H57.0339C57.2068 603.678 57.3221 603.793 57.3221 603.966V606.271C57.322 606.444 57.2068 606.559 57.0339 606.559ZM55.0169 605.983H56.7457V604.254H55.0169V605.983ZM51.2712 606.559H48.9661C48.7932 606.559 48.6779 606.444 48.6779 606.271V603.966C48.6779 603.793 48.7932 603.678 48.9661 603.678H51.2712C51.444 603.678 51.5593 603.793 51.5593 603.966V606.271C51.5593 606.444 51.444 606.559 51.2712 606.559ZM49.2543 605.983H50.9831V604.254H49.2543V605.983ZM45.5085 606.559H43.2034C43.0305 606.559 42.9152 606.444 42.9152 606.271V603.966C42.9152 603.793 43.0305 603.678 43.2034 603.678H45.5085C45.6813 603.678 45.7966 603.793 45.7966 603.966V606.271C45.7966 606.444 45.6813 606.559 45.5085 606.559ZM43.4915 605.983H45.2203V604.254H43.4915V605.983V605.983ZM61.644 596.186C60.8372 596.186 60.2034 595.553 60.2034 594.746V592.441C60.2034 591.634 60.8373 591 61.644 591C62.4508 591 63.0847 591.634 63.0847 592.441V594.746C63.0848 595.553 62.4508 596.186 61.644 596.186ZM61.644 591.576C61.183 591.576 60.7796 591.98 60.7796 592.441V594.746C60.7796 595.207 61.183 595.61 61.644 595.61C62.1051 595.61 62.5084 595.207 62.5084 594.746V592.441C62.5084 591.98 62.1051 591.576 61.644 591.576ZM55.8813 596.186C55.0745 596.186 54.4407 595.553 54.4407 594.746V592.441C54.4407 591.634 55.0745 591 55.8813 591C56.6881 591 57.322 591.634 57.322 592.441V594.746C57.322 595.553 56.6881 596.186 55.8813 596.186ZM55.8813 591.576C55.4203 591.576 55.0169 591.98 55.0169 592.441V594.746C55.0169 595.207 55.4203 595.61 55.8813 595.61C56.3424 595.61 56.7457 595.207 56.7457 594.746V592.441C56.7457 591.98 56.3424 591.576 55.8813 591.576ZM50.1187 596.186C49.3119 596.186 48.678 595.553 48.678 594.746V592.441C48.6779 591.634 49.3119 591 50.1187 591C50.9254 591 51.5593 591.634 51.5593 592.441V594.746C51.5593 595.553 50.9254 596.186 50.1187 596.186ZM50.1187 591.576C49.6576 591.576 49.2543 591.98 49.2543 592.441V594.746C49.2543 595.207 49.6576 595.61 50.1187 595.61C50.5797 595.61 50.9831 595.207 50.9831 594.746V592.441C50.9831 591.98 50.5796 591.576 50.1187 591.576ZM44.3559 596.186C43.5491 596.186 42.9152 595.553 42.9152 594.746V592.441C42.9152 591.634 43.5492 591 44.3559 591C45.1627 591 45.7966 591.634 45.7966 592.441V594.746C45.7966 595.553 45.1627 596.186 44.3559 596.186ZM44.3559 591.576C43.8949 591.576 43.4915 591.98 43.4915 592.441V594.746C43.4915 595.207 43.8949 595.61 44.3559 595.61C44.8169 595.61 45.2203 595.207 45.2203 594.746V592.441C45.2203 591.98 44.8169 591.576 44.3559 591.576ZM36.2882 596.186C36.1153 596.186 36 596.071 36 595.898V594.746C36 593.42 37.2678 592.153 38.5932 592.153H40.8983C41.0712 592.153 41.1864 592.268 41.1864 592.441C41.1864 592.614 41.0712 592.729 40.8983 592.729H38.5932C37.6135 592.729 36.5762 593.766 36.5762 594.746V595.898C36.5762 596.071 36.461 596.186 36.2882 596.186Z" fill="#51565F"/>
</svg>
