<svg width="140" height="140" viewBox="0 0 140 140" fill="none" xmlns="http://www.w3.org/2000/svg">
<g clip-path="url(#clip0_24_31)">
<path d="M140 70.0005C140 108.66 108.66 140 70.0005 140C31.3406 140 0 108.66 0 70.0005C0 31.3406 31.3406 0.000976562 70.0014 0.000976562C108.66 0.000976562 140 31.3406 140 70.0005Z" fill="#4AC8EB"/>
<path d="M101.177 39.2769V62.5414C101.177 62.878 101.169 63.2147 101.162 63.5513C101.153 63.827 101.145 64.0943 101.131 64.37C101.123 64.6148 101.108 64.8595 101.085 65.1043C101.078 65.2806 101.062 65.456 101.047 65.6323C101.039 65.7392 101.031 65.8386 101.017 65.9455C101.001 66.1368 100.986 66.3356 100.955 66.5269C100.926 66.8945 100.879 67.2537 100.825 67.6213C100.818 67.7132 100.803 67.8051 100.787 67.897C100.765 68.0799 100.733 68.2637 100.702 68.4475V68.47C100.656 68.7382 100.61 68.9989 100.565 69.2662C100.497 69.6328 100.428 70.0004 100.351 70.3596C100.343 70.3755 100.343 70.3906 100.336 70.4056C100.326 70.459 100.319 70.5134 100.305 70.5669C100.297 70.5819 100.297 70.5969 100.289 70.6128C100.25 70.8116 100.204 71.0029 100.158 71.1942C100.143 71.2777 100.128 71.3621 100.098 71.4465C100.075 71.5843 100.037 71.7222 100.006 71.8591C99.9831 71.936 99.9672 72.0204 99.9362 72.0964C99.9212 72.1658 99.8987 72.2342 99.8828 72.2952C99.7224 72.9226 99.5386 73.5349 99.3473 74.1473C99.2554 74.438 99.1644 74.7203 99.0641 75.011C99.0566 75.0419 99.0416 75.0729 99.0341 75.1029C98.9422 75.3636 98.8512 75.6234 98.7584 75.8831C98.7274 75.96 98.6984 76.0369 98.6665 76.1204C98.5736 76.3651 98.4827 76.6099 98.3833 76.8547C98.2689 77.1538 98.146 77.4445 98.0232 77.7352C97.9172 77.995 97.8018 78.2548 97.6874 78.5155C97.6715 78.5614 97.649 78.5989 97.633 78.6449C97.5027 78.9215 97.3808 79.1963 97.2514 79.4636C97.1201 79.7468 96.9832 80.03 96.8387 80.3132C96.563 80.8712 96.2648 81.4301 95.9666 81.9731L95.5531 82.7073C94.3752 84.7348 93.0679 86.6394 91.6435 88.3997C91.4521 88.6519 91.2533 88.8967 91.047 89.1339C90.7638 89.4781 90.4731 89.8148 90.1824 90.1439C89.9226 90.4346 89.661 90.7253 89.3947 91.0076C88.6604 91.7963 87.9102 92.5456 87.1449 93.2498C86.9921 93.4027 86.8317 93.5406 86.6714 93.6859C86.4106 93.9232 86.1509 94.152 85.8827 94.3742C85.6754 94.558 85.4626 94.7334 85.2469 94.9097C84.6964 95.3608 84.1459 95.7968 83.587 96.2029C83.3572 96.3783 83.12 96.5471 82.8837 96.7074C82.5011 96.9831 82.1109 97.2429 81.7208 97.4952C81.5061 97.6405 81.2848 97.7784 81.0625 97.9087C80.2823 98.3907 79.4945 98.8343 78.7143 99.2169C78.523 99.3163 78.3326 99.4082 78.1413 99.5001C77.95 99.592 77.7512 99.683 77.543 99.7749C77.2908 99.8902 77.0385 99.9972 76.7862 100.097C76.6868 100.143 76.5874 100.181 76.488 100.211C76.1898 100.334 75.8841 100.448 75.5849 100.548C75.2108 100.685 74.8272 100.801 74.453 100.908C74.1933 100.984 73.9251 101.053 73.6644 101.114C73.6494 101.122 73.6344 101.129 73.6109 101.129C73.3512 101.191 73.0895 101.252 72.8307 101.298C72.7622 101.313 72.6928 101.328 72.6234 101.336C72.4087 101.374 72.1949 101.412 71.9811 101.436C71.6744 101.482 71.3687 101.519 71.063 101.535C70.9551 101.55 70.8548 101.558 70.7479 101.558C70.5031 101.574 70.2593 101.581 70.022 101.581H69.9995C69.7623 101.581 69.525 101.574 69.2878 101.558C69.1959 101.558 69.104 101.55 69.0121 101.535C68.7982 101.527 68.576 101.504 68.3472 101.473C68.3012 101.473 68.2478 101.466 68.2018 101.458C67.9186 101.42 67.6363 101.374 67.3447 101.32C67.0999 101.283 66.8561 101.228 66.6029 101.167C65.2947 100.869 63.948 100.418 62.5873 99.8133C61.4245 99.3013 60.2457 98.6814 59.0753 97.9622C58.4864 97.603 57.8975 97.2204 57.3161 96.8143C57.0254 96.608 56.7347 96.4017 56.443 96.187C55.5324 95.5221 54.6303 94.7953 53.7422 94.0151C53.4974 93.7928 53.2536 93.5706 53.0079 93.3417C52.7632 93.1195 52.5193 92.8897 52.2821 92.6684C51.6857 92.0945 51.1042 91.4981 50.5378 90.8782C50.3174 90.6409 50.0942 90.3962 49.872 90.1439C49.2615 89.4547 48.6632 88.7438 48.0977 88.0011C47.8755 87.7338 47.6692 87.4581 47.4619 87.1833C46.6901 86.1574 45.9558 85.0865 45.2656 83.9771C45.0837 83.6789 44.899 83.3732 44.7227 83.0749C44.5098 82.7148 44.3025 82.3482 44.0953 81.9806C43.331 80.6039 42.6277 79.1728 42.0143 77.6968C41.9224 77.482 41.8305 77.2682 41.7546 77.0544C41.6317 76.7787 41.5258 76.4955 41.4254 76.2198C41.2726 75.8147 41.1272 75.4095 40.9894 75.0035C40.8506 74.5984 40.7221 74.1848 40.5917 73.7722C40.4689 73.3746 40.3545 72.976 40.2476 72.5709C40.1247 72.1423 40.0103 71.7063 39.9109 71.2627C39.9034 71.2167 39.8884 71.1708 39.88 71.1248C39.7355 70.5134 39.6052 69.8935 39.4898 69.2662C39.3379 68.44 39.2141 67.5979 39.1232 66.7492C39.0847 66.481 39.0622 66.2137 39.0388 65.9455C39.0078 65.6623 38.9853 65.3875 38.9694 65.1043C38.9319 64.5913 38.9084 64.0718 38.8934 63.5513C38.8859 63.2147 38.8784 62.878 38.8784 62.5414V40.8074C38.8784 23.617 52.8082 9.67785 69.9986 9.66284H70.0286C72.4002 9.66284 74.7109 9.93011 76.9297 10.4281C78.9572 10.8866 80.9068 11.545 82.7589 12.3786C85.2825 13.5105 87.6326 14.9641 89.7435 16.7009C91.5187 18.1544 93.1317 19.7918 94.5393 21.597C98.6402 26.8223 101.112 33.3858 101.165 40.5317C101.177 40.6236 101.177 39.185 101.177 39.2769Z" fill="#ECC19C"/>
<path d="M110.609 149.372V149.38H29.4474V149.372C29.4474 144.789 30.2051 140.375 31.6127 136.268C31.8649 135.525 32.1407 134.791 32.4398 134.064V134.056C32.7305 133.33 33.0512 132.618 33.3888 131.914C34.7271 129.092 36.3954 126.452 38.33 124.034C38.8205 123.43 39.3184 122.841 39.8304 122.275C40.0836 121.984 40.3509 121.701 40.6191 121.418C40.8864 121.143 41.1546 120.867 41.4294 120.592C42.7994 119.223 44.2671 117.968 45.8135 116.812C46.5862 116.239 47.3664 115.703 48.1776 115.184C48.9878 114.671 49.814 114.181 50.6571 113.722C50.6721 113.707 50.6871 113.707 50.6871 113.707C51.0163 113.53 51.337 113.339 51.6586 113.14C52.6152 112.567 53.5323 111.931 54.4054 111.228C58.0993 108.29 60.9614 104.343 62.5913 99.8134C63.5628 97.106 64.0917 94.1905 64.0917 91.1464L70.0053 91.1764L76.0878 91.2074C76.0878 94.2139 76.5998 97.0976 77.5488 99.7759C79.1552 104.319 82.0089 108.282 85.7037 111.236C86.2542 111.687 86.8131 112.1 87.4021 112.49C87.463 112.536 87.5165 112.575 87.5784 112.613C87.8531 112.796 88.1288 112.98 88.4186 113.148C88.7318 113.339 89.0535 113.53 89.3761 113.707C89.4295 113.722 89.4746 113.745 89.513 113.775C90.1863 114.15 90.8512 114.54 91.502 114.946C91.8152 115.138 92.1294 115.336 92.4351 115.558C93.07 115.964 93.6899 116.407 94.2938 116.866C94.2938 116.873 94.3013 116.873 94.3013 116.873H94.3097C95.0825 117.447 95.8317 118.06 96.566 118.687C97.3003 119.314 98.0036 119.972 98.6854 120.653C106.058 127.997 110.609 138.14 110.609 149.372Z" fill="#ECC19C"/>
<path d="M110.607 149.368H29.4444C29.4444 144.786 30.203 140.371 31.6106 136.264C31.8629 135.521 32.1386 134.787 32.4368 134.06V134.053C32.7275 133.326 33.0492 132.614 33.3859 131.911C34.725 129.088 36.3924 126.448 38.3279 124.031C38.8175 123.427 39.3154 122.838 39.8274 122.271C40.0816 121.981 40.3479 121.697 40.6161 121.414C40.8834 121.138 41.1516 120.864 41.4264 120.588C42.7965 119.219 44.265 117.964 45.8105 116.809C46.5832 116.235 47.3634 115.699 48.1746 115.18C48.5947 114.912 49.0149 114.652 49.4444 114.399C49.842 114.162 50.2471 113.933 50.6532 113.71C50.6691 113.695 50.6832 113.703 50.6832 113.703V113.695C51.0123 113.512 51.334 113.328 51.6556 113.136C52.6112 112.555 53.5293 111.913 54.3865 111.209C54.394 111.217 54.394 111.217 54.4015 111.224C58.3655 115.279 63.8805 117.796 70.0005 117.811H70.0614C76.1823 117.811 81.7208 115.287 85.6989 111.232L85.7064 111.224C86.2494 111.675 86.8167 112.096 87.3981 112.487C87.4581 112.532 87.5116 112.571 87.5744 112.609C87.8492 112.792 88.1324 112.969 88.4156 113.144C88.7288 113.335 89.0505 113.519 89.3722 113.695C89.4256 113.71 89.4641 113.741 89.51 113.764C89.8692 113.963 90.2358 114.17 90.5875 114.384C90.8932 114.567 91.1999 114.751 91.499 114.943C91.8123 115.134 92.1264 115.333 92.4312 115.554C93.067 115.96 93.6859 116.404 94.2908 116.862H94.3067C95.0795 117.444 95.8372 118.049 96.563 118.683C97.2973 119.311 98.0016 119.968 98.6824 120.649C106.055 127.994 110.607 138.138 110.607 149.368Z" fill="#EB6D4A"/>
<path d="M101.177 62.5414C101.177 62.878 101.169 63.2147 101.162 63.5514C101.153 63.8271 101.145 64.0943 101.131 64.37C101.123 64.6148 101.108 64.8596 101.085 65.1043C101.077 65.2806 101.062 65.456 101.047 65.6323C101.039 65.7392 101.031 65.8386 101.017 65.9455C101.001 66.1368 100.986 66.3356 100.955 66.5269C100.917 66.8945 100.879 67.2612 100.825 67.6213C100.818 67.7132 100.803 67.8051 100.787 67.897C100.765 68.0799 100.733 68.2637 100.702 68.4475C100.664 68.7232 100.61 68.998 100.565 69.2662C100.505 69.5869 100.443 69.9011 100.374 70.2143C100.366 70.2837 100.352 70.3446 100.337 70.4056C100.327 70.459 100.313 70.5125 100.306 70.5669C100.298 70.5819 100.298 70.5969 100.29 70.6128C100.29 70.6503 100.282 70.6813 100.274 70.7122C100.236 70.8726 100.205 71.033 100.159 71.1943C100.144 71.2777 100.128 71.3621 100.099 71.4465C100.068 71.5994 100.03 71.7447 99.9841 71.8901C99.9756 71.9586 99.9615 72.0279 99.9372 72.0964C99.9222 72.1658 99.8997 72.2343 99.8837 72.2952C99.7234 72.9226 99.5395 73.535 99.3482 74.1464C99.2563 74.4371 99.1654 74.7203 99.065 75.011C99.0575 75.042 99.0425 75.0729 99.035 75.1029C98.9431 75.3636 98.8521 75.6234 98.7593 75.8832C98.7284 75.96 98.6993 76.0369 98.6674 76.1204C98.5746 76.3652 98.4836 76.6099 98.3842 76.8547C98.2698 77.1538 98.1469 77.4446 98.0241 77.7353C97.9181 77.995 97.8028 78.2548 97.6884 78.5155C97.6724 78.5614 97.6499 78.599 97.634 78.6449C97.5036 78.9206 97.3817 79.1963 97.2523 79.4636C97.121 79.7468 96.9841 80.03 96.8397 80.3132C96.564 80.8712 96.2658 81.4301 95.9675 81.9731L95.554 82.7074C94.3761 84.7348 93.0689 86.6395 91.6444 88.3997C91.4531 88.6519 91.2543 88.8967 91.048 89.134C90.7647 89.4781 90.474 89.8148 90.1833 90.1439C89.9236 90.4347 89.6619 90.7254 89.3956 91.0076C88.6613 91.7963 87.9111 92.5456 87.1459 93.2499C86.993 93.4027 86.8326 93.5406 86.6723 93.6859C86.4116 93.9232 86.1518 94.152 85.8836 94.3743C85.6764 94.5581 85.4635 94.7334 85.2478 94.9097C84.6973 95.3608 84.1469 95.7969 83.5879 96.2029C83.3582 96.3783 83.1209 96.5471 82.8846 96.7075C82.502 96.9832 82.1119 97.2429 81.7218 97.4952C81.507 97.6405 81.2857 97.7784 81.0634 97.9088C80.2832 98.3908 79.4955 98.8343 78.7152 99.217C78.5239 99.3164 78.3336 99.4083 78.1423 99.5002C77.951 99.5921 77.7521 99.683 77.544 99.7749C77.2917 99.8903 77.0394 99.9972 76.7872 100.097C76.6878 100.143 76.5884 100.181 76.489 100.211C76.1907 100.334 75.885 100.448 75.5859 100.548C75.2117 100.686 74.8281 100.801 74.454 100.908C74.1942 100.984 73.926 101.053 73.6653 101.114C73.6503 101.122 73.6353 101.129 73.6119 101.129C73.3521 101.191 73.0904 101.252 72.8316 101.298C72.7632 101.313 72.6938 101.328 72.6244 101.336C72.4096 101.374 72.1958 101.412 71.982 101.436C71.6753 101.481 71.3696 101.519 71.0639 101.535C70.9561 101.55 70.8557 101.558 70.7488 101.558C70.5041 101.573 70.2602 101.581 70.023 101.581H70.0005C69.7632 101.581 69.5259 101.573 69.2887 101.558C69.1968 101.558 69.1049 101.55 69.013 101.535C68.7992 101.527 68.5769 101.504 68.3481 101.473C68.3021 101.473 68.2487 101.466 68.2027 101.458C67.9195 101.42 67.6373 101.374 67.3456 101.32C67.1009 101.282 66.857 101.228 66.6038 101.168C65.2956 100.869 63.949 100.418 62.5883 99.8134C61.4254 99.3013 60.2466 98.6815 59.0763 97.9622C58.4874 97.6105 57.9059 97.2279 57.317 96.8144C57.0263 96.6081 56.7356 96.4017 56.4439 96.187C55.5334 95.5221 54.6312 94.7953 53.7431 94.0142C53.4984 93.7928 53.2546 93.5706 53.0089 93.3418C52.7641 93.1195 52.5203 92.8898 52.283 92.6684C51.6866 92.0945 51.1052 91.4981 50.5387 90.8782C50.3184 90.641 50.0952 90.3962 49.8729 90.1439C49.2624 89.4547 48.6641 88.7438 48.0986 88.0011C47.8764 87.7339 47.6701 87.4582 47.4628 87.1824C46.691 86.1575 45.9568 85.0865 45.2666 83.9771C45.0846 83.6789 44.8999 83.3732 44.7236 83.075C44.5107 82.7149 44.3035 82.3482 44.0962 81.9806C43.3319 80.6039 42.6286 79.1729 42.0153 77.6968C41.9234 77.4821 41.8315 77.2683 41.7555 77.0535C41.6327 76.7787 41.5267 76.4955 41.4264 76.2198C41.2735 75.8147 41.1281 75.4096 40.9903 75.0035C40.8515 74.5984 40.723 74.1848 40.5927 73.7722C40.4698 73.3746 40.3554 72.976 40.2485 72.5709C40.1257 72.1424 40.0112 71.7063 39.9118 71.2627C39.9043 71.2168 39.8893 71.1708 39.8809 71.1249C39.7365 70.5125 39.6061 69.8936 39.4908 69.2662C39.3389 68.44 39.2151 67.5979 39.1241 66.7492C39.0857 66.481 39.0632 66.2137 39.0397 65.9455C39.0088 65.6623 38.9863 65.3875 38.9703 65.1043C38.9328 64.5914 38.9094 64.0718 38.8944 63.5514C38.8868 63.2147 38.8793 62.878 38.8793 62.5414L43.8515 72.3187L52.3965 76.0444L62.502 76.9541H62.5104L69.9995 77.6349H70.0455L77.0535 78.2707C77.0535 78.2707 77.0535 78.2623 77.061 78.2707L92.691 79.6783L101.177 62.5414Z" fill="#52403A"/>
<path d="M70.0633 67.4525L70.0558 74.9885V74.996L70.0474 77.6349V79.7084L70.0389 86.5935V86.601L70.0314 86.5935H70.0239L70.0014 86.5785L39.9137 71.2627C39.9062 71.2168 39.8912 71.1708 39.8828 71.1249C39.7384 70.5125 39.608 69.8926 39.4927 69.2653C39.3407 68.4391 39.217 67.5979 39.126 66.7492C39.0875 66.481 39.065 66.2128 39.0416 65.9455C39.0106 65.6623 38.9881 65.3866 38.9722 65.1043C38.9347 64.5914 38.9112 64.0709 38.8962 63.5504C38.8887 63.2147 38.8812 62.8781 38.8812 62.5414V53.399C38.8812 53.5293 38.8887 53.6588 38.8887 53.7891C38.9497 56.0004 39.3014 58.433 39.9822 60.919C40.5101 62.8321 41.1685 64.5989 41.9337 66.1753V66.1828C43.9377 70.3521 46.6226 73.1824 49.0936 73.6419C49.2465 73.6644 49.4078 73.6803 49.5606 73.6953C50.5172 73.8022 51.5187 73.8632 52.5522 73.8632C56.4533 73.8632 59.9184 70.7273 62.0997 69.4566C62.1147 69.4491 62.1297 69.4416 62.1456 69.4341C62.26 69.3647 62.3745 69.2962 62.4748 69.2277C62.5048 69.2043 62.5358 69.1893 62.5667 69.1743C64.4029 68.1259 67.0502 67.46 70.0033 67.4525H70.0633Z" fill="#543E36"/>
<path d="M101.183 53.3952L101.175 62.5376C101.175 64.8323 100.96 67.0811 100.563 69.2615C100.402 70.1336 100.218 70.9982 100.005 71.8554L92.9432 82.0528L70.038 86.5897H70.0295L70.022 86.5972V86.5897L70.0005 67.4459H70.0605C73.0135 67.4534 75.6684 68.1193 77.5036 69.1677C77.5346 69.1827 77.558 69.1977 77.588 69.2212C77.6949 69.2896 77.8103 69.359 77.9247 69.4275C77.9322 69.435 77.9472 69.4425 77.9631 69.4509C80.151 70.7207 83.6086 73.8594 87.5107 73.8594C88.5432 73.8594 89.5456 73.7984 90.5012 73.6915C90.6625 73.6765 90.8145 73.6606 90.9757 73.6381C93.4393 73.1786 96.1317 70.3484 98.1291 66.179V66.1715C98.8934 64.5951 99.5517 62.8283 100.079 60.9152C100.767 58.3907 101.127 55.9272 101.174 53.6859C101.183 53.5865 101.183 53.4946 101.183 53.3952Z" fill="#543E36"/>
<path d="M77.6565 77.3489C77.6565 76.0464 74.2392 74.9904 70.0248 74.9904C65.8114 74.9904 62.3941 76.0464 62.3941 77.3489C62.3941 78.6515 65.8114 79.7074 70.0248 79.7074C74.2392 79.7074 77.6565 78.6515 77.6565 77.3489Z" fill="#ECC19C"/>
<path d="M70.0005 16.1223C66.6029 16.1223 64.3776 12.5672 65.8621 9.51095L70.0005 0.990295L74.1389 9.51095C75.6234 12.5672 73.398 16.1223 70.0005 16.1223Z" fill="#543E36"/>
<path d="M90.5866 114.383L89.7463 115.24C84.4966 120.587 77.4905 123.533 70.0164 123.533C62.4645 123.517 55.4715 120.565 50.248 115.224L49.4444 114.398C49.842 114.16 50.248 113.932 50.6532 113.709C50.6682 113.694 50.6841 113.702 50.6841 113.702V113.694C51.0123 113.511 51.3331 113.327 51.6556 113.135C52.6112 112.554 53.5293 111.912 54.3865 111.208C54.394 111.216 54.394 111.216 54.4015 111.223C58.3645 115.277 63.8805 117.794 70.0005 117.81H70.0614C76.1814 117.81 81.7208 115.286 85.6989 111.231L85.7064 111.223C86.2494 111.674 86.8167 112.095 87.3972 112.486C87.4582 112.532 87.5125 112.57 87.5735 112.607C87.8483 112.791 88.1315 112.968 88.4137 113.143C88.7279 113.334 89.0496 113.518 89.3712 113.694C89.4247 113.709 89.4631 113.74 89.5081 113.763C89.8673 113.963 90.2349 114.17 90.5866 114.383Z" fill="#93302D"/>
<path d="M125 6L130 11L140 1" stroke="#E4A951" stroke-width="2" stroke-linecap="round" stroke-linejoin="round"/>
</g>
<defs>
<clipPath id="clip0_24_31">
<rect width="140" height="140" fill="white"/>
</clipPath>
</defs>
</svg>
