<svg width="493" height="800" viewBox="0 0 493 800" fill="none" xmlns="http://www.w3.org/2000/svg">
<rect width="493" height="800" rx="40" fill="#6A6DAB"/>
<rect x="77" y="111" width="340" height="100" rx="30" fill="#7C7FC0"/>
<path d="M129.379 167.136C128.853 167.136 128.366 167.094 127.919 167.009C127.479 166.93 127.127 166.838 126.864 166.732L127.759 163.727C128.32 163.891 128.821 163.969 129.261 163.962C129.702 163.955 130.089 163.816 130.423 163.546C130.763 163.283 131.051 162.843 131.286 162.225L131.616 161.341L125.682 144.636H129.773L133.544 156.994H133.714L137.496 144.636H141.598L135.046 162.982C134.741 163.848 134.336 164.59 133.832 165.208C133.327 165.833 132.71 166.309 131.978 166.636C131.254 166.969 130.387 167.136 129.379 167.136ZM150.848 161.32C149.25 161.32 147.865 160.968 146.693 160.265C145.521 159.562 144.612 158.578 143.966 157.314C143.327 156.05 143.007 154.572 143.007 152.882C143.007 151.192 143.327 149.711 143.966 148.44C144.612 147.168 145.521 146.181 146.693 145.478C147.865 144.775 149.25 144.423 150.848 144.423C152.446 144.423 153.831 144.775 155.003 145.478C156.175 146.181 157.08 147.168 157.719 148.44C158.366 149.711 158.689 151.192 158.689 152.882C158.689 154.572 158.366 156.05 157.719 157.314C157.08 158.578 156.175 159.562 155.003 160.265C153.831 160.968 152.446 161.32 150.848 161.32ZM150.869 158.23C151.736 158.23 152.46 157.992 153.042 157.516C153.625 157.033 154.058 156.387 154.342 155.577C154.633 154.768 154.779 153.866 154.779 152.871C154.779 151.87 154.633 150.964 154.342 150.155C154.058 149.338 153.625 148.688 153.042 148.205C152.46 147.722 151.736 147.481 150.869 147.481C149.981 147.481 149.243 147.722 148.653 148.205C148.071 148.688 147.634 149.338 147.343 150.155C147.059 150.964 146.917 151.87 146.917 152.871C146.917 153.866 147.059 154.768 147.343 155.577C147.634 156.387 148.071 157.033 148.653 157.516C149.243 157.992 149.981 158.23 150.869 158.23ZM172.392 154.118V144.636H176.248V161H172.509V158.092H172.338C171.969 159.008 171.362 159.757 170.517 160.339C169.679 160.922 168.645 161.213 167.417 161.213C166.344 161.213 165.396 160.975 164.572 160.499C163.755 160.016 163.116 159.317 162.654 158.401C162.193 157.477 161.962 156.362 161.962 155.055V144.636H165.819V154.459C165.819 155.496 166.103 156.32 166.671 156.93C167.239 157.541 167.985 157.847 168.908 157.847C169.476 157.847 170.027 157.708 170.559 157.431C171.092 157.154 171.529 156.742 171.87 156.195C172.218 155.641 172.392 154.949 172.392 154.118ZM182.877 139.182V147.214H179.937V139.182H182.877ZM186.601 161V144.636H190.34V147.364H190.51C190.809 146.419 191.32 145.691 192.045 145.18C192.776 144.661 193.611 144.402 194.548 144.402C194.761 144.402 194.999 144.413 195.262 144.434C195.532 144.448 195.756 144.473 195.933 144.509V148.056C195.77 147.999 195.51 147.95 195.155 147.907C194.807 147.857 194.47 147.832 194.143 147.832C193.44 147.832 192.808 147.985 192.247 148.29C191.693 148.589 191.256 149.004 190.937 149.537C190.617 150.07 190.457 150.684 190.457 151.38V161H186.601ZM205.066 161.32C203.425 161.32 202.008 160.979 200.815 160.297C199.629 159.608 198.716 158.635 198.077 157.378C197.438 156.114 197.118 154.626 197.118 152.914C197.118 151.231 197.438 149.754 198.077 148.482C198.723 147.204 199.625 146.21 200.783 145.499C201.941 144.782 203.301 144.423 204.863 144.423C205.872 144.423 206.824 144.587 207.718 144.913C208.62 145.233 209.416 145.73 210.105 146.405C210.801 147.08 211.348 147.939 211.745 148.983C212.143 150.02 212.342 151.256 212.342 152.69V153.873H198.929V151.273H208.645C208.638 150.535 208.478 149.878 208.166 149.303C207.853 148.72 207.417 148.262 206.855 147.928C206.301 147.594 205.655 147.428 204.917 147.428C204.128 147.428 203.436 147.619 202.839 148.003C202.243 148.379 201.777 148.876 201.444 149.494C201.117 150.105 200.95 150.776 200.943 151.508V153.777C200.943 154.729 201.117 155.545 201.465 156.227C201.813 156.902 202.299 157.42 202.924 157.783C203.549 158.138 204.281 158.315 205.119 158.315C205.68 158.315 206.188 158.237 206.642 158.081C207.097 157.918 207.491 157.68 207.825 157.367C208.159 157.055 208.411 156.668 208.581 156.206L212.182 156.611C211.955 157.562 211.522 158.393 210.882 159.104C210.25 159.807 209.441 160.354 208.453 160.744C207.466 161.128 206.337 161.32 205.066 161.32ZM226.903 151.412V161H223.046V144.636H226.732V147.417H226.924C227.3 146.501 227.9 145.773 228.724 145.233C229.555 144.693 230.581 144.423 231.803 144.423C232.932 144.423 233.916 144.665 234.754 145.148C235.599 145.631 236.253 146.33 236.714 147.246C237.183 148.163 237.414 149.274 237.407 150.581V161H233.55V151.178C233.55 150.084 233.266 149.228 232.698 148.61C232.137 147.992 231.359 147.683 230.365 147.683C229.69 147.683 229.09 147.832 228.564 148.131C228.046 148.422 227.638 148.844 227.339 149.398C227.048 149.952 226.903 150.624 226.903 151.412ZM248.465 161.32C246.867 161.32 245.482 160.968 244.31 160.265C243.138 159.562 242.229 158.578 241.583 157.314C240.944 156.05 240.624 154.572 240.624 152.882C240.624 151.192 240.944 149.711 241.583 148.44C242.229 147.168 243.138 146.181 244.31 145.478C245.482 144.775 246.867 144.423 248.465 144.423C250.063 144.423 251.448 144.775 252.62 145.478C253.792 146.181 254.697 147.168 255.336 148.44C255.983 149.711 256.306 151.192 256.306 152.882C256.306 154.572 255.983 156.05 255.336 157.314C254.697 158.578 253.792 159.562 252.62 160.265C251.448 160.968 250.063 161.32 248.465 161.32ZM248.486 158.23C249.353 158.23 250.077 157.992 250.66 157.516C251.242 157.033 251.675 156.387 251.959 155.577C252.251 154.768 252.396 153.866 252.396 152.871C252.396 151.87 252.251 150.964 251.959 150.155C251.675 149.338 251.242 148.688 250.66 148.205C250.077 147.722 249.353 147.481 248.486 147.481C247.599 147.481 246.86 147.722 246.27 148.205C245.688 148.688 245.251 149.338 244.96 150.155C244.676 150.964 244.534 151.87 244.534 152.871C244.534 153.866 244.676 154.768 244.96 155.577C245.251 156.387 245.688 157.033 246.27 157.516C246.86 157.992 247.599 158.23 248.486 158.23ZM267.75 144.636V147.619H258.343V144.636H267.75ZM260.666 140.716H264.522V156.078C264.522 156.597 264.6 156.994 264.757 157.271C264.92 157.541 265.133 157.726 265.396 157.825C265.659 157.925 265.95 157.974 266.27 157.974C266.511 157.974 266.731 157.957 266.93 157.921C267.136 157.886 267.292 157.854 267.399 157.825L268.049 160.84C267.843 160.911 267.548 160.989 267.164 161.075C266.788 161.16 266.326 161.21 265.779 161.224C264.814 161.252 263.944 161.107 263.169 160.787C262.395 160.46 261.781 159.956 261.326 159.274C260.879 158.592 260.659 157.74 260.666 156.717V140.716ZM286.705 144.636V147.619H277.032V144.636H286.705ZM279.45 161V143.092C279.45 141.991 279.678 141.075 280.132 140.343C280.594 139.612 281.212 139.065 281.986 138.702C282.76 138.34 283.619 138.159 284.564 138.159C285.232 138.159 285.825 138.212 286.343 138.319C286.862 138.425 287.245 138.521 287.494 138.607L286.727 141.589C286.563 141.54 286.357 141.49 286.109 141.44C285.86 141.384 285.583 141.355 285.278 141.355C284.561 141.355 284.053 141.529 283.754 141.877C283.463 142.218 283.318 142.708 283.318 143.347V161H279.45ZM289.726 161V144.636H293.582V161H289.726ZM291.665 142.314C291.054 142.314 290.528 142.112 290.088 141.707C289.648 141.295 289.427 140.801 289.427 140.226C289.427 139.643 289.648 139.15 290.088 138.745C290.528 138.333 291.054 138.127 291.665 138.127C292.282 138.127 292.808 138.333 293.241 138.745C293.682 139.15 293.902 139.643 293.902 140.226C293.902 140.801 293.682 141.295 293.241 141.707C292.808 142.112 292.282 142.314 291.665 142.314ZM305.719 144.636V147.619H296.312V144.636H305.719ZM298.635 140.716H302.491V156.078C302.491 156.597 302.569 156.994 302.725 157.271C302.889 157.541 303.102 157.726 303.365 157.825C303.627 157.925 303.919 157.974 304.238 157.974C304.48 157.974 304.7 157.957 304.899 157.921C305.105 157.886 305.261 157.854 305.368 157.825L306.017 160.84C305.811 160.911 305.517 160.989 305.133 161.075C304.757 161.16 304.295 161.21 303.748 161.224C302.782 161.252 301.912 161.107 301.138 160.787C300.364 160.46 299.75 159.956 299.295 159.274C298.848 158.592 298.627 157.74 298.635 156.717V140.716ZM324.674 144.636V147.619H315.001V144.636H324.674ZM317.419 161V143.092C317.419 141.991 317.646 141.075 318.101 140.343C318.563 139.612 319.181 139.065 319.955 138.702C320.729 138.34 321.588 138.159 322.533 138.159C323.2 138.159 323.794 138.212 324.312 138.319C324.83 138.425 325.214 138.521 325.463 138.607L324.695 141.589C324.532 141.54 324.326 141.49 324.078 141.44C323.829 141.384 323.552 141.355 323.247 141.355C322.529 141.355 322.021 141.529 321.723 141.877C321.432 142.218 321.286 142.708 321.286 143.347V161H317.419ZM334.217 161.32C332.619 161.32 331.234 160.968 330.062 160.265C328.89 159.562 327.981 158.578 327.335 157.314C326.696 156.05 326.376 154.572 326.376 152.882C326.376 151.192 326.696 149.711 327.335 148.44C327.981 147.168 328.89 146.181 330.062 145.478C331.234 144.775 332.619 144.423 334.217 144.423C335.815 144.423 337.2 144.775 338.372 145.478C339.544 146.181 340.449 147.168 341.088 148.44C341.735 149.711 342.058 151.192 342.058 152.882C342.058 154.572 341.735 156.05 341.088 157.314C340.449 158.578 339.544 159.562 338.372 160.265C337.2 160.968 335.815 161.32 334.217 161.32ZM334.238 158.23C335.105 158.23 335.829 157.992 336.412 157.516C336.994 157.033 337.427 156.387 337.711 155.577C338.002 154.768 338.148 153.866 338.148 152.871C338.148 151.87 338.002 150.964 337.711 150.155C337.427 149.338 336.994 148.688 336.412 148.205C335.829 147.722 335.105 147.481 334.238 147.481C333.35 147.481 332.612 147.722 332.022 148.205C331.44 148.688 331.003 149.338 330.712 150.155C330.428 150.964 330.286 151.87 330.286 152.871C330.286 153.866 330.428 154.768 330.712 155.577C331.003 156.387 331.44 157.033 332.022 157.516C332.612 157.992 333.35 158.23 334.238 158.23ZM345.331 161V144.636H349.07V147.364H349.241C349.539 146.419 350.051 145.691 350.775 145.18C351.507 144.661 352.341 144.402 353.279 144.402C353.492 144.402 353.73 144.413 353.992 144.434C354.262 144.448 354.486 144.473 354.664 144.509V148.056C354.5 147.999 354.241 147.95 353.886 147.907C353.538 147.857 353.2 147.832 352.874 147.832C352.171 147.832 351.539 147.985 350.977 148.29C350.423 148.589 349.987 149.004 349.667 149.537C349.347 150.07 349.188 150.684 349.188 151.38V161H345.331ZM130.359 197L125.735 180.636H129.666L132.543 192.142H132.692L135.632 180.636H139.521L142.461 192.078H142.621L145.455 180.636H149.396L144.762 197H140.746L137.678 185.942H137.454L134.386 197H130.359ZM156.798 197.33C155.761 197.33 154.827 197.146 153.996 196.776C153.172 196.4 152.519 195.846 152.036 195.114C151.56 194.383 151.322 193.481 151.322 192.408C151.322 191.485 151.492 190.722 151.833 190.118C152.174 189.514 152.639 189.031 153.229 188.669C153.818 188.307 154.482 188.033 155.221 187.849C155.967 187.657 156.737 187.518 157.533 187.433C158.492 187.334 159.269 187.245 159.866 187.167C160.463 187.082 160.896 186.954 161.166 186.783C161.443 186.606 161.581 186.332 161.581 185.963V185.899C161.581 185.097 161.343 184.475 160.867 184.035C160.392 183.594 159.706 183.374 158.811 183.374C157.867 183.374 157.117 183.58 156.563 183.992C156.017 184.404 155.647 184.891 155.455 185.452L151.855 184.94C152.139 183.946 152.607 183.115 153.261 182.447C153.914 181.773 154.713 181.268 155.658 180.935C156.602 180.594 157.646 180.423 158.79 180.423C159.578 180.423 160.363 180.516 161.144 180.7C161.926 180.885 162.639 181.19 163.286 181.616C163.932 182.036 164.45 182.607 164.841 183.332C165.239 184.056 165.438 184.962 165.438 186.048V197H161.73V194.752H161.602C161.368 195.207 161.038 195.633 160.612 196.031C160.193 196.421 159.664 196.737 159.024 196.979C158.392 197.213 157.65 197.33 156.798 197.33ZM157.799 194.496C158.573 194.496 159.244 194.344 159.813 194.038C160.381 193.726 160.818 193.314 161.123 192.803C161.436 192.291 161.592 191.734 161.592 191.13V189.202C161.471 189.301 161.265 189.393 160.974 189.479C160.69 189.564 160.37 189.638 160.015 189.702C159.66 189.766 159.308 189.823 158.96 189.873C158.612 189.923 158.311 189.965 158.055 190.001C157.48 190.079 156.965 190.207 156.51 190.384C156.056 190.562 155.697 190.81 155.434 191.13C155.171 191.442 155.04 191.847 155.04 192.344C155.04 193.055 155.299 193.591 155.818 193.953C156.336 194.315 156.997 194.496 157.799 194.496ZM169.316 197V180.636H173.055V183.364H173.225C173.524 182.419 174.035 181.691 174.759 181.18C175.491 180.661 176.325 180.402 177.263 180.402C177.476 180.402 177.714 180.413 177.977 180.434C178.247 180.448 178.47 180.473 178.648 180.509V184.056C178.485 183.999 178.225 183.95 177.87 183.907C177.522 183.857 177.185 183.832 176.858 183.832C176.155 183.832 175.523 183.985 174.962 184.29C174.408 184.589 173.971 185.004 173.651 185.537C173.332 186.07 173.172 186.684 173.172 187.38V197H169.316ZM183.863 194.017L183.724 195.189C183.625 196.084 183.447 196.993 183.192 197.916C182.943 198.847 182.68 199.702 182.403 200.484C182.126 201.265 181.903 201.879 181.732 202.327H179.133C179.232 201.893 179.367 201.304 179.537 200.558C179.715 199.813 179.885 198.974 180.049 198.044C180.212 197.114 180.322 196.169 180.379 195.21L180.454 194.017H183.863ZM207.884 184.962L204.368 185.345C204.268 184.99 204.094 184.656 203.846 184.344C203.604 184.031 203.278 183.779 202.866 183.587C202.454 183.396 201.95 183.3 201.353 183.3C200.55 183.3 199.876 183.474 199.329 183.822C198.789 184.17 198.523 184.621 198.53 185.175C198.523 185.651 198.697 186.038 199.052 186.336C199.414 186.634 200.011 186.879 200.842 187.071L203.633 187.668C205.181 188.001 206.332 188.531 207.085 189.255C207.844 189.979 208.228 190.928 208.235 192.099C208.228 193.129 207.926 194.038 207.33 194.827C206.74 195.608 205.92 196.219 204.869 196.659C203.817 197.099 202.61 197.32 201.246 197.32C199.244 197.32 197.631 196.901 196.41 196.062C195.188 195.217 194.46 194.042 194.226 192.536L197.987 192.174C198.157 192.913 198.519 193.47 199.073 193.847C199.627 194.223 200.348 194.411 201.236 194.411C202.152 194.411 202.887 194.223 203.441 193.847C204.002 193.47 204.283 193.005 204.283 192.451C204.283 191.982 204.102 191.595 203.739 191.29C203.384 190.984 202.83 190.75 202.077 190.587L199.286 190.001C197.717 189.674 196.555 189.124 195.803 188.349C195.05 187.568 194.677 186.581 194.684 185.388C194.677 184.379 194.95 183.506 195.504 182.767C196.065 182.021 196.843 181.446 197.837 181.041C198.839 180.629 199.993 180.423 201.3 180.423C203.217 180.423 204.727 180.832 205.827 181.648C206.935 182.465 207.621 183.57 207.884 184.962ZM218.553 197.32C216.955 197.32 215.57 196.968 214.398 196.265C213.226 195.562 212.317 194.578 211.671 193.314C211.032 192.05 210.712 190.572 210.712 188.882C210.712 187.192 211.032 185.711 211.671 184.44C212.317 183.168 213.226 182.181 214.398 181.478C215.57 180.775 216.955 180.423 218.553 180.423C220.151 180.423 221.536 180.775 222.708 181.478C223.88 182.181 224.785 183.168 225.424 184.44C226.071 185.711 226.394 187.192 226.394 188.882C226.394 190.572 226.071 192.05 225.424 193.314C224.785 194.578 223.88 195.562 222.708 196.265C221.536 196.968 220.151 197.32 218.553 197.32ZM218.574 194.23C219.441 194.23 220.165 193.992 220.748 193.516C221.33 193.033 221.763 192.387 222.047 191.577C222.338 190.768 222.484 189.866 222.484 188.871C222.484 187.87 222.338 186.964 222.047 186.155C221.763 185.338 221.33 184.688 220.748 184.205C220.165 183.722 219.441 183.481 218.574 183.481C217.686 183.481 216.948 183.722 216.358 184.205C215.776 184.688 215.339 185.338 215.048 186.155C214.764 186.964 214.622 187.87 214.622 188.871C214.622 189.866 214.764 190.768 215.048 191.577C215.339 192.387 215.776 193.033 216.358 193.516C216.948 193.992 217.686 194.23 218.574 194.23ZM229.667 197V180.636H233.406V183.364H233.577C233.875 182.419 234.387 181.691 235.111 181.18C235.843 180.661 236.677 180.402 237.615 180.402C237.828 180.402 238.066 180.413 238.328 180.434C238.598 180.448 238.822 180.473 238.999 180.509V184.056C238.836 183.999 238.577 183.95 238.222 183.907C237.874 183.857 237.536 183.832 237.21 183.832C236.507 183.832 235.874 183.985 235.313 184.29C234.759 184.589 234.323 185.004 234.003 185.537C233.683 186.07 233.524 186.684 233.524 187.38V197H229.667ZM241.562 197V180.636H245.301V183.364H245.471C245.77 182.419 246.281 181.691 247.006 181.18C247.737 180.661 248.572 180.402 249.509 180.402C249.722 180.402 249.96 180.413 250.223 180.434C250.493 180.448 250.716 180.473 250.894 180.509V184.056C250.731 183.999 250.471 183.95 250.116 183.907C249.768 183.857 249.431 183.832 249.104 183.832C248.401 183.832 247.769 183.985 247.208 184.29C246.654 184.589 246.217 185.004 245.898 185.537C245.578 186.07 245.418 186.684 245.418 187.38V197H241.562ZM256.351 203.136C255.826 203.136 255.339 203.094 254.892 203.009C254.451 202.93 254.1 202.838 253.837 202.732L254.732 199.727C255.293 199.891 255.794 199.969 256.234 199.962C256.674 199.955 257.061 199.816 257.395 199.546C257.736 199.283 258.024 198.843 258.258 198.225L258.588 197.341L252.654 180.636H256.745L260.517 192.994H260.687L264.469 180.636H268.571L262.019 198.982C261.713 199.848 261.309 200.59 260.804 201.208C260.3 201.833 259.682 202.309 258.951 202.636C258.226 202.969 257.36 203.136 256.351 203.136ZM272.59 197.234C271.943 197.234 271.389 197.007 270.928 196.553C270.466 196.098 270.239 195.544 270.246 194.891C270.239 194.251 270.466 193.705 270.928 193.25C271.389 192.795 271.943 192.568 272.59 192.568C273.215 192.568 273.758 192.795 274.22 193.25C274.688 193.705 274.926 194.251 274.933 194.891C274.926 195.324 274.813 195.718 274.593 196.073C274.379 196.428 274.095 196.712 273.74 196.925C273.392 197.131 273.009 197.234 272.59 197.234Z" fill="white"/>
<path d="M362.869 575.852C360.842 568.441 357.733 563.077 352.127 560.803V560.438C359.04 557.943 366.332 550.897 366.332 540.632C366.332 533.22 363.709 527.608 358.927 523.792C353.199 519.256 344.835 517.461 332.903 517.461C325.495 517.461 318.646 517.883 313.213 518.505C310.621 518.803 308.656 521.011 308.656 523.629V589.513C308.656 594.493 312.688 598.529 317.668 598.529C322.655 598.529 326.689 594.493 326.689 589.513V566.893H332.191C339.588 567.007 343.055 569.764 345.193 579.782C346.408 584.802 347.497 588.968 348.444 592.146C349.577 595.937 353.052 598.528 357.004 598.528H357.374C360.129 598.528 362.741 597.237 364.421 595.047C366.097 592.855 366.663 590.012 365.943 587.348C364.965 583.696 363.916 579.649 362.869 575.852ZM333.86 553.751H326.69V531.553C327.996 531.306 330.507 530.957 334.93 530.957C343.281 531.075 348.302 534.773 348.302 542.18C348.302 549.215 342.932 553.751 333.86 553.751Z" fill="black"/>
<path d="M247 400C159.74 400 89 470.741 89 558.001C89 645.261 159.74 716 247 716C334.26 716 405 645.26 405 558.001C405 470.742 334.26 400 247 400ZM120.602 558.001C120.602 488.305 177.3 431.601 247 431.601C277.717 431.601 305.891 442.633 327.81 460.918L270.289 518.44C269.877 518.336 269.548 518.053 269.117 518.053H252.843C250.579 518.053 248.574 519.534 247.916 521.699L239.503 549.226L212.139 576.594L224.42 529.009C225.101 526.386 224.524 523.593 222.868 521.452C221.204 519.309 218.652 518.053 215.936 518.053C211.76 518.053 208.159 521.005 207.334 525.104L202.172 551.011C200.507 560.567 198.716 569.995 197.522 578.954H197.275C196.081 569.995 194.767 561.396 192.986 551.968L187.34 522.244C186.877 519.812 184.746 518.053 182.269 518.053H171.385C168.947 518.053 166.839 519.771 166.335 522.167L160.387 551.011C158.36 560.916 156.45 570.591 155.144 579.313H154.898C153.58 571.198 151.903 560.804 150.124 551.248L145.432 525.655C144.619 521.251 140.782 518.052 136.308 518.052C133.469 518.052 130.784 519.348 129.024 521.575C127.266 523.801 126.627 526.708 127.278 529.471L142.738 594.563C143.283 596.888 145.359 598.528 147.747 598.528H159.462C161.89 598.528 163.978 596.845 164.502 594.486L171.251 563.904C173.166 555.782 174.471 548.139 175.9 539.077H176.147C177.103 548.269 178.41 555.782 179.965 563.904L185.949 594.367C186.384 596.548 188.171 598.106 190.322 598.403L149.916 638.809C131.628 616.885 120.602 588.715 120.602 558.001ZM269.445 564.265H254.254L265.99 552.523L269.445 564.265ZM247 684.401C215.586 684.401 186.877 672.807 164.739 653.772L227.725 590.794C227.919 592.264 228.412 593.684 229.318 594.908C231.004 597.186 233.67 598.528 236.509 598.528C240.52 598.528 244.037 595.848 245.12 591.982L249.026 577.878H272.08L276.295 591.894C277.481 595.833 281.11 598.528 285.225 598.528C288.177 598.528 290.966 597.12 292.726 594.739C294.483 592.352 295 589.277 294.125 586.448L279.435 539.083L342.778 475.744C361.806 497.875 373.402 526.585 373.402 558C373.401 627.696 316.7 684.401 247 684.401Z" fill="black"/>
</svg>
