<svg width="493" height="800" viewBox="0 0 493 800" fill="none" xmlns="http://www.w3.org/2000/svg">
<rect width="493" height="800" rx="40" fill="#6A6DAB"/>
<path d="M295.215 558.556L232.975 622.514L247.089 637.018L309.329 573.059L295.215 558.556Z" fill="#424242"/>
<path d="M214.151 606.835L239.071 668.66L272.453 654.451L241.805 578.418L214.151 606.835Z" fill="#8F8F8F"/>
<path d="M297.336 533.422L274.917 510.385L246.652 539.429L269.071 562.467C297.684 591.87 338.21 601.566 374.683 591.56L364.336 551.879C341.198 558.227 315.488 552.076 297.336 533.422Z" fill="#8F8F8F"/>
<path d="M377.189 390.786L361.828 375L347.714 389.503L363.076 405.289L290.461 479.909L304.575 494.412L402.67 393.609L388.557 379.105L377.189 390.786Z" fill="#424242"/>
<path d="M141.225 601.694L77.3298 667.353L118.831 710L163.643 624.731L182.727 644.341L293.993 530.002L252.492 487.355L141.225 601.694Z" fill="#424242"/>
<path d="M241.864 567.693L331.489 475.593L308.771 452.248L219.146 544.348L241.864 567.693Z" fill="#8F8F8F"/>
<path d="M230.504 556.026L320.129 463.926L308.772 452.256L219.147 544.356L230.504 556.026Z" fill="#C2C2C2"/>
<path d="M186.068 647.77L297.334 533.432L252.495 487.355L141.229 601.693L186.068 647.77Z" fill="#048F46"/>
<path d="M163.643 624.732L274.909 510.395L252.491 487.357L141.225 601.695L163.643 624.732Z" fill="#3DDB86"/>
<path d="M242.372 529.322L182.065 591.294L196.179 605.797L256.486 543.825L242.372 529.322Z" fill="#424242"/>
<path d="M163.644 624.736L141.225 601.699L77.3336 667.355L99.752 690.392L163.644 624.736Z" fill="#707070"/>
<rect x="77" y="119" width="340" height="100" rx="30" fill="#7C7FC0"/>
</svg>
