<svg width="420" height="697" viewBox="0 0 420 697" fill="none" xmlns="http://www.w3.org/2000/svg">
<circle cx="60" cy="39" r="24.5" stroke="black"/>
<path d="M52.647 38.1912H36.6912C37.0833 30.6422 42.2647 15.5735 59.8529 15.6912C77.4412 15.8088 82.8186 30.7402 83.3088 38.1912H67.0588C66.8872 36.0833 65.2059 31.8824 59.8529 31.9412C54.5 32 52.8186 36.1324 52.647 38.1912Z" stroke="black"/>
<path d="M52.7206 39.8824H36.7647C37.1569 47.4311 42.3382 62.4993 59.9265 62.3817C77.5147 62.264 82.8922 47.3331 83.3824 39.8824H67.1324C66.9608 41.9901 65.2794 46.191 59.9265 46.1322C54.5735 46.0733 52.8922 41.9411 52.7206 39.8824Z" stroke="black"/>
<circle cx="120" cy="39" r="24.5" stroke="black"/>
<path d="M112.647 38.1912H96.6912C97.0833 30.6422 102.265 15.5735 119.853 15.6912C137.441 15.8088 142.819 30.7402 143.309 38.1912H127.059C126.887 36.0833 125.206 31.8824 119.853 31.9412C114.5 32 112.819 36.1324 112.647 38.1912Z" stroke="black"/>
<path d="M112.721 39.8824H96.7647C97.1569 47.4311 102.338 62.4993 119.926 62.3817C137.515 62.264 142.892 47.3331 143.382 39.8824H127.132C126.961 41.9901 125.279 46.191 119.926 46.1322C114.574 46.0733 112.892 41.9411 112.721 39.8824Z" stroke="black"/>
<circle cx="180" cy="39" r="24.5" stroke="black"/>
<path d="M172.647 38.1912H156.691C157.083 30.6422 162.265 15.5735 179.853 15.6912C197.441 15.8088 202.819 30.7402 203.309 38.1912H187.059C186.887 36.0833 185.206 31.8824 179.853 31.9412C174.5 32 172.819 36.1324 172.647 38.1912Z" stroke="black"/>
<path d="M172.721 39.8824H156.765C157.157 47.4311 162.338 62.4993 179.926 62.3817C197.515 62.264 202.892 47.3331 203.382 39.8824H187.132C186.961 41.9901 185.279 46.191 179.926 46.1322C174.574 46.0733 172.892 41.9411 172.721 39.8824Z" stroke="black"/>
<circle cx="240" cy="39" r="24.5" stroke="black"/>
<path d="M232.647 38.1912H216.691C217.083 30.6422 222.265 15.5735 239.853 15.6912C257.441 15.8088 262.819 30.7402 263.309 38.1912H247.059C246.887 36.0833 245.206 31.8824 239.853 31.9412C234.5 32 232.819 36.1324 232.647 38.1912Z" stroke="black"/>
<path d="M232.721 39.8824H216.765C217.157 47.4311 222.338 62.4993 239.926 62.3817C257.515 62.264 262.892 47.3331 263.382 39.8824H247.132C246.961 41.9901 245.279 46.191 239.926 46.1322C234.574 46.0733 232.892 41.9411 232.721 39.8824Z" stroke="black"/>
<circle cx="300" cy="38" r="24.5" stroke="black"/>
<path d="M292.647 37.1912H276.691C277.083 29.6422 282.265 14.5735 299.853 14.6912C317.441 14.8088 322.819 29.7402 323.309 37.1912H307.059C306.887 35.0833 305.206 30.8824 299.853 30.9412C294.5 31 292.819 35.1324 292.647 37.1912Z" stroke="black"/>
<path d="M292.721 38.8824H276.765C277.157 46.4311 282.338 61.4993 299.926 61.3817C317.515 61.264 322.892 46.3331 323.382 38.8824H307.132C306.961 40.9901 305.279 45.191 299.926 45.1322C294.574 45.0733 292.892 40.9411 292.721 38.8824Z" stroke="black"/>
<circle cx="360" cy="39" r="24.5" stroke="black"/>
<path d="M352.647 38.1912H336.691C337.083 30.6422 342.265 15.5735 359.853 15.6912C377.441 15.8088 382.819 30.7402 383.309 38.1912H367.059C366.887 36.0833 365.206 31.8824 359.853 31.9412C354.5 32 352.819 36.1324 352.647 38.1912Z" stroke="black"/>
<path d="M352.721 39.8824H336.765C337.157 47.4311 342.338 62.4993 359.926 62.3817C377.515 62.264 382.892 47.3331 383.382 39.8824H367.132C366.961 41.9901 365.279 46.191 359.926 46.1322C354.574 46.0733 352.892 41.9411 352.721 39.8824Z" stroke="black"/>
<circle cx="60" cy="100" r="24.5" stroke="black"/>
<path d="M52.647 99.1912H36.6912C37.0833 91.6422 42.2647 76.5735 59.8529 76.6912C77.4412 76.8088 82.8186 91.7402 83.3088 99.1912H67.0588C66.8872 97.0833 65.2059 92.8824 59.8529 92.9412C54.5 93 52.8186 97.1324 52.647 99.1912Z" stroke="black"/>
<path d="M52.7206 100.882H36.7647C37.1569 108.431 42.3382 123.499 59.9265 123.382C77.5147 123.264 82.8922 108.333 83.3824 100.882H67.1324C66.9608 102.99 65.2794 107.191 59.9265 107.132C54.5735 107.073 52.8922 102.941 52.7206 100.882Z" stroke="black"/>
<circle cx="120" cy="100" r="24.5" stroke="black"/>
<path d="M112.647 99.1912H96.6912C97.0833 91.6422 102.265 76.5735 119.853 76.6912C137.441 76.8088 142.819 91.7402 143.309 99.1912H127.059C126.887 97.0833 125.206 92.8824 119.853 92.9412C114.5 93 112.819 97.1324 112.647 99.1912Z" stroke="black"/>
<path d="M112.721 100.882H96.7647C97.1569 108.431 102.338 123.499 119.926 123.382C137.515 123.264 142.892 108.333 143.382 100.882H127.132C126.961 102.99 125.279 107.191 119.926 107.132C114.574 107.073 112.892 102.941 112.721 100.882Z" stroke="black"/>
<circle cx="180" cy="100" r="24.5" stroke="black"/>
<path d="M172.647 99.1912H156.691C157.083 91.6422 162.265 76.5735 179.853 76.6912C197.441 76.8088 202.819 91.7402 203.309 99.1912H187.059C186.887 97.0833 185.206 92.8824 179.853 92.9412C174.5 93 172.819 97.1324 172.647 99.1912Z" stroke="black"/>
<path d="M172.721 100.882H156.765C157.157 108.431 162.338 123.499 179.926 123.382C197.515 123.264 202.892 108.333 203.382 100.882H187.132C186.961 102.99 185.279 107.191 179.926 107.132C174.574 107.073 172.892 102.941 172.721 100.882Z" stroke="black"/>
<circle cx="240" cy="100" r="24.5" stroke="black"/>
<path d="M232.647 99.1912H216.691C217.083 91.6422 222.265 76.5735 239.853 76.6912C257.441 76.8088 262.819 91.7402 263.309 99.1912H247.059C246.887 97.0833 245.206 92.8824 239.853 92.9412C234.5 93 232.819 97.1324 232.647 99.1912Z" stroke="black"/>
<path d="M232.721 100.882H216.765C217.157 108.431 222.338 123.499 239.926 123.382C257.515 123.264 262.892 108.333 263.382 100.882H247.132C246.961 102.99 245.279 107.191 239.926 107.132C234.574 107.073 232.892 102.941 232.721 100.882Z" stroke="black"/>
<circle cx="300" cy="99" r="24.5" stroke="black"/>
<path d="M292.647 98.1912H276.691C277.083 90.6422 282.265 75.5735 299.853 75.6912C317.441 75.8088 322.819 90.7402 323.309 98.1912H307.059C306.887 96.0833 305.206 91.8824 299.853 91.9412C294.5 92 292.819 96.1324 292.647 98.1912Z" stroke="black"/>
<path d="M292.721 99.8824H276.765C277.157 107.431 282.338 122.499 299.926 122.382C317.515 122.264 322.892 107.333 323.382 99.8824H307.132C306.961 101.99 305.279 106.191 299.926 106.132C294.574 106.073 292.892 101.941 292.721 99.8824Z" stroke="black"/>
<circle cx="360" cy="100" r="24.5" stroke="black"/>
<path d="M352.647 99.1912H336.691C337.083 91.6422 342.265 76.5735 359.853 76.6912C377.441 76.8088 382.819 91.7402 383.309 99.1912H367.059C366.887 97.0833 365.206 92.8824 359.853 92.9412C354.5 93 352.819 97.1324 352.647 99.1912Z" stroke="black"/>
<path d="M352.721 100.882H336.765C337.157 108.431 342.338 123.499 359.926 123.382C377.515 123.264 382.892 108.333 383.382 100.882H367.132C366.961 102.99 365.279 107.191 359.926 107.132C354.574 107.073 352.892 102.941 352.721 100.882Z" stroke="black"/>
<circle cx="60" cy="161" r="24.5" stroke="black"/>
<path d="M52.647 160.191H36.6912C37.0833 152.642 42.2647 137.574 59.8529 137.691C77.4412 137.809 82.8186 152.74 83.3088 160.191H67.0588C66.8872 158.083 65.2059 153.882 59.8529 153.941C54.5 154 52.8186 158.132 52.647 160.191Z" stroke="black"/>
<path d="M52.7206 161.882H36.7647C37.1569 169.431 42.3382 184.499 59.9265 184.382C77.5147 184.264 82.8922 169.333 83.3824 161.882H67.1324C66.9608 163.99 65.2794 168.191 59.9265 168.132C54.5735 168.073 52.8922 163.941 52.7206 161.882Z" stroke="black"/>
<circle cx="120" cy="161" r="24.5" stroke="black"/>
<path d="M112.647 160.191H96.6912C97.0833 152.642 102.265 137.574 119.853 137.691C137.441 137.809 142.819 152.74 143.309 160.191H127.059C126.887 158.083 125.206 153.882 119.853 153.941C114.5 154 112.819 158.132 112.647 160.191Z" stroke="black"/>
<path d="M112.721 161.882H96.7647C97.1569 169.431 102.338 184.499 119.926 184.382C137.515 184.264 142.892 169.333 143.382 161.882H127.132C126.961 163.99 125.279 168.191 119.926 168.132C114.574 168.073 112.892 163.941 112.721 161.882Z" stroke="black"/>
<circle cx="180" cy="161" r="24.5" stroke="black"/>
<path d="M172.647 160.191H156.691C157.083 152.642 162.265 137.574 179.853 137.691C197.441 137.809 202.819 152.74 203.309 160.191H187.059C186.887 158.083 185.206 153.882 179.853 153.941C174.5 154 172.819 158.132 172.647 160.191Z" stroke="black"/>
<path d="M172.721 161.882H156.765C157.157 169.431 162.338 184.499 179.926 184.382C197.515 184.264 202.892 169.333 203.382 161.882H187.132C186.961 163.99 185.279 168.191 179.926 168.132C174.574 168.073 172.892 163.941 172.721 161.882Z" stroke="black"/>
<circle cx="240" cy="161" r="24.5" stroke="black"/>
<path d="M232.647 160.191H216.691C217.083 152.642 222.265 137.574 239.853 137.691C257.441 137.809 262.819 152.74 263.309 160.191H247.059C246.887 158.083 245.206 153.882 239.853 153.941C234.5 154 232.819 158.132 232.647 160.191Z" stroke="black"/>
<path d="M232.721 161.882H216.765C217.157 169.431 222.338 184.499 239.926 184.382C257.515 184.264 262.892 169.333 263.382 161.882H247.132C246.961 163.99 245.279 168.191 239.926 168.132C234.574 168.073 232.892 163.941 232.721 161.882Z" stroke="black"/>
<circle cx="300" cy="160" r="24.5" stroke="black"/>
<path d="M292.647 159.191H276.691C277.083 151.642 282.265 136.574 299.853 136.691C317.441 136.809 322.819 151.74 323.309 159.191H307.059C306.887 157.083 305.206 152.882 299.853 152.941C294.5 153 292.819 157.132 292.647 159.191Z" stroke="black"/>
<path d="M292.721 160.882H276.765C277.157 168.431 282.338 183.499 299.926 183.382C317.515 183.264 322.892 168.333 323.382 160.882H307.132C306.961 162.99 305.279 167.191 299.926 167.132C294.574 167.073 292.892 162.941 292.721 160.882Z" stroke="black"/>
<circle cx="360" cy="161" r="24.5" stroke="black"/>
<path d="M352.647 160.191H336.691C337.083 152.642 342.265 137.574 359.853 137.691C377.441 137.809 382.819 152.74 383.309 160.191H367.059C366.887 158.083 365.206 153.882 359.853 153.941C354.5 154 352.819 158.132 352.647 160.191Z" stroke="black"/>
<path d="M352.721 161.882H336.765C337.157 169.431 342.338 184.499 359.926 184.382C377.515 184.264 382.892 169.333 383.382 161.882H367.132C366.961 163.99 365.279 168.191 359.926 168.132C354.574 168.073 352.892 163.941 352.721 161.882Z" stroke="black"/>
<circle cx="60" cy="222" r="24.5" stroke="black"/>
<path d="M52.647 221.191H36.6912C37.0833 213.642 42.2647 198.574 59.8529 198.691C77.4412 198.809 82.8186 213.74 83.3088 221.191H67.0588C66.8872 219.083 65.2059 214.882 59.8529 214.941C54.5 215 52.8186 219.132 52.647 221.191Z" stroke="black"/>
<path d="M52.7206 222.882H36.7647C37.1569 230.431 42.3382 245.499 59.9265 245.382C77.5147 245.264 82.8922 230.333 83.3824 222.882H67.1324C66.9608 224.99 65.2794 229.191 59.9265 229.132C54.5735 229.073 52.8922 224.941 52.7206 222.882Z" stroke="black"/>
<circle cx="120" cy="222" r="24.5" stroke="black"/>
<path d="M112.647 221.191H96.6912C97.0833 213.642 102.265 198.574 119.853 198.691C137.441 198.809 142.819 213.74 143.309 221.191H127.059C126.887 219.083 125.206 214.882 119.853 214.941C114.5 215 112.819 219.132 112.647 221.191Z" stroke="black"/>
<path d="M112.721 222.882H96.7647C97.1569 230.431 102.338 245.499 119.926 245.382C137.515 245.264 142.892 230.333 143.382 222.882H127.132C126.961 224.99 125.279 229.191 119.926 229.132C114.574 229.073 112.892 224.941 112.721 222.882Z" stroke="black"/>
<circle cx="180" cy="222" r="24.5" stroke="black"/>
<path d="M172.647 221.191H156.691C157.083 213.642 162.265 198.574 179.853 198.691C197.441 198.809 202.819 213.74 203.309 221.191H187.059C186.887 219.083 185.206 214.882 179.853 214.941C174.5 215 172.819 219.132 172.647 221.191Z" stroke="black"/>
<path d="M172.721 222.882H156.765C157.157 230.431 162.338 245.499 179.926 245.382C197.515 245.264 202.892 230.333 203.382 222.882H187.132C186.961 224.99 185.279 229.191 179.926 229.132C174.574 229.073 172.892 224.941 172.721 222.882Z" stroke="black"/>
<circle cx="240" cy="222" r="24.5" stroke="black"/>
<path d="M232.647 221.191H216.691C217.083 213.642 222.265 198.574 239.853 198.691C257.441 198.809 262.819 213.74 263.309 221.191H247.059C246.887 219.083 245.206 214.882 239.853 214.941C234.5 215 232.819 219.132 232.647 221.191Z" stroke="black"/>
<path d="M232.721 222.882H216.765C217.157 230.431 222.338 245.499 239.926 245.382C257.515 245.264 262.892 230.333 263.382 222.882H247.132C246.961 224.99 245.279 229.191 239.926 229.132C234.574 229.073 232.892 224.941 232.721 222.882Z" stroke="black"/>
<circle cx="300" cy="221" r="24.5" stroke="black"/>
<path d="M292.647 220.191H276.691C277.083 212.642 282.265 197.574 299.853 197.691C317.441 197.809 322.819 212.74 323.309 220.191H307.059C306.887 218.083 305.206 213.882 299.853 213.941C294.5 214 292.819 218.132 292.647 220.191Z" stroke="black"/>
<path d="M292.721 221.882H276.765C277.157 229.431 282.338 244.499 299.926 244.382C317.515 244.264 322.892 229.333 323.382 221.882H307.132C306.961 223.99 305.279 228.191 299.926 228.132C294.574 228.073 292.892 223.941 292.721 221.882Z" stroke="black"/>
<circle cx="360" cy="222" r="24.5" stroke="black"/>
<path d="M352.647 221.191H336.691C337.083 213.642 342.265 198.574 359.853 198.691C377.441 198.809 382.819 213.74 383.309 221.191H367.059C366.887 219.083 365.206 214.882 359.853 214.941C354.5 215 352.819 219.132 352.647 221.191Z" stroke="black"/>
<path d="M352.721 222.882H336.765C337.157 230.431 342.338 245.499 359.926 245.382C377.515 245.264 382.892 230.333 383.382 222.882H367.132C366.961 224.99 365.279 229.191 359.926 229.132C354.574 229.073 352.892 224.941 352.721 222.882Z" stroke="black"/>
<circle cx="60" cy="283" r="24.5" stroke="black"/>
<path d="M52.647 282.191H36.6912C37.0833 274.642 42.2647 259.574 59.8529 259.691C77.4412 259.809 82.8186 274.74 83.3088 282.191H67.0588C66.8872 280.083 65.2059 275.882 59.8529 275.941C54.5 276 52.8186 280.132 52.647 282.191Z" stroke="black"/>
<path d="M52.7206 283.882H36.7647C37.1569 291.431 42.3382 306.499 59.9265 306.382C77.5147 306.264 82.8922 291.333 83.3824 283.882H67.1324C66.9608 285.99 65.2794 290.191 59.9265 290.132C54.5735 290.073 52.8922 285.941 52.7206 283.882Z" stroke="black"/>
<circle cx="120" cy="283" r="24.5" stroke="black"/>
<path d="M112.647 282.191H96.6912C97.0833 274.642 102.265 259.574 119.853 259.691C137.441 259.809 142.819 274.74 143.309 282.191H127.059C126.887 280.083 125.206 275.882 119.853 275.941C114.5 276 112.819 280.132 112.647 282.191Z" stroke="black"/>
<path d="M112.721 283.882H96.7647C97.1569 291.431 102.338 306.499 119.926 306.382C137.515 306.264 142.892 291.333 143.382 283.882H127.132C126.961 285.99 125.279 290.191 119.926 290.132C114.574 290.073 112.892 285.941 112.721 283.882Z" stroke="black"/>
<circle cx="180" cy="283" r="24.5" stroke="black"/>
<path d="M172.647 282.191H156.691C157.083 274.642 162.265 259.574 179.853 259.691C197.441 259.809 202.819 274.74 203.309 282.191H187.059C186.887 280.083 185.206 275.882 179.853 275.941C174.5 276 172.819 280.132 172.647 282.191Z" stroke="black"/>
<path d="M172.721 283.882H156.765C157.157 291.431 162.338 306.499 179.926 306.382C197.515 306.264 202.892 291.333 203.382 283.882H187.132C186.961 285.99 185.279 290.191 179.926 290.132C174.574 290.073 172.892 285.941 172.721 283.882Z" stroke="black"/>
<circle cx="240" cy="283" r="24.5" stroke="black"/>
<path d="M232.647 282.191H216.691C217.083 274.642 222.265 259.574 239.853 259.691C257.441 259.809 262.819 274.74 263.309 282.191H247.059C246.887 280.083 245.206 275.882 239.853 275.941C234.5 276 232.819 280.132 232.647 282.191Z" stroke="black"/>
<path d="M232.721 283.882H216.765C217.157 291.431 222.338 306.499 239.926 306.382C257.515 306.264 262.892 291.333 263.382 283.882H247.132C246.961 285.99 245.279 290.191 239.926 290.132C234.574 290.073 232.892 285.941 232.721 283.882Z" stroke="black"/>
<circle cx="300" cy="282" r="24.5" stroke="black"/>
<path d="M292.647 281.191H276.691C277.083 273.642 282.265 258.574 299.853 258.691C317.441 258.809 322.819 273.74 323.309 281.191H307.059C306.887 279.083 305.206 274.882 299.853 274.941C294.5 275 292.819 279.132 292.647 281.191Z" stroke="black"/>
<path d="M292.721 282.882H276.765C277.157 290.431 282.338 305.499 299.926 305.382C317.515 305.264 322.892 290.333 323.382 282.882H307.132C306.961 284.99 305.279 289.191 299.926 289.132C294.574 289.073 292.892 284.941 292.721 282.882Z" stroke="black"/>
<circle cx="360" cy="283" r="24.5" stroke="black"/>
<path d="M352.647 282.191H336.691C337.083 274.642 342.265 259.574 359.853 259.691C377.441 259.809 382.819 274.74 383.309 282.191H367.059C366.887 280.083 365.206 275.882 359.853 275.941C354.5 276 352.819 280.132 352.647 282.191Z" stroke="black"/>
<path d="M352.721 283.882H336.765C337.157 291.431 342.338 306.499 359.926 306.382C377.515 306.264 382.892 291.333 383.382 283.882H367.132C366.961 285.99 365.279 290.191 359.926 290.132C354.574 290.073 352.892 285.941 352.721 283.882Z" stroke="black"/>
<circle cx="60" cy="344" r="24.5" stroke="black"/>
<path d="M52.647 343.191H36.6912C37.0833 335.642 42.2647 320.574 59.8529 320.691C77.4412 320.809 82.8186 335.74 83.3088 343.191H67.0588C66.8872 341.083 65.2059 336.882 59.8529 336.941C54.5 337 52.8186 341.132 52.647 343.191Z" stroke="black"/>
<path d="M52.7206 344.882H36.7647C37.1569 352.431 42.3382 367.499 59.9265 367.382C77.5147 367.264 82.8922 352.333 83.3824 344.882H67.1324C66.9608 346.99 65.2794 351.191 59.9265 351.132C54.5735 351.073 52.8922 346.941 52.7206 344.882Z" stroke="black"/>
<circle cx="120" cy="344" r="24.5" stroke="black"/>
<path d="M112.647 343.191H96.6912C97.0833 335.642 102.265 320.574 119.853 320.691C137.441 320.809 142.819 335.74 143.309 343.191H127.059C126.887 341.083 125.206 336.882 119.853 336.941C114.5 337 112.819 341.132 112.647 343.191Z" stroke="black"/>
<path d="M112.721 344.882H96.7647C97.1569 352.431 102.338 367.499 119.926 367.382C137.515 367.264 142.892 352.333 143.382 344.882H127.132C126.961 346.99 125.279 351.191 119.926 351.132C114.574 351.073 112.892 346.941 112.721 344.882Z" stroke="black"/>
<circle cx="180" cy="344" r="24.5" stroke="black"/>
<path d="M172.647 343.191H156.691C157.083 335.642 162.265 320.574 179.853 320.691C197.441 320.809 202.819 335.74 203.309 343.191H187.059C186.887 341.083 185.206 336.882 179.853 336.941C174.5 337 172.819 341.132 172.647 343.191Z" stroke="black"/>
<path d="M172.721 344.882H156.765C157.157 352.431 162.338 367.499 179.926 367.382C197.515 367.264 202.892 352.333 203.382 344.882H187.132C186.961 346.99 185.279 351.191 179.926 351.132C174.574 351.073 172.892 346.941 172.721 344.882Z" stroke="black"/>
<circle cx="240" cy="344" r="24.5" stroke="black"/>
<path d="M232.647 343.191H216.691C217.083 335.642 222.265 320.574 239.853 320.691C257.441 320.809 262.819 335.74 263.309 343.191H247.059C246.887 341.083 245.206 336.882 239.853 336.941C234.5 337 232.819 341.132 232.647 343.191Z" stroke="black"/>
<path d="M232.721 344.882H216.765C217.157 352.431 222.338 367.499 239.926 367.382C257.515 367.264 262.892 352.333 263.382 344.882H247.132C246.961 346.99 245.279 351.191 239.926 351.132C234.574 351.073 232.892 346.941 232.721 344.882Z" stroke="black"/>
<circle cx="300" cy="343" r="24.5" stroke="black"/>
<path d="M292.647 342.191H276.691C277.083 334.642 282.265 319.574 299.853 319.691C317.441 319.809 322.819 334.74 323.309 342.191H307.059C306.887 340.083 305.206 335.882 299.853 335.941C294.5 336 292.819 340.132 292.647 342.191Z" stroke="black"/>
<path d="M292.721 343.882H276.765C277.157 351.431 282.338 366.499 299.926 366.382C317.515 366.264 322.892 351.333 323.382 343.882H307.132C306.961 345.99 305.279 350.191 299.926 350.132C294.574 350.073 292.892 345.941 292.721 343.882Z" stroke="black"/>
<circle cx="360" cy="344" r="24.5" stroke="black"/>
<path d="M352.647 343.191H336.691C337.083 335.642 342.265 320.574 359.853 320.691C377.441 320.809 382.819 335.74 383.309 343.191H367.059C366.887 341.083 365.206 336.882 359.853 336.941C354.5 337 352.819 341.132 352.647 343.191Z" stroke="black"/>
<path d="M352.721 344.882H336.765C337.157 352.431 342.338 367.499 359.926 367.382C377.515 367.264 382.892 352.333 383.382 344.882H367.132C366.961 346.99 365.279 351.191 359.926 351.132C354.574 351.073 352.892 346.941 352.721 344.882Z" stroke="black"/>
<circle cx="60" cy="405" r="24.5" stroke="black"/>
<path d="M52.647 404.191H36.6912C37.0833 396.642 42.2647 381.574 59.8529 381.691C77.4412 381.809 82.8186 396.74 83.3088 404.191H67.0588C66.8872 402.083 65.2059 397.882 59.8529 397.941C54.5 398 52.8186 402.132 52.647 404.191Z" stroke="black"/>
<path d="M52.7206 405.882H36.7647C37.1569 413.431 42.3382 428.499 59.9265 428.382C77.5147 428.264 82.8922 413.333 83.3824 405.882H67.1324C66.9608 407.99 65.2794 412.191 59.9265 412.132C54.5735 412.073 52.8922 407.941 52.7206 405.882Z" stroke="black"/>
<circle cx="120" cy="405" r="24.5" stroke="black"/>
<path d="M112.647 404.191H96.6912C97.0833 396.642 102.265 381.574 119.853 381.691C137.441 381.809 142.819 396.74 143.309 404.191H127.059C126.887 402.083 125.206 397.882 119.853 397.941C114.5 398 112.819 402.132 112.647 404.191Z" stroke="black"/>
<path d="M112.721 405.882H96.7647C97.1569 413.431 102.338 428.499 119.926 428.382C137.515 428.264 142.892 413.333 143.382 405.882H127.132C126.961 407.99 125.279 412.191 119.926 412.132C114.574 412.073 112.892 407.941 112.721 405.882Z" stroke="black"/>
<circle cx="180" cy="405" r="24.5" stroke="black"/>
<path d="M172.647 404.191H156.691C157.083 396.642 162.265 381.574 179.853 381.691C197.441 381.809 202.819 396.74 203.309 404.191H187.059C186.887 402.083 185.206 397.882 179.853 397.941C174.5 398 172.819 402.132 172.647 404.191Z" stroke="black"/>
<path d="M172.721 405.882H156.765C157.157 413.431 162.338 428.499 179.926 428.382C197.515 428.264 202.892 413.333 203.382 405.882H187.132C186.961 407.99 185.279 412.191 179.926 412.132C174.574 412.073 172.892 407.941 172.721 405.882Z" stroke="black"/>
<circle cx="240" cy="405" r="24.5" stroke="black"/>
<path d="M232.647 404.191H216.691C217.083 396.642 222.265 381.574 239.853 381.691C257.441 381.809 262.819 396.74 263.309 404.191H247.059C246.887 402.083 245.206 397.882 239.853 397.941C234.5 398 232.819 402.132 232.647 404.191Z" stroke="black"/>
<path d="M232.721 405.882H216.765C217.157 413.431 222.338 428.499 239.926 428.382C257.515 428.264 262.892 413.333 263.382 405.882H247.132C246.961 407.99 245.279 412.191 239.926 412.132C234.574 412.073 232.892 407.941 232.721 405.882Z" stroke="black"/>
<circle cx="300" cy="404" r="24.5" stroke="black"/>
<path d="M292.647 403.191H276.691C277.083 395.642 282.265 380.574 299.853 380.691C317.441 380.809 322.819 395.74 323.309 403.191H307.059C306.887 401.083 305.206 396.882 299.853 396.941C294.5 397 292.819 401.132 292.647 403.191Z" stroke="black"/>
<path d="M292.721 404.882H276.765C277.157 412.431 282.338 427.499 299.926 427.382C317.515 427.264 322.892 412.333 323.382 404.882H307.132C306.961 406.99 305.279 411.191 299.926 411.132C294.574 411.073 292.892 406.941 292.721 404.882Z" stroke="black"/>
<circle cx="360" cy="405" r="24.5" stroke="black"/>
<path d="M352.647 404.191H336.691C337.083 396.642 342.265 381.574 359.853 381.691C377.441 381.809 382.819 396.74 383.309 404.191H367.059C366.887 402.083 365.206 397.882 359.853 397.941C354.5 398 352.819 402.132 352.647 404.191Z" stroke="black"/>
<path d="M352.721 405.882H336.765C337.157 413.431 342.338 428.499 359.926 428.382C377.515 428.264 382.892 413.333 383.382 405.882H367.132C366.961 407.99 365.279 412.191 359.926 412.132C354.574 412.073 352.892 407.941 352.721 405.882Z" stroke="black"/>
<circle cx="60" cy="466" r="24.5" stroke="black"/>
<path d="M52.647 465.191H36.6912C37.0833 457.642 42.2647 442.574 59.8529 442.691C77.4412 442.809 82.8186 457.74 83.3088 465.191H67.0588C66.8872 463.083 65.2059 458.882 59.8529 458.941C54.5 459 52.8186 463.132 52.647 465.191Z" stroke="black"/>
<path d="M52.7206 466.882H36.7647C37.1569 474.431 42.3382 489.499 59.9265 489.382C77.5147 489.264 82.8922 474.333 83.3824 466.882H67.1324C66.9608 468.99 65.2794 473.191 59.9265 473.132C54.5735 473.073 52.8922 468.941 52.7206 466.882Z" stroke="black"/>
<circle cx="120" cy="466" r="24.5" stroke="black"/>
<path d="M112.647 465.191H96.6912C97.0833 457.642 102.265 442.574 119.853 442.691C137.441 442.809 142.819 457.74 143.309 465.191H127.059C126.887 463.083 125.206 458.882 119.853 458.941C114.5 459 112.819 463.132 112.647 465.191Z" stroke="black"/>
<path d="M112.721 466.882H96.7647C97.1569 474.431 102.338 489.499 119.926 489.382C137.515 489.264 142.892 474.333 143.382 466.882H127.132C126.961 468.99 125.279 473.191 119.926 473.132C114.574 473.073 112.892 468.941 112.721 466.882Z" stroke="black"/>
<circle cx="180" cy="466" r="24.5" stroke="black"/>
<path d="M172.647 465.191H156.691C157.083 457.642 162.265 442.574 179.853 442.691C197.441 442.809 202.819 457.74 203.309 465.191H187.059C186.887 463.083 185.206 458.882 179.853 458.941C174.5 459 172.819 463.132 172.647 465.191Z" stroke="black"/>
<path d="M172.721 466.882H156.765C157.157 474.431 162.338 489.499 179.926 489.382C197.515 489.264 202.892 474.333 203.382 466.882H187.132C186.961 468.99 185.279 473.191 179.926 473.132C174.574 473.073 172.892 468.941 172.721 466.882Z" stroke="black"/>
<circle cx="240" cy="466" r="24.5" stroke="black"/>
<path d="M232.647 465.191H216.691C217.083 457.642 222.265 442.574 239.853 442.691C257.441 442.809 262.819 457.74 263.309 465.191H247.059C246.887 463.083 245.206 458.882 239.853 458.941C234.5 459 232.819 463.132 232.647 465.191Z" stroke="black"/>
<path d="M232.721 466.882H216.765C217.157 474.431 222.338 489.499 239.926 489.382C257.515 489.264 262.892 474.333 263.382 466.882H247.132C246.961 468.99 245.279 473.191 239.926 473.132C234.574 473.073 232.892 468.941 232.721 466.882Z" stroke="black"/>
<circle cx="300" cy="465" r="24.5" stroke="black"/>
<path d="M292.647 464.191H276.691C277.083 456.642 282.265 441.574 299.853 441.691C317.441 441.809 322.819 456.74 323.309 464.191H307.059C306.887 462.083 305.206 457.882 299.853 457.941C294.5 458 292.819 462.132 292.647 464.191Z" stroke="black"/>
<path d="M292.721 465.882H276.765C277.157 473.431 282.338 488.499 299.926 488.382C317.515 488.264 322.892 473.333 323.382 465.882H307.132C306.961 467.99 305.279 472.191 299.926 472.132C294.574 472.073 292.892 467.941 292.721 465.882Z" stroke="black"/>
<circle cx="360" cy="466" r="24.5" stroke="black"/>
<path d="M352.647 465.191H336.691C337.083 457.642 342.265 442.574 359.853 442.691C377.441 442.809 382.819 457.74 383.309 465.191H367.059C366.887 463.083 365.206 458.882 359.853 458.941C354.5 459 352.819 463.132 352.647 465.191Z" stroke="black"/>
<path d="M352.721 466.882H336.765C337.157 474.431 342.338 489.499 359.926 489.382C377.515 489.264 382.892 474.333 383.382 466.882H367.132C366.961 468.99 365.279 473.191 359.926 473.132C354.574 473.073 352.892 468.941 352.721 466.882Z" stroke="black"/>
<circle cx="60" cy="525" r="24.5" stroke="black"/>
<path d="M52.647 524.191H36.6912C37.0833 516.642 42.2647 501.574 59.8529 501.691C77.4412 501.809 82.8186 516.74 83.3088 524.191H67.0588C66.8872 522.083 65.2059 517.882 59.8529 517.941C54.5 518 52.8186 522.132 52.647 524.191Z" stroke="black"/>
<path d="M52.7206 525.882H36.7647C37.1569 533.431 42.3382 548.499 59.9265 548.382C77.5147 548.264 82.8922 533.333 83.3824 525.882H67.1324C66.9608 527.99 65.2794 532.191 59.9265 532.132C54.5735 532.073 52.8922 527.941 52.7206 525.882Z" stroke="black"/>
<circle cx="120" cy="525" r="24.5" stroke="black"/>
<path d="M112.647 524.191H96.6912C97.0833 516.642 102.265 501.574 119.853 501.691C137.441 501.809 142.819 516.74 143.309 524.191H127.059C126.887 522.083 125.206 517.882 119.853 517.941C114.5 518 112.819 522.132 112.647 524.191Z" stroke="black"/>
<path d="M112.721 525.882H96.7647C97.1569 533.431 102.338 548.499 119.926 548.382C137.515 548.264 142.892 533.333 143.382 525.882H127.132C126.961 527.99 125.279 532.191 119.926 532.132C114.574 532.073 112.892 527.941 112.721 525.882Z" stroke="black"/>
<circle cx="180" cy="525" r="24.5" stroke="black"/>
<path d="M172.647 524.191H156.691C157.083 516.642 162.265 501.574 179.853 501.691C197.441 501.809 202.819 516.74 203.309 524.191H187.059C186.887 522.083 185.206 517.882 179.853 517.941C174.5 518 172.819 522.132 172.647 524.191Z" stroke="black"/>
<path d="M172.721 525.882H156.765C157.157 533.431 162.338 548.499 179.926 548.382C197.515 548.264 202.892 533.333 203.382 525.882H187.132C186.961 527.99 185.279 532.191 179.926 532.132C174.574 532.073 172.892 527.941 172.721 525.882Z" stroke="black"/>
<circle cx="240" cy="525" r="24.5" stroke="black"/>
<path d="M232.647 524.191H216.691C217.083 516.642 222.265 501.574 239.853 501.691C257.441 501.809 262.819 516.74 263.309 524.191H247.059C246.887 522.083 245.206 517.882 239.853 517.941C234.5 518 232.819 522.132 232.647 524.191Z" stroke="black"/>
<path d="M232.721 525.882H216.765C217.157 533.431 222.338 548.499 239.926 548.382C257.515 548.264 262.892 533.333 263.382 525.882H247.132C246.961 527.99 245.279 532.191 239.926 532.132C234.574 532.073 232.892 527.941 232.721 525.882Z" stroke="black"/>
<circle cx="300" cy="524" r="24.5" stroke="black"/>
<path d="M292.647 523.191H276.691C277.083 515.642 282.265 500.574 299.853 500.691C317.441 500.809 322.819 515.74 323.309 523.191H307.059C306.887 521.083 305.206 516.882 299.853 516.941C294.5 517 292.819 521.132 292.647 523.191Z" stroke="black"/>
<path d="M292.721 524.882H276.765C277.157 532.431 282.338 547.499 299.926 547.382C317.515 547.264 322.892 532.333 323.382 524.882H307.132C306.961 526.99 305.279 531.191 299.926 531.132C294.574 531.073 292.892 526.941 292.721 524.882Z" stroke="black"/>
<circle cx="360" cy="525" r="24.5" stroke="black"/>
<path d="M352.647 524.191H336.691C337.083 516.642 342.265 501.574 359.853 501.691C377.441 501.809 382.819 516.74 383.309 524.191H367.059C366.887 522.083 365.206 517.882 359.853 517.941C354.5 518 352.819 522.132 352.647 524.191Z" stroke="black"/>
<path d="M352.721 525.882H336.765C337.157 533.431 342.338 548.499 359.926 548.382C377.515 548.264 382.892 533.333 383.382 525.882H367.132C366.961 527.99 365.279 532.191 359.926 532.132C354.574 532.073 352.892 527.941 352.721 525.882Z" stroke="black"/>
<circle cx="60" cy="585" r="24.5" stroke="black"/>
<path d="M52.647 584.191H36.6912C37.0833 576.642 42.2647 561.574 59.8529 561.691C77.4412 561.809 82.8186 576.74 83.3088 584.191H67.0588C66.8872 582.083 65.2059 577.882 59.8529 577.941C54.5 578 52.8186 582.132 52.647 584.191Z" stroke="black"/>
<path d="M52.7206 585.882H36.7647C37.1569 593.431 42.3382 608.499 59.9265 608.382C77.5147 608.264 82.8922 593.333 83.3824 585.882H67.1324C66.9608 587.99 65.2794 592.191 59.9265 592.132C54.5735 592.073 52.8922 587.941 52.7206 585.882Z" stroke="black"/>
<circle cx="120" cy="585" r="24.5" stroke="black"/>
<path d="M112.647 584.191H96.6912C97.0833 576.642 102.265 561.574 119.853 561.691C137.441 561.809 142.819 576.74 143.309 584.191H127.059C126.887 582.083 125.206 577.882 119.853 577.941C114.5 578 112.819 582.132 112.647 584.191Z" stroke="black"/>
<path d="M112.721 585.882H96.7647C97.1569 593.431 102.338 608.499 119.926 608.382C137.515 608.264 142.892 593.333 143.382 585.882H127.132C126.961 587.99 125.279 592.191 119.926 592.132C114.574 592.073 112.892 587.941 112.721 585.882Z" stroke="black"/>
<circle cx="180" cy="585" r="24.5" stroke="black"/>
<path d="M172.647 584.191H156.691C157.083 576.642 162.265 561.574 179.853 561.691C197.441 561.809 202.819 576.74 203.309 584.191H187.059C186.887 582.083 185.206 577.882 179.853 577.941C174.5 578 172.819 582.132 172.647 584.191Z" stroke="black"/>
<path d="M172.721 585.882H156.765C157.157 593.431 162.338 608.499 179.926 608.382C197.515 608.264 202.892 593.333 203.382 585.882H187.132C186.961 587.99 185.279 592.191 179.926 592.132C174.574 592.073 172.892 587.941 172.721 585.882Z" stroke="black"/>
<circle cx="240" cy="585" r="24.5" stroke="black"/>
<path d="M232.647 584.191H216.691C217.083 576.642 222.265 561.574 239.853 561.691C257.441 561.809 262.819 576.74 263.309 584.191H247.059C246.887 582.083 245.206 577.882 239.853 577.941C234.5 578 232.819 582.132 232.647 584.191Z" stroke="black"/>
<path d="M232.721 585.882H216.765C217.157 593.431 222.338 608.499 239.926 608.382C257.515 608.264 262.892 593.333 263.382 585.882H247.132C246.961 587.99 245.279 592.191 239.926 592.132C234.574 592.073 232.892 587.941 232.721 585.882Z" stroke="black"/>
<circle cx="300" cy="584" r="24.5" stroke="black"/>
<path d="M292.647 583.191H276.691C277.083 575.642 282.265 560.574 299.853 560.691C317.441 560.809 322.819 575.74 323.309 583.191H307.059C306.887 581.083 305.206 576.882 299.853 576.941C294.5 577 292.819 581.132 292.647 583.191Z" stroke="black"/>
<path d="M292.721 584.882H276.765C277.157 592.431 282.338 607.499 299.926 607.382C317.515 607.264 322.892 592.333 323.382 584.882H307.132C306.961 586.99 305.279 591.191 299.926 591.132C294.574 591.073 292.892 586.941 292.721 584.882Z" stroke="black"/>
<circle cx="360" cy="585" r="24.5" stroke="black"/>
<path d="M352.647 584.191H336.691C337.083 576.642 342.265 561.574 359.853 561.691C377.441 561.809 382.819 576.74 383.309 584.191H367.059C366.887 582.083 365.206 577.882 359.853 577.941C354.5 578 352.819 582.132 352.647 584.191Z" stroke="black"/>
<path d="M352.721 585.882H336.765C337.157 593.431 342.338 608.499 359.926 608.382C377.515 608.264 382.892 593.333 383.382 585.882H367.132C366.961 587.99 365.279 592.191 359.926 592.132C354.574 592.073 352.892 587.941 352.721 585.882Z" stroke="black"/>
<circle cx="60" cy="649" r="24.5" stroke="black"/>
<path d="M52.647 648.191H36.6912C37.0833 640.642 42.2647 625.574 59.8529 625.691C77.4412 625.809 82.8186 640.74 83.3088 648.191H67.0588C66.8872 646.083 65.2059 641.882 59.8529 641.941C54.5 642 52.8186 646.132 52.647 648.191Z" stroke="black"/>
<path d="M52.7206 649.882H36.7647C37.1569 657.431 42.3382 672.499 59.9265 672.382C77.5147 672.264 82.8922 657.333 83.3824 649.882H67.1324C66.9608 651.99 65.2794 656.191 59.9265 656.132C54.5735 656.073 52.8922 651.941 52.7206 649.882Z" stroke="black"/>
<circle cx="120" cy="649" r="24.5" stroke="black"/>
<path d="M112.647 648.191H96.6912C97.0833 640.642 102.265 625.574 119.853 625.691C137.441 625.809 142.819 640.74 143.309 648.191H127.059C126.887 646.083 125.206 641.882 119.853 641.941C114.5 642 112.819 646.132 112.647 648.191Z" stroke="black"/>
<path d="M112.721 649.882H96.7647C97.1569 657.431 102.338 672.499 119.926 672.382C137.515 672.264 142.892 657.333 143.382 649.882H127.132C126.961 651.99 125.279 656.191 119.926 656.132C114.574 656.073 112.892 651.941 112.721 649.882Z" stroke="black"/>
<circle cx="180" cy="649" r="24.5" stroke="black"/>
<path d="M172.647 648.191H156.691C157.083 640.642 162.265 625.574 179.853 625.691C197.441 625.809 202.819 640.74 203.309 648.191H187.059C186.887 646.083 185.206 641.882 179.853 641.941C174.5 642 172.819 646.132 172.647 648.191Z" stroke="black"/>
<path d="M172.721 649.882H156.765C157.157 657.431 162.338 672.499 179.926 672.382C197.515 672.264 202.892 657.333 203.382 649.882H187.132C186.961 651.99 185.279 656.191 179.926 656.132C174.574 656.073 172.892 651.941 172.721 649.882Z" stroke="black"/>
<circle cx="240" cy="649" r="24.5" stroke="black"/>
<path d="M232.647 648.191H216.691C217.083 640.642 222.265 625.574 239.853 625.691C257.441 625.809 262.819 640.74 263.309 648.191H247.059C246.887 646.083 245.206 641.882 239.853 641.941C234.5 642 232.819 646.132 232.647 648.191Z" stroke="black"/>
<path d="M232.721 649.882H216.765C217.157 657.431 222.338 672.499 239.926 672.382C257.515 672.264 262.892 657.333 263.382 649.882H247.132C246.961 651.99 245.279 656.191 239.926 656.132C234.574 656.073 232.892 651.941 232.721 649.882Z" stroke="black"/>
<circle cx="300" cy="648" r="24.5" stroke="black"/>
<path d="M292.647 647.191H276.691C277.083 639.642 282.265 624.574 299.853 624.691C317.441 624.809 322.819 639.74 323.309 647.191H307.059C306.887 645.083 305.206 640.882 299.853 640.941C294.5 641 292.819 645.132 292.647 647.191Z" stroke="black"/>
<path d="M292.721 648.882H276.765C277.157 656.431 282.338 671.499 299.926 671.382C317.515 671.264 322.892 656.333 323.382 648.882H307.132C306.961 650.99 305.279 655.191 299.926 655.132C294.574 655.073 292.892 650.941 292.721 648.882Z" stroke="black"/>
<circle cx="360" cy="649" r="24.5" stroke="black"/>
<path d="M352.647 648.191H336.691C337.083 640.642 342.265 625.574 359.853 625.691C377.441 625.809 382.819 640.74 383.309 648.191H367.059C366.887 646.083 365.206 641.882 359.853 641.941C354.5 642 352.819 646.132 352.647 648.191Z" stroke="black"/>
<path d="M352.721 649.882H336.765C337.157 657.431 342.338 672.499 359.926 672.382C377.515 672.264 382.892 657.333 383.382 649.882H367.132C366.961 651.99 365.279 656.191 359.926 656.132C354.574 656.073 352.892 651.941 352.721 649.882Z" stroke="black"/>
<rect x="0.5" y="0.5" width="419" height="699" rx="24.5" fill="url(#paint0_linear_24_646)" stroke="black"/>
<defs>
<linearGradient id="paint0_linear_24_646" x1="210" y1="0" x2="210" y2="700" gradientUnits="userSpaceOnUse">
<stop stop-color="#FF0000" stop-opacity="0"/>
<stop offset="1" stop-color="#990000"/>
</linearGradient>
</defs>
</svg>
