<svg width="420" height="700" viewBox="0 0 420 700" fill="none" xmlns="http://www.w3.org/2000/svg">
<rect x="1" y="1" width="418" height="698" rx="19" fill="#4F4F4F"/>
<rect x="19" y="110" width="22" height="18" fill="white"/>
<rect x="19" y="587" width="22" height="18" fill="white"/>
<rect x="19" y="140" width="170" height="55" fill="white"/>
<rect x="229" y="204" width="170" height="55" fill="white"/>
<rect x="19" y="204" width="170" height="55" fill="white"/>
<rect x="229" y="140" width="170" height="55" fill="white"/>
<path d="M47.044 601C46.652 601 46.456 600.804 46.456 600.412V592.096C46.456 591.704 46.652 591.508 47.044 591.508C47.3007 591.508 47.5153 591.634 47.688 591.886L50.992 596.856L50.74 596.898L54.072 591.886C54.2307 591.634 54.4687 591.508 54.786 591.508C55.1033 591.508 55.262 591.704 55.262 592.096V600.412C55.262 600.804 55.066 601 54.674 601C54.282 601 54.086 600.804 54.086 600.412V593.272L54.45 593.398L51.51 597.724C51.3373 597.976 51.0993 598.102 50.796 598.102C50.586 598.102 50.3947 597.976 50.222 597.724L47.282 593.398L47.632 593.496V600.412C47.632 600.804 47.436 601 47.044 601ZM59.0128 597.934V598.27C59.0128 598.872 59.1225 599.283 59.3418 599.502C59.5611 599.717 59.9741 599.824 60.5808 599.824H61.7288C62.2048 599.824 62.5571 599.78 62.7858 599.691C63.0145 599.602 63.1661 599.446 63.2408 599.222C63.2921 599.045 63.3621 598.909 63.4508 598.816C63.5441 598.723 63.6841 598.676 63.8708 598.676C64.0668 598.676 64.2161 598.727 64.3188 598.83C64.4215 598.933 64.4541 599.082 64.4168 599.278C64.3141 599.857 64.0388 600.288 63.5908 600.573C63.1428 600.858 62.5221 601 61.7288 601H60.5808C59.6521 601 58.9615 600.776 58.5088 600.328C58.0608 599.88 57.8368 599.194 57.8368 598.27V596.646C57.8368 595.699 58.0608 595.003 58.5088 594.56C58.9615 594.112 59.6521 593.893 60.5808 593.902H61.7288C62.6621 593.902 63.3528 594.126 63.8008 594.574C64.2488 595.017 64.4728 595.708 64.4728 596.646V597.346C64.4728 597.738 64.2768 597.934 63.8848 597.934H59.0128ZM60.5808 595.078C59.9741 595.069 59.5611 595.174 59.3418 595.393C59.1225 595.612 59.0128 596.03 59.0128 596.646V596.758H63.2968V596.646C63.2968 596.035 63.1871 595.622 62.9678 595.407C62.7531 595.188 62.3401 595.078 61.7288 595.078H60.5808ZM69.7684 601C68.8444 601 68.1631 600.781 67.7244 600.342C67.2857 599.903 67.0664 599.227 67.0664 598.312V595.078H66.3804C65.9884 595.078 65.7924 594.882 65.7924 594.49C65.7924 594.098 65.9884 593.902 66.3804 593.902H67.0664V592.88C67.0664 592.488 67.2624 592.292 67.6544 592.292C68.0464 592.292 68.2424 592.488 68.2424 592.88V593.902H69.8524C70.2444 593.902 70.4404 594.098 70.4404 594.49C70.4404 594.882 70.2444 595.078 69.8524 595.078H68.2424V598.312C68.2424 598.905 68.3497 599.306 68.5644 599.516C68.7791 599.721 69.1804 599.824 69.7684 599.824C69.9504 599.824 70.0927 599.871 70.1954 599.964C70.3027 600.057 70.3564 600.207 70.3564 600.412C70.3564 600.804 70.1604 601 69.7684 601ZM73.2256 601C72.8336 601 72.6376 600.804 72.6376 600.412V591.732C72.6376 591.34 72.8336 591.144 73.2256 591.144C73.6176 591.144 73.8136 591.34 73.8136 591.732V594.721C74.3083 594.175 75.0363 593.902 75.9976 593.902H76.3896C77.323 593.902 78.0136 594.126 78.4616 594.574C78.9096 595.022 79.1336 595.713 79.1336 596.646V600.412C79.1336 600.804 78.9376 601 78.5456 601C78.1536 601 77.9576 600.804 77.9576 600.412V596.646C77.9576 596.035 77.8456 595.622 77.6216 595.407C77.4023 595.188 76.9916 595.078 76.3896 595.078H75.9976C75.4376 595.078 74.95 595.143 74.5346 595.274C74.1193 595.4 73.879 595.601 73.8136 595.876V600.412C73.8136 600.804 73.6176 601 73.2256 601ZM84.3152 601C83.3865 601 82.6958 600.776 82.2432 600.328C81.7952 599.88 81.5712 599.194 81.5712 598.27V596.646C81.5712 595.708 81.7952 595.017 82.2432 594.574C82.6958 594.126 83.3865 593.902 84.3152 593.902H85.4632C86.3965 593.902 87.0872 594.126 87.5352 594.574C87.9832 595.022 88.2072 595.713 88.2072 596.646V598.256C88.2072 599.185 87.9832 599.875 87.5352 600.328C87.0872 600.776 86.3965 601 85.4632 601H84.3152ZM82.7472 598.27C82.7472 598.872 82.8568 599.283 83.0762 599.502C83.2955 599.717 83.7085 599.824 84.3152 599.824H85.4632C86.0745 599.824 86.4875 599.714 86.7022 599.495C86.9215 599.276 87.0312 598.863 87.0312 598.256V596.646C87.0312 596.035 86.9215 595.622 86.7022 595.407C86.4875 595.188 86.0745 595.078 85.4632 595.078H84.3152C83.9092 595.078 83.5918 595.125 83.3632 595.218C83.1392 595.307 82.9805 595.465 82.8872 595.694C82.7938 595.918 82.7472 596.235 82.7472 596.646V598.27ZM93.1882 601C92.2596 601 91.5689 600.776 91.1162 600.328C90.6682 599.875 90.4442 599.185 90.4442 598.256V596.646C90.4442 595.713 90.6682 595.022 91.1162 594.574C91.5689 594.126 92.2596 593.902 93.1882 593.902H95.9042V591.732C95.9042 591.34 96.1002 591.144 96.4922 591.144C96.8842 591.144 97.0802 591.34 97.0802 591.732V600.412C97.0802 600.804 96.8842 601 96.4922 601C96.1002 601 95.9042 600.804 95.9042 600.412V600.314C95.6849 600.538 95.3979 600.708 95.0432 600.825C94.6886 600.942 94.2476 601 93.7202 601H93.1882ZM93.1882 599.824H93.7202C94.3362 599.824 94.8542 599.745 95.2742 599.586C95.6942 599.427 95.9042 599.185 95.9042 598.858V595.078H93.1882C92.5816 595.078 92.1686 595.19 91.9492 595.414C91.7299 595.633 91.6202 596.044 91.6202 596.646V598.256C91.6202 598.863 91.7299 599.276 91.9492 599.495C92.1732 599.714 92.5862 599.824 93.1882 599.824ZM101.524 601C100.932 601 100.463 600.879 100.117 600.636C99.772 600.389 99.5503 600.02 99.4523 599.53C99.4197 599.334 99.457 599.18 99.5643 599.068C99.6763 598.956 99.8303 598.9 100.026 598.9C100.218 598.9 100.355 598.949 100.439 599.047C100.528 599.14 100.6 599.283 100.656 599.474C100.712 599.614 100.806 599.707 100.936 599.754C101.072 599.801 101.268 599.824 101.524 599.824H103.82C104.184 599.824 104.429 599.766 104.555 599.649C104.681 599.528 104.744 599.278 104.744 598.9C104.744 598.527 104.681 598.279 104.555 598.158C104.429 598.037 104.184 597.976 103.82 597.976H101.566C100.894 597.976 100.388 597.806 100.047 597.465C99.7067 597.124 99.5363 596.618 99.5363 595.946C99.5363 595.26 99.702 594.749 100.033 594.413C100.369 594.072 100.88 593.902 101.566 593.902H103.75C104.847 593.902 105.496 594.364 105.696 595.288C105.734 595.484 105.696 595.636 105.584 595.743C105.472 595.85 105.318 595.904 105.122 595.904C104.94 595.904 104.805 595.857 104.716 595.764C104.628 595.666 104.558 595.531 104.506 595.358C104.45 595.246 104.364 595.171 104.247 595.134C104.135 595.097 103.97 595.078 103.75 595.078H101.566C101.212 595.078 100.981 595.132 100.873 595.239C100.766 595.346 100.712 595.582 100.712 595.946C100.712 596.282 100.768 596.508 100.88 596.625C100.997 596.742 101.226 596.8 101.566 596.8H103.82C104.52 596.8 105.045 596.975 105.395 597.325C105.745 597.675 105.92 598.2 105.92 598.9C105.92 599.605 105.745 600.132 105.395 600.482C105.045 600.827 104.52 601 103.82 601H101.524Z" fill="white"/>
<path d="M116.597 78C114.765 78 113.409 77.564 112.529 76.692C111.657 75.812 111.221 74.456 111.221 72.624V67.08C111.221 65.232 111.661 63.876 112.541 63.012C113.421 62.14 114.773 61.712 116.597 61.728H119.477C121.317 61.728 122.673 62.164 123.545 63.036C124.417 63.908 124.853 65.264 124.853 67.104V72.624C124.853 74.456 124.417 75.812 123.545 76.692C122.673 77.564 121.317 78 119.477 78H116.597ZM116.597 75.984H119.477C120.333 75.984 121.005 75.884 121.493 75.684C121.981 75.476 122.325 75.128 122.525 74.64C122.733 74.152 122.837 73.48 122.837 72.624V67.104C122.837 66.256 122.733 65.588 122.525 65.1C122.325 64.612 121.981 64.264 121.493 64.056C121.005 63.848 120.333 63.744 119.477 63.744H116.597C115.749 63.736 115.081 63.832 114.593 64.032C114.105 64.232 113.757 64.576 113.549 65.064C113.341 65.552 113.237 66.224 113.237 67.08V72.624C113.237 73.48 113.337 74.152 113.537 74.64C113.745 75.128 114.093 75.476 114.581 75.684C115.069 75.884 115.741 75.984 116.597 75.984ZM130.266 78C129.594 78 129.258 77.664 129.258 76.992V62.736C129.258 62.064 129.594 61.728 130.266 61.728H136.53C137.802 61.728 138.778 62.064 139.458 62.736C140.146 63.408 140.49 64.368 140.49 65.616V66.264C140.49 67.344 140.15 68.18 139.47 68.772C140.742 69.484 141.378 70.784 141.378 72.672V73.488C141.378 74.96 140.986 76.08 140.202 76.848C139.426 77.616 138.306 78 136.842 78H130.266ZM131.274 75.984H136.842C137.746 75.984 138.39 75.792 138.774 75.408C139.166 75.016 139.362 74.376 139.362 73.488V72.672C139.362 71.784 139.174 71.152 138.798 70.776C138.422 70.392 137.77 70.2 136.842 70.2H131.274V75.984ZM131.274 68.184H136.962C137.546 68.184 137.942 68.004 138.15 67.644C138.366 67.284 138.474 66.824 138.474 66.264V65.616C138.474 64.92 138.33 64.436 138.042 64.164C137.754 63.884 137.25 63.744 136.53 63.744H131.274V68.184ZM148.574 78C147.078 78 145.93 77.692 145.13 77.076C144.338 76.452 143.87 75.48 143.726 74.16C143.694 73.824 143.766 73.564 143.942 73.38C144.118 73.196 144.374 73.104 144.71 73.104C145.326 73.104 145.67 73.44 145.742 74.112C145.838 74.84 146.098 75.336 146.522 75.6C146.946 75.856 147.63 75.984 148.574 75.984H150.566C151.31 75.984 151.89 75.9 152.306 75.732C152.73 75.564 153.026 75.272 153.194 74.856C153.362 74.44 153.446 73.856 153.446 73.104V62.736C153.446 62.064 153.782 61.728 154.454 61.728C155.126 61.728 155.462 62.064 155.462 62.736V73.104C155.462 74.792 155.066 76.032 154.274 76.824C153.482 77.608 152.246 78 150.566 78H148.574ZM161.344 78C160.672 78 160.336 77.664 160.336 76.992V62.736C160.336 62.064 160.672 61.728 161.344 61.728H169.96C170.632 61.728 170.968 62.064 170.968 62.736C170.968 63.408 170.632 63.744 169.96 63.744H162.352V68.784H167.128C167.8 68.784 168.136 69.12 168.136 69.792C168.136 70.464 167.8 70.8 167.128 70.8H162.352V75.984H169.96C170.632 75.984 170.968 76.32 170.968 76.992C170.968 77.664 170.632 78 169.96 78H161.344ZM179.128 78C177.296 78 175.94 77.564 175.06 76.692C174.188 75.812 173.752 74.456 173.752 72.624V67.104C173.752 65.256 174.188 63.896 175.06 63.024C175.932 62.144 177.28 61.712 179.104 61.728H182.008C183.512 61.728 184.66 62.04 185.452 62.664C186.244 63.28 186.704 64.256 186.832 65.592C186.88 65.928 186.816 66.184 186.64 66.36C186.464 66.536 186.208 66.624 185.872 66.624C185.264 66.624 184.912 66.288 184.816 65.616C184.736 64.88 184.48 64.384 184.048 64.128C183.624 63.872 182.944 63.744 182.008 63.744H179.104C178.256 63.736 177.588 63.832 177.1 64.032C176.62 64.232 176.276 64.58 176.068 65.076C175.868 65.564 175.768 66.24 175.768 67.104V72.624C175.768 73.48 175.868 74.152 176.068 74.64C176.276 75.128 176.624 75.476 177.112 75.684C177.6 75.884 178.272 75.984 179.128 75.984H182.008C182.944 75.984 183.624 75.856 184.048 75.6C184.48 75.336 184.736 74.84 184.816 74.112C184.912 73.44 185.264 73.104 185.872 73.104C186.208 73.104 186.464 73.192 186.64 73.368C186.816 73.544 186.88 73.8 186.832 74.136C186.704 75.48 186.244 76.46 185.452 77.076C184.66 77.692 183.512 78 182.008 78H179.128ZM195.911 78C195.575 78 195.323 77.916 195.155 77.748C194.987 77.58 194.903 77.328 194.903 76.992V63.768H190.247C189.911 63.768 189.659 63.684 189.491 63.516C189.323 63.348 189.239 63.096 189.239 62.76C189.239 62.424 189.323 62.172 189.491 62.004C189.659 61.836 189.911 61.752 190.247 61.752H201.575C201.911 61.752 202.163 61.836 202.331 62.004C202.499 62.172 202.583 62.424 202.583 62.76C202.583 63.096 202.499 63.348 202.331 63.516C202.163 63.684 201.911 63.768 201.575 63.768H196.919V76.992C196.919 77.312 196.831 77.56 196.655 77.736C196.487 77.912 196.239 78 195.911 78Z" fill="white"/>
<path d="M218.44 78C218.024 78 217.696 77.736 217.456 77.208L211.528 63.168C211.408 62.888 211.376 62.64 211.432 62.424C211.488 62.2 211.672 62.016 211.984 61.872C212.64 61.544 213.104 61.712 213.376 62.376L218.98 75.648H218.284L223.744 62.376C224.008 61.72 224.472 61.552 225.136 61.872C225.416 62.016 225.588 62.2 225.652 62.424C225.724 62.64 225.704 62.888 225.592 63.168L219.616 77.208C219.368 77.736 219.008 78 218.536 78H218.44ZM229.758 78C229.086 78 228.75 77.664 228.75 76.992V62.736C228.75 62.064 229.086 61.728 229.758 61.728H238.374C239.046 61.728 239.382 62.064 239.382 62.736C239.382 63.408 239.046 63.744 238.374 63.744H230.766V68.784H235.542C236.214 68.784 236.55 69.12 236.55 69.792C236.55 70.464 236.214 70.8 235.542 70.8H230.766V75.984H238.374C239.046 75.984 239.382 76.32 239.382 76.992C239.382 77.664 239.046 78 238.374 78H229.758ZM244.219 78C243.955 78 243.719 77.9 243.511 77.7C243.311 77.492 243.211 77.256 243.211 76.992V62.736C243.211 62.472 243.311 62.24 243.511 62.04C243.719 61.832 243.955 61.728 244.219 61.728C244.483 61.728 244.715 61.832 244.915 62.04C245.123 62.24 245.227 62.472 245.227 62.736V68.76H255.019V62.736C255.019 62.472 255.119 62.24 255.319 62.04C255.519 61.832 255.755 61.728 256.027 61.728C256.291 61.728 256.523 61.832 256.723 62.04C256.931 62.24 257.035 62.472 257.035 62.736V76.992C257.035 77.256 256.931 77.492 256.723 77.7C256.523 77.9 256.291 78 256.027 78C255.755 78 255.519 77.9 255.319 77.7C255.119 77.492 255.019 77.256 255.019 76.992V70.776H245.227V76.992C245.227 77.256 245.123 77.492 244.915 77.7C244.715 77.9 244.483 78 244.219 78ZM263.039 78C262.695 78 262.439 77.92 262.271 77.76C262.111 77.592 262.031 77.336 262.031 76.992V62.76C262.031 62.408 262.111 62.152 262.271 61.992C262.439 61.832 262.695 61.752 263.039 61.752C263.391 61.752 263.647 61.832 263.807 61.992C263.967 62.152 264.047 62.408 264.047 62.76V76.992C264.047 77.336 263.967 77.592 263.807 77.76C263.647 77.92 263.391 78 263.039 78ZM273.839 78C272.007 78 270.651 77.564 269.771 76.692C268.899 75.812 268.463 74.456 268.463 72.624V67.104C268.463 65.256 268.899 63.896 269.771 63.024C270.643 62.144 271.991 61.712 273.815 61.728H276.719C278.223 61.728 279.371 62.04 280.163 62.664C280.955 63.28 281.415 64.256 281.543 65.592C281.591 65.928 281.527 66.184 281.351 66.36C281.175 66.536 280.919 66.624 280.583 66.624C279.975 66.624 279.623 66.288 279.527 65.616C279.447 64.88 279.191 64.384 278.759 64.128C278.335 63.872 277.655 63.744 276.719 63.744H273.815C272.967 63.736 272.299 63.832 271.811 64.032C271.331 64.232 270.987 64.58 270.779 65.076C270.579 65.564 270.479 66.24 270.479 67.104V72.624C270.479 73.48 270.579 74.152 270.779 74.64C270.987 75.128 271.335 75.476 271.823 75.684C272.311 75.884 272.983 75.984 273.839 75.984H276.719C277.655 75.984 278.335 75.856 278.759 75.6C279.191 75.336 279.447 74.84 279.527 74.112C279.623 73.44 279.975 73.104 280.583 73.104C280.919 73.104 281.175 73.192 281.351 73.368C281.527 73.544 281.591 73.8 281.543 74.136C281.415 75.48 280.955 76.46 280.163 77.076C279.371 77.692 278.223 78 276.719 78H273.839ZM286.758 78C286.086 78 285.75 77.664 285.75 76.992V62.736C285.75 62.064 286.086 61.728 286.758 61.728C287.43 61.728 287.766 62.064 287.766 62.736V75.984H294.414C295.086 75.984 295.422 76.32 295.422 76.992C295.422 77.664 295.086 78 294.414 78H286.758ZM299.742 78C299.07 78 298.734 77.664 298.734 76.992V62.736C298.734 62.064 299.07 61.728 299.742 61.728H308.358C309.03 61.728 309.366 62.064 309.366 62.736C309.366 63.408 309.03 63.744 308.358 63.744H300.75V68.784H305.526C306.198 68.784 306.534 69.12 306.534 69.792C306.534 70.464 306.198 70.8 305.526 70.8H300.75V75.984H308.358C309.03 75.984 309.366 76.32 309.366 76.992C309.366 77.664 309.03 78 308.358 78H299.742Z" fill="#FFD500"/>
<path d="M46.7067 123.936C46.28 123.771 46.152 123.477 46.3227 123.056L50.1307 113.68C50.2907 113.328 50.5414 113.152 50.8827 113.152H50.9147C51.2614 113.168 51.496 113.344 51.6187 113.68L55.4907 123.056C55.6614 123.477 55.5387 123.771 55.1227 123.936C54.7014 124.101 54.408 123.979 54.2427 123.568L53.3787 121.472H48.3947L47.5707 123.568C47.4054 123.984 47.1174 124.107 46.7067 123.936ZM48.9227 120.128H52.8267L50.8347 115.28L48.9227 120.128ZM61.2989 124C60.2429 124 59.4643 123.749 58.9629 123.248C58.4616 122.747 58.2109 121.973 58.2109 120.928V117.232H57.4269C56.9789 117.232 56.7549 117.008 56.7549 116.56C56.7549 116.112 56.9789 115.888 57.4269 115.888H58.2109V114.72C58.2109 114.272 58.4349 114.048 58.8829 114.048C59.3309 114.048 59.5549 114.272 59.5549 114.72V115.888H61.3949C61.8429 115.888 62.0669 116.112 62.0669 116.56C62.0669 117.008 61.8429 117.232 61.3949 117.232H59.5549V120.928C59.5549 121.605 59.6776 122.064 59.9229 122.304C60.1683 122.539 60.6269 122.656 61.2989 122.656C61.5069 122.656 61.6696 122.709 61.7869 122.816C61.9096 122.923 61.9709 123.093 61.9709 123.328C61.9709 123.776 61.7469 124 61.2989 124ZM68.0021 124C66.9461 124 66.1674 123.749 65.6661 123.248C65.1647 122.747 64.9141 121.973 64.9141 120.928V117.232H64.1301C63.6821 117.232 63.4581 117.008 63.4581 116.56C63.4581 116.112 63.6821 115.888 64.1301 115.888H64.9141V114.72C64.9141 114.272 65.1381 114.048 65.5861 114.048C66.0341 114.048 66.2581 114.272 66.2581 114.72V115.888H68.0981C68.5461 115.888 68.7701 116.112 68.7701 116.56C68.7701 117.008 68.5461 117.232 68.0981 117.232H66.2581V120.928C66.2581 121.605 66.3807 122.064 66.6261 122.304C66.8714 122.539 67.3301 122.656 68.0021 122.656C68.2101 122.656 68.3727 122.709 68.4901 122.816C68.6127 122.923 68.6741 123.093 68.6741 123.328C68.6741 123.776 68.4501 124 68.0021 124ZM71.9532 124C71.5052 124 71.2812 123.776 71.2812 123.328V116.56C71.2812 116.112 71.5052 115.888 71.9532 115.888C72.4012 115.888 72.6252 116.112 72.6252 116.56V117.184C72.9399 116.757 73.3399 116.435 73.8252 116.216C74.3159 115.997 74.8759 115.888 75.5052 115.888C75.9532 115.888 76.1772 116.112 76.1772 116.56C76.1772 117.008 75.9532 117.232 75.5052 117.232C74.5825 117.232 73.8785 117.403 73.3932 117.744C72.9079 118.085 72.6519 118.536 72.6252 119.096V123.328C72.6252 123.776 72.4012 124 71.9532 124ZM78.5573 114.576C78.0506 114.576 77.7973 114.32 77.7973 113.808V113.336C77.7973 112.835 78.0506 112.584 78.5573 112.584H79.0213C79.5066 112.584 79.7493 112.835 79.7493 113.336V113.808C79.7493 114.32 79.5066 114.576 79.0213 114.576H78.5573ZM78.7813 124C78.3333 124 78.1093 123.776 78.1093 123.328V116.56C78.1093 116.112 78.3333 115.888 78.7813 115.888C79.2293 115.888 79.4533 116.112 79.4533 116.56V123.328C79.4533 123.776 79.2293 124 78.7813 124ZM83.4532 124C83.0052 124 82.7812 123.776 82.7812 123.328V113.408C82.7812 112.96 83.0052 112.736 83.4532 112.736C83.9012 112.736 84.1252 112.96 84.1252 113.408V116.744C84.4025 116.461 84.7492 116.248 85.1652 116.104C85.5812 115.96 86.0665 115.888 86.6212 115.888H87.2292C88.2959 115.888 89.0852 116.144 89.5972 116.656C90.1092 117.168 90.3652 117.957 90.3652 119.024V120.864C90.3652 121.925 90.1092 122.715 89.5972 123.232C89.0852 123.744 88.2959 124 87.2292 124H86.6212C86.0665 124 85.5812 123.928 85.1652 123.784C84.7492 123.64 84.4025 123.429 84.1252 123.152V123.328C84.1252 123.776 83.9012 124 83.4532 124ZM86.6212 122.656H87.2292C87.9279 122.656 88.3999 122.531 88.6452 122.28C88.8959 122.024 89.0212 121.552 89.0212 120.864V119.024C89.0212 118.325 88.8932 117.853 88.6372 117.608C88.3865 117.357 87.9172 117.232 87.2292 117.232H86.6212C85.9172 117.232 85.3252 117.323 84.8452 117.504C84.3652 117.68 84.1252 117.957 84.1252 118.336V121.552C84.1252 121.925 84.3652 122.203 84.8452 122.384C85.3252 122.565 85.9172 122.656 86.6212 122.656ZM99.9044 115.888C100.352 115.888 100.576 116.112 100.576 116.56V123.328C100.576 123.776 100.352 124 99.9044 124C99.4564 124 99.2324 123.776 99.2324 123.328V123.064C98.6671 123.688 97.8351 124 96.7364 124H96.2884C95.2271 124 94.4378 123.744 93.9204 123.232C93.4084 122.715 93.1524 121.925 93.1524 120.864V116.56C93.1524 116.112 93.3764 115.888 93.8244 115.888C94.2724 115.888 94.4964 116.112 94.4964 116.56V120.864C94.4964 121.557 94.6218 122.029 94.8724 122.28C95.1284 122.531 95.6004 122.656 96.2884 122.656H96.7364C97.3764 122.656 97.9338 122.581 98.4084 122.432C98.8884 122.283 99.1631 122.053 99.2324 121.744V116.56C99.2324 116.112 99.4564 115.888 99.9044 115.888ZM107.33 124C106.274 124 105.496 123.749 104.994 123.248C104.493 122.747 104.242 121.973 104.242 120.928V117.232H103.458C103.01 117.232 102.786 117.008 102.786 116.56C102.786 116.112 103.01 115.888 103.458 115.888H104.242V114.72C104.242 114.272 104.466 114.048 104.914 114.048C105.362 114.048 105.586 114.272 105.586 114.72V115.888H107.426C107.874 115.888 108.098 116.112 108.098 116.56C108.098 117.008 107.874 117.232 107.426 117.232H105.586V120.928C105.586 121.605 105.709 122.064 105.954 122.304C106.2 122.539 106.658 122.656 107.33 122.656C107.538 122.656 107.701 122.709 107.818 122.816C107.941 122.923 108.002 123.093 108.002 123.328C108.002 123.776 107.778 124 107.33 124ZM110.929 120.496V120.88C110.929 121.568 111.054 122.037 111.305 122.288C111.555 122.533 112.027 122.656 112.721 122.656H114.033C114.577 122.656 114.979 122.605 115.241 122.504C115.502 122.403 115.675 122.224 115.761 121.968C115.819 121.765 115.899 121.611 116.001 121.504C116.107 121.397 116.267 121.344 116.481 121.344C116.705 121.344 116.875 121.403 116.993 121.52C117.11 121.637 117.147 121.808 117.105 122.032C116.987 122.693 116.673 123.187 116.161 123.512C115.649 123.837 114.939 124 114.033 124H112.721C111.659 124 110.87 123.744 110.353 123.232C109.841 122.72 109.585 121.936 109.585 120.88V119.024C109.585 117.941 109.841 117.147 110.353 116.64C110.87 116.128 111.659 115.877 112.721 115.888H114.033C115.099 115.888 115.889 116.144 116.401 116.656C116.913 117.163 117.169 117.952 117.169 119.024V119.824C117.169 120.272 116.945 120.496 116.497 120.496H110.929ZM112.721 117.232C112.027 117.221 111.555 117.341 111.305 117.592C111.054 117.843 110.929 118.32 110.929 119.024V119.152H115.825V119.024C115.825 118.325 115.699 117.853 115.449 117.608C115.203 117.357 114.731 117.232 114.033 117.232H112.721Z" fill="white"/>
<path d="M25.336 157C24.888 157 24.664 156.776 24.664 156.328V146.824C24.664 146.376 24.888 146.152 25.336 146.152H29.512C30.36 146.152 31.0107 146.376 31.464 146.824C31.9227 147.272 32.152 147.912 32.152 148.744V149.176C32.152 149.896 31.9253 150.453 31.472 150.848C32.32 151.323 32.744 152.189 32.744 153.448V153.992C32.744 154.973 32.4827 155.72 31.96 156.232C31.4427 156.744 30.696 157 29.72 157H25.336ZM26.008 155.656H29.72C30.3227 155.656 30.752 155.528 31.008 155.272C31.2693 155.011 31.4 154.584 31.4 153.992V153.448C31.4 152.856 31.2747 152.435 31.024 152.184C30.7733 151.928 30.3387 151.8 29.72 151.8H26.008V155.656ZM26.008 150.456H29.8C30.1893 150.456 30.4533 150.336 30.592 150.096C30.736 149.856 30.808 149.549 30.808 149.176V148.744C30.808 148.28 30.712 147.957 30.52 147.776C30.328 147.589 29.992 147.496 29.512 147.496H26.008V150.456ZM36.1016 157C35.6536 157 35.4296 156.776 35.4296 156.328V149.56C35.4296 149.112 35.6536 148.888 36.1016 148.888C36.5496 148.888 36.7736 149.112 36.7736 149.56V150.184C37.0883 149.757 37.4883 149.435 37.9736 149.216C38.4643 148.997 39.0243 148.888 39.6536 148.888C40.1016 148.888 40.3256 149.112 40.3256 149.56C40.3256 150.008 40.1016 150.232 39.6536 150.232C38.731 150.232 38.027 150.403 37.5416 150.744C37.0563 151.085 36.8003 151.536 36.7736 152.096V156.328C36.7736 156.776 36.5496 157 36.1016 157ZM44.2694 157C43.3734 157 42.7067 156.781 42.2694 156.344C41.832 155.907 41.6134 155.24 41.6134 154.344C41.6134 153.448 41.8294 152.781 42.2614 152.344C42.6987 151.907 43.368 151.688 44.2694 151.688H47.6534C47.6214 151.128 47.4747 150.747 47.2134 150.544C46.952 150.336 46.504 150.232 45.8694 150.232H44.9414C44.408 150.232 44.0107 150.269 43.7494 150.344C43.488 150.413 43.304 150.541 43.1974 150.728C43.1014 150.952 43.0027 151.107 42.9014 151.192C42.8 151.277 42.648 151.32 42.4454 151.32C42.2214 151.32 42.0454 151.259 41.9174 151.136C41.7894 151.008 41.752 150.84 41.8054 150.632C41.9654 150.029 42.2987 149.589 42.8054 149.312C43.3174 149.029 44.0294 148.888 44.9414 148.888H45.8694C46.936 148.888 47.7254 149.144 48.2374 149.656C48.7494 150.168 49.0054 150.957 49.0054 152.024V156.328C49.0054 156.776 48.7814 157 48.3334 157C47.8854 157 47.6614 156.776 47.6614 156.328V155.968C47.0907 156.656 46.2587 157 45.1654 157H44.2694ZM44.2694 155.656H45.1654C45.56 155.656 45.9307 155.621 46.2774 155.552C46.624 155.477 46.92 155.344 47.1654 155.152C47.416 154.96 47.5814 154.685 47.6614 154.328V153.032H44.2694C43.7414 153.032 43.3894 153.12 43.2134 153.296C43.0427 153.472 42.9574 153.821 42.9574 154.344C42.9574 154.872 43.0427 155.224 43.2134 155.4C43.3894 155.571 43.7414 155.656 44.2694 155.656ZM52.8516 157C52.4036 157 52.1796 156.776 52.1796 156.328V149.56C52.1796 149.112 52.4036 148.888 52.8516 148.888C53.2996 148.888 53.5236 149.112 53.5236 149.56V149.824C54.089 149.2 54.921 148.888 56.0196 148.888H56.4676C57.5343 148.888 58.3236 149.144 58.8356 149.656C59.3476 150.168 59.6036 150.957 59.6036 152.024V156.328C59.6036 156.776 59.3796 157 58.9316 157C58.4836 157 58.2596 156.776 58.2596 156.328V152.024C58.2596 151.325 58.1316 150.853 57.8756 150.608C57.625 150.357 57.1556 150.232 56.4676 150.232H56.0196C55.3796 150.232 54.8223 150.307 54.3476 150.456C53.873 150.6 53.5983 150.829 53.5236 151.144V156.328C53.5236 156.776 53.2996 157 52.8516 157ZM65.5254 157C64.464 157 63.6747 156.744 63.1574 156.232C62.6454 155.715 62.3894 154.925 62.3894 153.864V152.024C62.3894 150.957 62.6454 150.168 63.1574 149.656C63.6747 149.144 64.464 148.888 65.5254 148.888H68.6294V146.408C68.6294 145.96 68.8534 145.736 69.3014 145.736C69.7494 145.736 69.9734 145.96 69.9734 146.408V156.328C69.9734 156.776 69.7494 157 69.3014 157C68.8534 157 68.6294 156.776 68.6294 156.328V156.216C68.3787 156.472 68.0507 156.667 67.6454 156.8C67.24 156.933 66.736 157 66.1334 157H65.5254ZM65.5254 155.656H66.1334C66.8374 155.656 67.4294 155.565 67.9094 155.384C68.3894 155.203 68.6294 154.925 68.6294 154.552V150.232H65.5254C64.832 150.232 64.36 150.36 64.1094 150.616C63.8587 150.867 63.7334 151.336 63.7334 152.024V153.864C63.7334 154.557 63.8587 155.029 64.1094 155.28C64.3654 155.531 64.8374 155.656 65.5254 155.656ZM73.4684 157C73.0417 157 72.8284 156.787 72.8284 156.36V155.96C72.8284 155.544 73.0417 155.336 73.4684 155.336H73.8524C74.2577 155.336 74.4604 155.544 74.4604 155.96V156.36C74.4604 156.787 74.2577 157 73.8524 157H73.4684ZM73.4684 151.72C73.0417 151.72 72.8284 151.507 72.8284 151.08V150.68C72.8284 150.264 73.0417 150.056 73.4684 150.056H73.8524C74.2577 150.056 74.4604 150.264 74.4604 150.68V151.08C74.4604 151.507 74.2577 151.72 73.8524 151.72H73.4684Z" fill="black"/>
<path d="M21.336 219C20.888 219 20.664 218.776 20.664 218.328V208.824C20.664 208.376 20.888 208.152 21.336 208.152C21.6293 208.152 21.8747 208.296 22.072 208.584L25.848 214.264L25.56 214.312L29.368 208.584C29.5493 208.296 29.8213 208.152 30.184 208.152C30.5467 208.152 30.728 208.376 30.728 208.824V218.328C30.728 218.776 30.504 219 30.056 219C29.608 219 29.384 218.776 29.384 218.328V210.168L29.8 210.312L26.44 215.256C26.2427 215.544 25.9707 215.688 25.624 215.688C25.384 215.688 25.1653 215.544 24.968 215.256L21.608 210.312L22.008 210.424V218.328C22.008 218.776 21.784 219 21.336 219ZM36.8066 219C35.7453 219 34.956 218.744 34.4386 218.232C33.9266 217.72 33.6706 216.936 33.6706 215.88V214.024C33.6706 212.952 33.9266 212.163 34.4386 211.656C34.956 211.144 35.7453 210.888 36.8066 210.888H38.1186C39.1853 210.888 39.9746 211.144 40.4866 211.656C40.9986 212.168 41.2546 212.957 41.2546 214.024V215.864C41.2546 216.925 40.9986 217.715 40.4866 218.232C39.9746 218.744 39.1853 219 38.1186 219H36.8066ZM35.0146 215.88C35.0146 216.568 35.14 217.037 35.3906 217.288C35.6413 217.533 36.1133 217.656 36.8066 217.656H38.1186C38.8173 217.656 39.2893 217.531 39.5346 217.28C39.7853 217.029 39.9106 216.557 39.9106 215.864V214.024C39.9106 213.325 39.7853 212.853 39.5346 212.608C39.2893 212.357 38.8173 212.232 38.1186 212.232H36.8066C36.3426 212.232 35.98 212.285 35.7186 212.392C35.4626 212.493 35.2813 212.675 35.1746 212.936C35.068 213.192 35.0146 213.555 35.0146 214.024V215.88ZM46.9473 219C45.8859 219 45.0966 218.744 44.5793 218.232C44.0673 217.715 43.8113 216.925 43.8113 215.864V214.024C43.8113 212.957 44.0673 212.168 44.5793 211.656C45.0966 211.144 45.8859 210.888 46.9473 210.888H50.0513V208.408C50.0513 207.96 50.2753 207.736 50.7233 207.736C51.1713 207.736 51.3953 207.96 51.3953 208.408V218.328C51.3953 218.776 51.1713 219 50.7233 219C50.2753 219 50.0513 218.776 50.0513 218.328V218.216C49.8006 218.472 49.4726 218.667 49.0673 218.8C48.6619 218.933 48.1579 219 47.5553 219H46.9473ZM46.9473 217.656H47.5553C48.2593 217.656 48.8513 217.565 49.3313 217.384C49.8113 217.203 50.0513 216.925 50.0513 216.552V212.232H46.9473C46.2539 212.232 45.7819 212.36 45.5313 212.616C45.2806 212.867 45.1553 213.336 45.1553 214.024V215.864C45.1553 216.557 45.2806 217.029 45.5313 217.28C45.7873 217.531 46.2593 217.656 46.9473 217.656ZM55.5303 215.496V215.88C55.5303 216.568 55.6556 217.037 55.9063 217.288C56.1569 217.533 56.6289 217.656 57.3223 217.656H58.6343C59.1783 217.656 59.5809 217.605 59.8423 217.504C60.1036 217.403 60.2769 217.224 60.3623 216.968C60.4209 216.765 60.5009 216.611 60.6023 216.504C60.7089 216.397 60.8689 216.344 61.0823 216.344C61.3063 216.344 61.4769 216.403 61.5943 216.52C61.7116 216.637 61.7489 216.808 61.7063 217.032C61.5889 217.693 61.2743 218.187 60.7623 218.512C60.2503 218.837 59.5409 219 58.6343 219H57.3223C56.2609 219 55.4716 218.744 54.9543 218.232C54.4423 217.72 54.1863 216.936 54.1863 215.88V214.024C54.1863 212.941 54.4423 212.147 54.9543 211.64C55.4716 211.128 56.2609 210.877 57.3223 210.888H58.6343C59.7009 210.888 60.4903 211.144 61.0023 211.656C61.5143 212.163 61.7703 212.952 61.7703 214.024V214.824C61.7703 215.272 61.5463 215.496 61.0983 215.496H55.5303ZM57.3223 212.232C56.6289 212.221 56.1569 212.341 55.9063 212.592C55.6556 212.843 55.5303 213.32 55.5303 214.024V214.152H60.4263V214.024C60.4263 213.325 60.3009 212.853 60.0503 212.608C59.8049 212.357 59.3329 212.232 58.6343 212.232H57.3223ZM67.1269 219C66.3109 219 65.7029 218.8 65.3029 218.4C64.9082 217.995 64.7109 217.384 64.7109 216.568V208.408C64.7109 207.96 64.9349 207.736 65.3829 207.736C65.8309 207.736 66.0549 207.96 66.0549 208.408V216.568C66.0549 217 66.1242 217.291 66.2629 217.44C66.4069 217.584 66.6949 217.656 67.1269 217.656C67.5855 217.656 67.8149 217.88 67.8149 218.328C67.8309 218.776 67.6015 219 67.1269 219ZM70.5153 219C70.0886 219 69.8753 218.787 69.8753 218.36V217.96C69.8753 217.544 70.0886 217.336 70.5153 217.336H70.8993C71.3046 217.336 71.5073 217.544 71.5073 217.96V218.36C71.5073 218.787 71.3046 219 70.8993 219H70.5153ZM70.5153 213.72C70.0886 213.72 69.8753 213.507 69.8753 213.08V212.68C69.8753 212.264 70.0886 212.056 70.5153 212.056H70.8993C71.3046 212.056 71.5073 212.264 71.5073 212.68V213.08C71.5073 213.507 71.3046 213.72 70.8993 213.72H70.5153Z" fill="black"/>
<path d="M240.64 155.032C240.464 155.144 240.296 155.179 240.136 155.136C239.976 155.093 239.84 154.984 239.728 154.808L237.248 150.68H235.008V154.328C235.008 154.776 234.784 155 234.336 155C233.888 155 233.664 154.776 233.664 154.328V144.824C233.664 144.376 233.888 144.152 234.336 144.152H238.08C239.056 144.152 239.803 144.413 240.32 144.936C240.843 145.453 241.104 146.2 241.104 147.176V147.656C241.104 148.504 240.907 149.181 240.512 149.688C240.117 150.189 239.547 150.501 238.8 150.624L240.896 154.12C241.099 154.493 241.013 154.797 240.64 155.032ZM235.008 149.336H238.08C238.688 149.336 239.12 149.208 239.376 148.952C239.632 148.696 239.76 148.264 239.76 147.656V147.176C239.76 146.573 239.632 146.144 239.376 145.888C239.12 145.627 238.688 145.496 238.08 145.496H235.008V149.336ZM244.624 151.496V151.88C244.624 152.568 244.749 153.037 245 153.288C245.251 153.533 245.723 153.656 246.416 153.656H247.728C248.272 153.656 248.675 153.605 248.936 153.504C249.197 153.403 249.371 153.224 249.456 152.968C249.515 152.765 249.595 152.611 249.696 152.504C249.803 152.397 249.963 152.344 250.176 152.344C250.4 152.344 250.571 152.403 250.688 152.52C250.805 152.637 250.843 152.808 250.8 153.032C250.683 153.693 250.368 154.187 249.856 154.512C249.344 154.837 248.635 155 247.728 155H246.416C245.355 155 244.565 154.744 244.048 154.232C243.536 153.72 243.28 152.936 243.28 151.88V150.024C243.28 148.941 243.536 148.147 244.048 147.64C244.565 147.128 245.355 146.877 246.416 146.888H247.728C248.795 146.888 249.584 147.144 250.096 147.656C250.608 148.163 250.864 148.952 250.864 150.024V150.824C250.864 151.272 250.64 151.496 250.192 151.496H244.624ZM246.416 148.232C245.723 148.221 245.251 148.341 245 148.592C244.749 148.843 244.624 149.32 244.624 150.024V150.152H249.52V150.024C249.52 149.325 249.395 148.853 249.144 148.608C248.899 148.357 248.427 148.232 247.728 148.232H246.416ZM254.781 155C254.333 155 254.109 154.776 254.109 154.328V148.232H253.517C253.069 148.232 252.845 148.008 252.845 147.56C252.845 147.112 253.069 146.888 253.517 146.888H254.109V146.824C254.109 145.773 254.362 144.997 254.869 144.496C255.375 143.989 256.151 143.736 257.197 143.736C257.581 143.736 257.773 143.96 257.773 144.408C257.773 144.856 257.581 145.08 257.197 145.08C256.525 145.08 256.066 145.2 255.821 145.44C255.575 145.68 255.453 146.141 255.453 146.824V146.888H257.101C257.549 146.888 257.773 147.112 257.773 147.56C257.773 148.008 257.549 148.232 257.101 148.232H255.453V154.328C255.453 154.776 255.229 155 254.781 155ZM260.452 151.496V151.88C260.452 152.568 260.577 153.037 260.828 153.288C261.079 153.533 261.551 153.656 262.244 153.656H263.556C264.1 153.656 264.503 153.605 264.764 153.504C265.025 153.403 265.199 153.224 265.284 152.968C265.343 152.765 265.423 152.611 265.524 152.504C265.631 152.397 265.791 152.344 266.004 152.344C266.228 152.344 266.399 152.403 266.516 152.52C266.633 152.637 266.671 152.808 266.628 153.032C266.511 153.693 266.196 154.187 265.684 154.512C265.172 154.837 264.463 155 263.556 155H262.244C261.183 155 260.393 154.744 259.876 154.232C259.364 153.72 259.108 152.936 259.108 151.88V150.024C259.108 148.941 259.364 148.147 259.876 147.64C260.393 147.128 261.183 146.877 262.244 146.888H263.556C264.623 146.888 265.412 147.144 265.924 147.656C266.436 148.163 266.692 148.952 266.692 150.024V150.824C266.692 151.272 266.468 151.496 266.02 151.496H260.452ZM262.244 148.232C261.551 148.221 261.079 148.341 260.828 148.592C260.577 148.843 260.452 149.32 260.452 150.024V150.152H265.348V150.024C265.348 149.325 265.223 148.853 264.972 148.608C264.727 148.357 264.255 148.232 263.556 148.232H262.244ZM270.305 155C269.857 155 269.633 154.776 269.633 154.328V147.56C269.633 147.112 269.857 146.888 270.305 146.888C270.753 146.888 270.977 147.112 270.977 147.56V148.184C271.291 147.757 271.691 147.435 272.177 147.216C272.667 146.997 273.227 146.888 273.857 146.888C274.305 146.888 274.529 147.112 274.529 147.56C274.529 148.008 274.305 148.232 273.857 148.232C272.934 148.232 272.23 148.403 271.745 148.744C271.259 149.085 271.003 149.536 270.977 150.096V154.328C270.977 154.776 270.753 155 270.305 155ZM277.108 151.496V151.88C277.108 152.568 277.234 153.037 277.484 153.288C277.735 153.533 278.207 153.656 278.9 153.656H280.212C280.756 153.656 281.159 153.605 281.42 153.504C281.682 153.403 281.855 153.224 281.94 152.968C281.999 152.765 282.079 152.611 282.18 152.504C282.287 152.397 282.447 152.344 282.66 152.344C282.884 152.344 283.055 152.403 283.172 152.52C283.29 152.637 283.327 152.808 283.284 153.032C283.167 153.693 282.852 154.187 282.34 154.512C281.828 154.837 281.119 155 280.212 155H278.9C277.839 155 277.05 154.744 276.532 154.232C276.02 153.72 275.764 152.936 275.764 151.88V150.024C275.764 148.941 276.02 148.147 276.532 147.64C277.05 147.128 277.839 146.877 278.9 146.888H280.212C281.279 146.888 282.068 147.144 282.58 147.656C283.092 148.163 283.348 148.952 283.348 150.024V150.824C283.348 151.272 283.124 151.496 282.676 151.496H277.108ZM278.9 148.232C278.207 148.221 277.735 148.341 277.484 148.592C277.234 148.843 277.108 149.32 277.108 150.024V150.152H282.004V150.024C282.004 149.325 281.879 148.853 281.628 148.608C281.383 148.357 280.911 148.232 280.212 148.232H278.9ZM286.961 155C286.513 155 286.289 154.776 286.289 154.328V147.56C286.289 147.112 286.513 146.888 286.961 146.888C287.409 146.888 287.633 147.112 287.633 147.56V147.824C288.198 147.2 289.03 146.888 290.129 146.888H290.577C291.644 146.888 292.433 147.144 292.945 147.656C293.457 148.168 293.713 148.957 293.713 150.024V154.328C293.713 154.776 293.489 155 293.041 155C292.593 155 292.369 154.776 292.369 154.328V150.024C292.369 149.325 292.241 148.853 291.985 148.608C291.734 148.357 291.265 148.232 290.577 148.232H290.129C289.489 148.232 288.932 148.307 288.457 148.456C287.982 148.6 287.708 148.829 287.633 149.144V154.328C287.633 154.776 287.409 155 286.961 155ZM299.635 155C298.573 155 297.784 154.744 297.267 154.232C296.755 153.715 296.499 152.925 296.499 151.864V150.008C296.499 148.941 296.752 148.152 297.259 147.64C297.771 147.128 298.563 146.877 299.635 146.888H300.947C301.741 146.888 302.365 147.021 302.819 147.288C303.277 147.555 303.571 147.965 303.699 148.52C303.747 148.744 303.707 148.917 303.579 149.04C303.456 149.163 303.277 149.224 303.043 149.224C302.835 149.224 302.683 149.171 302.587 149.064C302.491 148.957 302.403 148.808 302.323 148.616C302.243 148.472 302.096 148.373 301.883 148.32C301.669 148.261 301.357 148.232 300.947 148.232H299.635C298.947 148.221 298.475 148.341 298.219 148.592C297.968 148.837 297.843 149.309 297.843 150.008V151.864C297.843 152.557 297.968 153.029 298.219 153.28C298.475 153.531 298.947 153.656 299.635 153.656H300.947C301.357 153.656 301.669 153.629 301.883 153.576C302.096 153.517 302.243 153.416 302.323 153.272C302.403 153.069 302.491 152.917 302.587 152.816C302.688 152.715 302.845 152.664 303.059 152.664C303.283 152.664 303.456 152.725 303.579 152.848C303.707 152.971 303.747 153.144 303.699 153.368C303.571 153.917 303.277 154.328 302.819 154.6C302.365 154.867 301.741 155 300.947 155H299.635ZM307.452 151.496V151.88C307.452 152.568 307.577 153.037 307.828 153.288C308.079 153.533 308.551 153.656 309.244 153.656H310.556C311.1 153.656 311.503 153.605 311.764 153.504C312.025 153.403 312.199 153.224 312.284 152.968C312.343 152.765 312.423 152.611 312.524 152.504C312.631 152.397 312.791 152.344 313.004 152.344C313.228 152.344 313.399 152.403 313.516 152.52C313.633 152.637 313.671 152.808 313.628 153.032C313.511 153.693 313.196 154.187 312.684 154.512C312.172 154.837 311.463 155 310.556 155H309.244C308.183 155 307.393 154.744 306.876 154.232C306.364 153.72 306.108 152.936 306.108 151.88V150.024C306.108 148.941 306.364 148.147 306.876 147.64C307.393 147.128 308.183 146.877 309.244 146.888H310.556C311.623 146.888 312.412 147.144 312.924 147.656C313.436 148.163 313.692 148.952 313.692 150.024V150.824C313.692 151.272 313.468 151.496 313.02 151.496H307.452ZM309.244 148.232C308.551 148.221 308.079 148.341 307.828 148.592C307.577 148.843 307.452 149.32 307.452 150.024V150.152H312.348V150.024C312.348 149.325 312.223 148.853 311.972 148.608C311.727 148.357 311.255 148.232 310.556 148.232H309.244ZM316.953 155C316.526 155 316.313 154.787 316.313 154.36V153.96C316.313 153.544 316.526 153.336 316.953 153.336H317.337C317.742 153.336 317.945 153.544 317.945 153.96V154.36C317.945 154.787 317.742 155 317.337 155H316.953ZM316.953 149.72C316.526 149.72 316.313 149.507 316.313 149.08V148.68C316.313 148.264 316.526 148.056 316.953 148.056H317.337C317.742 148.056 317.945 148.264 317.945 148.68V149.08C317.945 149.507 317.742 149.72 317.337 149.72H316.953Z" fill="black"/>
<path d="M236.864 220C235.643 220 234.739 219.709 234.152 219.128C233.571 218.541 233.28 217.637 233.28 216.416V212.736C233.28 211.504 233.571 210.597 234.152 210.016C234.733 209.429 235.632 209.141 236.848 209.152H238.784C239.787 209.152 240.552 209.36 241.08 209.776C241.608 210.187 241.915 210.837 242 211.728C242.032 211.952 241.989 212.123 241.872 212.24C241.755 212.357 241.584 212.416 241.36 212.416C240.955 212.416 240.72 212.192 240.656 211.744C240.603 211.253 240.432 210.923 240.144 210.752C239.861 210.581 239.408 210.496 238.784 210.496H236.848C236.283 210.491 235.837 210.555 235.512 210.688C235.192 210.821 234.963 211.053 234.824 211.384C234.691 211.709 234.624 212.16 234.624 212.736V216.416C234.624 216.987 234.691 217.435 234.824 217.76C234.963 218.085 235.195 218.317 235.52 218.456C235.845 218.589 236.293 218.656 236.864 218.656H238.784C239.408 218.656 239.861 218.571 240.144 218.4C240.432 218.224 240.603 217.893 240.656 217.408C240.72 216.96 240.955 216.736 241.36 216.736C241.584 216.736 241.755 216.795 241.872 216.912C241.989 217.029 242.032 217.2 242 217.424C241.915 218.32 241.608 218.973 241.08 219.384C240.552 219.795 239.787 220 238.784 220H236.864ZM246.916 220C245.855 220 245.065 219.744 244.548 219.232C244.036 218.72 243.78 217.936 243.78 216.88V215.024C243.78 213.952 244.036 213.163 244.548 212.656C245.065 212.144 245.855 211.888 246.916 211.888H248.228C249.295 211.888 250.084 212.144 250.596 212.656C251.108 213.168 251.364 213.957 251.364 215.024V216.864C251.364 217.925 251.108 218.715 250.596 219.232C250.084 219.744 249.295 220 248.228 220H246.916ZM245.124 216.88C245.124 217.568 245.249 218.037 245.5 218.288C245.751 218.533 246.223 218.656 246.916 218.656H248.228C248.927 218.656 249.399 218.531 249.644 218.28C249.895 218.029 250.02 217.557 250.02 216.864V215.024C250.02 214.325 249.895 213.853 249.644 213.608C249.399 213.357 248.927 213.232 248.228 213.232H246.916C246.452 213.232 246.089 213.285 245.828 213.392C245.572 213.493 245.391 213.675 245.284 213.936C245.177 214.192 245.124 214.555 245.124 215.024V216.88ZM256.721 220C255.905 220 255.297 219.8 254.897 219.4C254.502 218.995 254.305 218.384 254.305 217.568V209.408C254.305 208.96 254.529 208.736 254.977 208.736C255.425 208.736 255.649 208.96 255.649 209.408V217.568C255.649 218 255.718 218.291 255.857 218.44C256.001 218.584 256.289 218.656 256.721 218.656C257.179 218.656 257.409 218.88 257.409 219.328C257.425 219.776 257.195 220 256.721 220ZM262.229 220C261.167 220 260.378 219.744 259.861 219.232C259.349 218.72 259.093 217.936 259.093 216.88V215.024C259.093 213.952 259.349 213.163 259.861 212.656C260.378 212.144 261.167 211.888 262.229 211.888H263.541C264.607 211.888 265.397 212.144 265.909 212.656C266.421 213.168 266.677 213.957 266.677 215.024V216.864C266.677 217.925 266.421 218.715 265.909 219.232C265.397 219.744 264.607 220 263.541 220H262.229ZM260.437 216.88C260.437 217.568 260.562 218.037 260.813 218.288C261.063 218.533 261.535 218.656 262.229 218.656H263.541C264.239 218.656 264.711 218.531 264.957 218.28C265.207 218.029 265.333 217.557 265.333 216.864V215.024C265.333 214.325 265.207 213.853 264.957 213.608C264.711 213.357 264.239 213.232 263.541 213.232H262.229C261.765 213.232 261.402 213.285 261.141 213.392C260.885 213.493 260.703 213.675 260.597 213.936C260.49 214.192 260.437 214.555 260.437 215.024V216.88ZM270.289 220C269.841 220 269.617 219.776 269.617 219.328V212.56C269.617 212.112 269.841 211.888 270.289 211.888C270.737 211.888 270.961 212.112 270.961 212.56V213.184C271.276 212.757 271.676 212.435 272.161 212.216C272.652 211.997 273.212 211.888 273.841 211.888C274.289 211.888 274.513 212.112 274.513 212.56C274.513 213.008 274.289 213.232 273.841 213.232C272.918 213.232 272.214 213.403 271.729 213.744C271.244 214.085 270.988 214.536 270.961 215.096V219.328C270.961 219.776 270.737 220 270.289 220ZM276.765 220C276.339 220 276.125 219.787 276.125 219.36V218.96C276.125 218.544 276.339 218.336 276.765 218.336H277.149C277.555 218.336 277.757 218.544 277.757 218.96V219.36C277.757 219.787 277.555 220 277.149 220H276.765ZM276.765 214.72C276.339 214.72 276.125 214.507 276.125 214.08V213.68C276.125 213.264 276.339 213.056 276.765 213.056H277.149C277.555 213.056 277.757 213.264 277.757 213.68V214.08C277.757 214.507 277.555 214.72 277.149 214.72H276.765Z" fill="black"/>
<rect x="1" y="1" width="418" height="698" rx="19" stroke="#FFD500" stroke-width="2"/>
</svg>
