<svg width="50" height="50" viewBox="0 0 50 50" fill="none" xmlns="http://www.w3.org/2000/svg">
<circle cx="25" cy="25" r="24" fill="#626262" stroke="#FFD500" stroke-width="2"/>
<path d="M42.4042 31.9875C38.9942 33.3587 35.2565 33.6976 31.6555 32.9619C28.0546 32.2262 24.7492 30.4485 22.1504 27.8496C19.5515 25.2508 17.7738 21.9454 17.0381 18.3445C16.3024 14.7435 16.6413 11.0058 18.0125 7.59583C13.9744 9.22235 10.6278 12.2029 8.54652 16.0265C6.46519 19.8501 5.77874 24.2786 6.60482 28.5529C7.43091 32.8272 9.71809 36.681 13.0743 39.4537C16.4305 42.2264 20.6466 43.7453 25 43.75C28.7436 43.7501 32.4016 42.63 35.5032 40.5337C38.6049 38.4375 41.0083 35.4611 42.4042 31.9875Z" stroke="white" stroke-width="2" stroke-linecap="round" stroke-linejoin="round"/>
</svg>
