<svg width="68" height="68" viewBox="0 0 68 68" fill="none" xmlns="http://www.w3.org/2000/svg">
<circle cx="34" cy="34" r="34" fill="#FFD500"/>
<path fill-rule="evenodd" clip-rule="evenodd" d="M36.042 43.9165C35.6952 43.6071 35.5004 43.1875 35.5004 42.75C35.5004 42.3125 35.6952 41.8929 36.042 41.5834L43.9841 34.5L36.042 27.4165C35.8654 27.2643 35.7244 27.0823 35.6275 26.881C35.5305 26.6796 35.4795 26.4631 35.4773 26.244C35.4752 26.025 35.522 25.8077 35.615 25.6049C35.708 25.4021 35.8454 25.2179 36.0191 25.063C36.1928 24.9081 36.3994 24.7855 36.6267 24.7026C36.8541 24.6196 37.0977 24.5779 37.3433 24.5798C37.589 24.5817 37.8317 24.6272 38.0574 24.7137C38.2832 24.8001 38.4873 24.9258 38.6579 25.0834L47.9079 33.3334C48.2548 33.6429 48.4496 34.0625 48.4496 34.5C48.4496 34.9375 48.2548 35.3571 47.9079 35.6665L38.6579 43.9165C38.311 44.2259 37.8406 44.3996 37.35 44.3996C36.8594 44.3996 36.389 44.2259 36.042 43.9165Z" fill="black"/>
<path fill-rule="evenodd" clip-rule="evenodd" d="M24.942 43.9165C24.5952 43.6071 24.4004 43.1875 24.4004 42.75C24.4004 42.3125 24.5952 41.8929 24.942 41.5834L32.8841 34.5L24.942 27.4165C24.6051 27.1054 24.4186 26.6886 24.4228 26.2559C24.427 25.8233 24.6216 25.4095 24.9646 25.1035C25.3076 24.7976 25.7716 24.6241 26.2567 24.6203C26.7417 24.6166 27.209 24.7829 27.5579 25.0834L36.8079 33.3334C37.1548 33.6429 37.3496 34.0625 37.3496 34.5C37.3496 34.9375 37.1548 35.3571 36.8079 35.6665L27.5579 43.9165C27.211 44.2259 26.7405 44.3996 26.25 44.3996C25.7594 44.3996 25.289 44.2259 24.942 43.9165V43.9165Z" fill="black"/>
</svg>
