<svg width="34" height="68" viewBox="0 0 34 68" fill="none" xmlns="http://www.w3.org/2000/svg">
<path d="M33.5 34V34.11V34.2199V34.3297V34.4394V34.5491V34.6587V34.7682V34.8776V34.9869V35.0961V35.2052V35.3143V35.4233V35.5321V35.6409V35.7496V35.8582V35.9668V36.0752V36.1835V36.2918V36.3999V36.508V36.616V36.7239V36.8316V36.9393V37.0469V37.1544V37.2618V37.3691V37.4763V37.5834V37.6904V37.7973V37.9041V38.0108V38.1174V38.2239V38.3304V38.4367V38.5429V38.649V38.7549V38.8608V38.9666V39.0723V39.1779V39.2833V39.3887V39.4939V39.5991V39.7041V39.809V39.9139V40.0186V40.1232V40.2276V40.332V40.4363V40.5404V40.6445V40.7484V40.8522V40.9559V41.0595V41.1629V41.2663V41.3695V41.4726V41.5756V41.6785V41.7812V41.8839V41.9864V42.0888V42.191V42.2932V42.3952V42.4971V42.5989V42.7006V42.8021V42.9035V43.0048V43.106V43.207V43.3079V43.4087V43.5094V43.6099V43.7103V43.8105V43.9107V44.0107V44.1106V44.2103V44.3099V44.4094V44.5087V44.608V44.707V44.806V44.9048V45.0035V45.102V45.2004V45.2987V45.3968V45.4948V45.5926V45.6903V45.7879V45.8853V45.9826V46.0798V46.1768V46.2736V46.3704V46.4669V46.5634V46.6597V46.7558V46.8518V46.9477V47.0434V47.1389V47.2343V47.3296V47.4247V47.5197V47.6145V47.7092V47.8037V47.898V47.9922V48.0863V48.1802V48.274V48.3676V48.461V48.5543V48.6474V48.7404V48.8332V48.9259V49.0184V49.1107V49.2029V49.295V49.3868V49.4786V49.5701V49.6615V49.7527V49.8438V49.9347V50.0254V50.116V50.2064V50.2967V50.3867V50.4767V50.5664V50.656V50.7454V50.8347V50.9237V51.0126V51.1014V51.19V51.2784V51.3666V51.4546V51.5425V51.6302V51.7178V51.8051V51.8923V51.9793V52.0662V52.1529V52.2393V52.3257V52.4118V52.4977V52.5835V52.6691V52.7545V52.8398V52.9248V53.0097V53.0944V53.1789V53.2633V53.3474V53.4314V53.5152V53.5988V53.6822V53.7654V53.8484V53.9313V54.014V54.0964V54.1787V54.2608V54.3427V54.4245V54.506V54.5873V54.6685V54.7494V54.8302V54.9108V54.9912V55.0713V55.1513V55.2311V55.3107V55.3901V55.4693V55.5483V55.6272V55.7058V55.7842V55.8624V55.9404V56.0182V56.0958V56.1733V56.2505V56.3275V56.4043V56.4809V56.5573V56.6335V56.7095V56.7853V56.8608V56.9362V57.0114V57.0863V57.1611V57.2356V57.3099V57.3841V57.458V57.5317V57.6052V57.6784V57.7515V57.8244V57.897V57.9694V58.0416V58.1136V58.1854V58.257V58.3283V58.3994V58.4704V58.5411V58.6115V58.6818V58.7518V58.8216V58.8912V58.9606V59.0298V59.0987V59.1674V59.2359V59.3042V59.3722V59.44V59.5076V59.575V59.6421V59.709V59.7757V59.8421V59.9084V59.9744V60.0401V60.1057V60.171V60.2361V60.3009V60.3655V60.4299V60.494V60.5579V60.6216V60.6851V60.7483V60.8112V60.874V60.9365V60.9987V61.0608V61.1226V61.1841V61.2454V61.3065V61.3673V61.4279V61.4882V61.5483V61.6082V61.6678V61.7272V61.7863V61.8452V61.9038V61.9622V62.0204V62.0783V62.1359V62.1933V62.2505V62.3074V62.3641V62.4205V62.4766V62.5325V62.5882V62.6436V62.6987V62.7537V62.8083V62.8627V62.9168V62.9707V63.0243V63.0777V63.1308V63.1837V63.2363V63.2886V63.3407V63.3925V63.4441V63.4954V63.5464V63.5972V63.6477V63.698V63.748V63.7977V63.8472V63.8964V63.9453V63.994V64.0424V64.0905V64.1384V64.186V64.2334V64.2804V64.3272V64.3737V64.42V64.466V64.5117V64.5572V64.6023V64.6472V64.6919V64.7362V64.7803V64.8241V64.8676V64.9109V64.9538V64.9966V65.039V65.0811V65.123V65.1646V65.2059V65.2469V65.2876V65.3281V65.3683V65.4082V65.4478V65.4872V65.5262V65.565V65.6034V65.6416V65.6796V65.7172V65.7545V65.7916V65.8283V65.8648V65.901V65.9369V65.9725V66.0078V66.0428V66.0776V66.112V66.1462V66.18V66.2136V66.2468V66.2798V66.3125V66.3449V66.377V66.4087V66.4402V66.4714V66.5023V66.5329V66.5632V66.5932V66.6229V66.6523V66.6814V66.7102V66.7387V66.7669V66.7947V66.8223V66.8496V66.8766V66.9032V66.9296V66.9556V66.9814V67.0068V67.0319V67.0568V67.0813V67.1055V67.1294V67.1529V67.1762V67.1992V67.2218V67.2441V67.2662V67.2878V67.3092V67.3303V67.3511V67.3715V67.3916V67.4114V67.4309V67.4501V67.469V67.4875V67.4963C15.229 67.229 0.5 52.3346 0.5 34C0.5 15.6654 15.229 0.770972 33.5 0.503655V0.51251V0.531043V0.549896V0.569067V0.588557V0.608364V0.628489V0.64893V0.669687V0.690759V0.712147V0.733849V0.755865V0.778195V0.800837V0.823792V0.847059V0.870637V0.894526V0.918726V0.943235V0.968053V0.993181V1.01862V1.04436V1.07041V1.09677V1.12343V1.1504V1.17767V1.20525V1.23314V1.26132V1.28981V1.3186V1.3477V1.37709V1.40679V1.43679V1.46708V1.49768V1.52857V1.55977V1.59126V1.62305V1.65513V1.68751V1.72019V1.75316V1.78643V1.81999V1.85384V1.88799V1.92243V1.95717V1.99219V2.02751V2.06311V2.09901V2.13519V2.17167V2.20843V2.24548V2.28282V2.32044V2.35835V2.39655V2.43503V2.4738V2.51285V2.55219V2.5918V2.63171V2.67189V2.71235V2.7531V2.79413V2.83543V2.87702V2.91888V2.96103V3.00345V3.04615V3.08912V3.13238V3.17591V3.21971V3.26379V3.30814V3.35277V3.39767V3.44284V3.48829V3.534V3.57999V3.62625V3.67278V3.71958V3.76665V3.81399V3.86159V3.90946V3.9576V4.00601V4.05468V4.10362V4.15282V4.20229V4.25202V4.30201V4.35227V4.40279V4.45357V4.50461V4.55591V4.60748V4.6593V4.71138V4.76372V4.81632V4.86918V4.92229V4.97567V5.02929V5.08317V5.13731V5.1917V5.24635V5.30125V5.3564V5.41181V5.46746V5.52337V5.57953V5.63594V5.6926V5.74951V5.80667V5.86407V5.92173V5.97963V6.03777V6.09617V6.15481V6.21369V6.27282V6.33219V6.39181V6.45167V6.51177V6.57212V6.6327V6.69353V6.7546V6.8159V6.87745V6.93924V7.00126V7.06352V7.12602V7.18876V7.25173V7.31494V7.37838V7.44206V7.50597V7.57011V7.63449V7.6991V7.76395V7.82902V7.89433V7.95987V8.02563V8.09163V8.15785V8.22431V8.29099V8.3579V8.42503V8.4924V8.55998V8.6278V8.69584V8.7641V8.83258V8.90129V8.97023V9.03938V9.10876V9.17835V9.24817V9.31821V9.38847V9.45894V9.52964V9.60055V9.67168V9.74303V9.81459V9.88637V9.95837V10.0306V10.103V10.1756V10.2485V10.3216V10.3948V10.4683V10.542V10.6159V10.6901V10.7644V10.8389V10.9137V10.9886V11.0638V11.1392V11.2147V11.2905V11.3665V11.4427V11.5191V11.5957V11.6725V11.7495V11.8267V11.9042V11.9818V12.0596V12.1376V12.2158V12.2942V12.3728V12.4517V12.5307V12.6099V12.6893V12.7689V12.8487V12.9287V13.0088V13.0892V13.1698V13.2506V13.3315V13.4127V13.494V13.5755V13.6573V13.7392V13.8213V13.9036V13.986V14.0687V14.1516V14.2346V14.3178V14.4012V14.4848V14.5686V14.6526V14.7367V14.8211V14.9056V14.9903V15.0752V15.1602V15.2455V15.3309V15.4165V15.5023V15.5882V15.6743V15.7607V15.8471V15.9338V16.0207V16.1077V16.1949V16.2822V16.3698V16.4575V16.5454V16.6334V16.7216V16.81V16.8986V16.9874V17.0763V17.1653V17.2546V17.344V17.4336V17.5233V17.6133V17.7033V17.7936V17.884V17.9746V18.0653V18.1562V18.2473V18.3385V18.4299V18.5214V18.6132V18.705V18.7971V18.8893V18.9816V19.0741V19.1668V19.2596V19.3526V19.4457V19.539V19.6324V19.726V19.8198V19.9137V20.0078V20.102V20.1963V20.2908V20.3855V20.4803V20.5753V20.6704V20.7657V20.8611V20.9566V21.0523V21.1482V21.2442V21.3403V21.4366V21.5331V21.6296V21.7264V21.8232V21.9202V22.0174V22.1147V22.2121V22.3097V22.4074V22.5052V22.6032V22.7013V22.7996V22.898V22.9965V23.0952V23.194V23.293V23.392V23.4913V23.5906V23.6901V23.7897V23.8894V23.9893V24.0893V24.1895V24.2897V24.3901V24.4906V24.5913V24.6921V24.793V24.894V24.9952V25.0965V25.1979V25.2994V25.4011V25.5029V25.6048V25.7068V25.809V25.9112V26.0136V26.1161V26.2188V26.3215V26.4244V26.5274V26.6305V26.7337V26.8371V26.9405V27.0441V27.1478V27.2516V27.3555V27.4596V27.5637V27.668V27.7724V27.8768V27.9814V28.0861V28.191V28.2959V28.4009V28.5061V28.6113V28.7167V28.8221V28.9277V29.0334V29.1392V29.2451V29.351V29.4571V29.5633V29.6696V29.776V29.8826V29.9892V30.0959V30.2027V30.3096V30.4166V30.5237V30.6309V30.7382V30.8456V30.9531V31.0607V31.1684V31.2762V31.384V31.492V31.6001V31.7082V31.8165V31.9248V32.0332V32.1418V32.2504V32.3591V32.4679V32.5767V32.6857V32.7948V32.9039V33.0131V33.1224V33.2318V33.3413V33.4509V33.5606V33.6703V33.7801V33.89V34Z" fill="#FFD500" fill-opacity="0.6" stroke="#FFD500"/>
<path d="M26 34H8M22 30L26 34L22 30ZM26 34L22 38L26 34Z" stroke="black" stroke-width="2" stroke-linecap="round" stroke-linejoin="round"/>
</svg>
