<svg width="50" height="50" viewBox="0 0 50 50" fill="none" xmlns="http://www.w3.org/2000/svg">
<circle cx="25" cy="25" r="24" fill="white" stroke="#FFD500" stroke-width="2"/>
<path d="M20.1312 35.4167H29.8667H20.1312ZM25 6.25V8.33333V6.25ZM38.2583 11.7417L36.7854 13.2146L38.2583 11.7417ZM43.75 25H41.6667H43.75ZM8.33333 25H6.25H8.33333ZM13.2146 13.2146L11.7417 11.7417L13.2146 13.2146ZM17.6333 32.3667C16.1768 30.9098 15.185 29.0537 14.7833 27.0331C14.3816 25.0126 14.588 22.9183 15.3765 21.015C16.165 19.1118 17.5001 17.4851 19.2131 16.3406C20.926 15.1961 22.9399 14.5853 25 14.5853C27.0601 14.5853 29.074 15.1961 30.7869 16.3406C32.4999 17.4851 33.835 19.1118 34.6235 21.015C35.412 22.9183 35.6184 25.0126 35.2167 27.0331C34.815 29.0537 33.8232 30.9098 32.3667 32.3667L31.225 33.5062C30.5723 34.1591 30.0546 34.934 29.7014 35.7869C29.3483 36.6398 29.1665 37.554 29.1667 38.4771V39.5833C29.1667 40.6884 28.7277 41.7482 27.9463 42.5296C27.1649 43.311 26.1051 43.75 25 43.75C23.8949 43.75 22.8351 43.311 22.0537 42.5296C21.2723 41.7482 20.8333 40.6884 20.8333 39.5833V38.4771C20.8333 36.6125 20.0917 34.8229 18.775 33.5062L17.6333 32.3667Z" stroke="black" stroke-width="2" stroke-linecap="round" stroke-linejoin="round"/>
</svg>
