<svg width="68" height="68" viewBox="0 0 68 68" fill="none" xmlns="http://www.w3.org/2000/svg">
<circle cx="34" cy="34" r="34" fill="#FFD500"/>
<path fill-rule="evenodd" clip-rule="evenodd" d="M44.0579 43.9165C43.711 44.2259 43.2405 44.3996 42.75 44.3996C42.2594 44.3996 41.789 44.2259 41.442 43.9165L32.192 35.6665C31.8452 35.3571 31.6504 34.9375 31.6504 34.5C31.6504 34.0625 31.8452 33.6429 32.192 33.3334L41.442 25.0834C41.6127 24.9258 41.8168 24.8001 42.0425 24.7137C42.2682 24.6272 42.511 24.5817 42.7566 24.5798C43.0023 24.5779 43.2459 24.6196 43.4733 24.7026C43.7006 24.7855 43.9072 24.9081 44.0809 25.063C44.2546 25.2179 44.3919 25.4021 44.485 25.6049C44.578 25.8077 44.6248 26.025 44.6227 26.244C44.6205 26.4631 44.5695 26.6796 44.4725 26.881C44.3756 27.0823 44.2346 27.2643 44.0579 27.4165L36.1159 34.5L44.0579 41.5834C44.4048 41.8929 44.5996 42.3125 44.5996 42.75C44.5996 43.1875 44.4048 43.6071 44.0579 43.9165V43.9165ZM32.9579 43.9165C32.611 44.2259 32.1405 44.3996 31.65 44.3996C31.1594 44.3996 30.689 44.2259 30.342 43.9165L21.092 35.6665C20.7452 35.3571 20.5504 34.9375 20.5504 34.5C20.5504 34.0625 20.7452 33.6429 21.092 33.3334L30.342 25.0834C30.691 24.7829 31.1583 24.6166 31.6433 24.6203C32.1284 24.6241 32.5924 24.7976 32.9354 25.1035C33.2784 25.4095 33.473 25.8233 33.4772 26.2559C33.4814 26.6886 33.2949 27.1053 32.9579 27.4165L25.0159 34.5L32.9579 41.5834C33.3048 41.8929 33.4996 42.3125 33.4996 42.75C33.4996 43.1875 33.3048 43.6071 32.9579 43.9165V43.9165Z" fill="black"/>
</svg>
