<svg width="68" height="68" viewBox="0 0 68 68" fill="none" xmlns="http://www.w3.org/2000/svg">
<circle cx="34" cy="34" r="34" fill="#FFD500"/>
<path d="M41.568 31.712L32.7763 25.849C32.3617 25.5724 31.8798 25.4137 31.3821 25.3898C30.8843 25.3658 30.3894 25.4776 29.9502 25.7132C29.5111 25.9487 29.1442 26.2991 28.8887 26.727C28.6333 27.1549 28.4989 27.6442 28.5 28.1425V39.8658C28.4999 40.3636 28.635 40.8522 28.8909 41.2793C29.1467 41.7064 29.5137 42.056 29.9527 42.2909C30.3916 42.5258 30.8861 42.6371 31.3834 42.6129C31.8807 42.5888 32.3621 42.4301 32.7763 42.1538L41.568 36.2908C41.9446 36.0396 42.2534 35.6994 42.467 35.3003C42.6806 34.9011 42.7924 34.4555 42.7924 34.0028C42.7924 33.5501 42.6806 33.1044 42.467 32.7053C42.2534 32.3061 41.9446 31.9659 41.568 31.7148V31.712Z" stroke="black" stroke-width="2" stroke-linecap="round" stroke-linejoin="round"/>
<path d="M58.75 34C58.75 37.2502 58.1098 40.4686 56.866 43.4714C55.6222 46.4742 53.7991 49.2026 51.5009 51.5009C49.2026 53.7991 46.4742 55.6222 43.4714 56.866C40.4686 58.1098 37.2502 58.75 34 58.75C30.7498 58.75 27.5314 58.1098 24.5286 56.866C21.5258 55.6222 18.7974 53.7991 16.4991 51.5009C14.2009 49.2026 12.3778 46.4742 11.134 43.4714C9.89018 40.4686 9.25 37.2502 9.25 34C9.25 27.4359 11.8576 21.1406 16.4991 16.4991C21.1406 11.8576 27.4359 9.25 34 9.25C40.5641 9.25 46.8594 11.8576 51.5009 16.4991C56.1424 21.1406 58.75 27.4359 58.75 34Z" stroke="black" stroke-width="2" stroke-linecap="round" stroke-linejoin="round"/>
</svg>
