<svg width="68" height="68" viewBox="0 0 68 68" fill="none" xmlns="http://www.w3.org/2000/svg">
<circle cx="34" cy="34" r="34" fill="#FFD500"/>
<path d="M28.5 25.75V42.25V25.75ZM39.5 25.75V42.25V25.75ZM58.75 34C58.75 37.2502 58.1098 40.4686 56.866 43.4714C55.6222 46.4742 53.7991 49.2026 51.5009 51.5009C49.2026 53.7991 46.4742 55.6222 43.4714 56.866C40.4686 58.1098 37.2502 58.75 34 58.75C30.7498 58.75 27.5314 58.1098 24.5286 56.866C21.5258 55.6222 18.7974 53.7991 16.4991 51.5009C14.2009 49.2026 12.3778 46.4742 11.134 43.4714C9.89018 40.4686 9.25 37.2502 9.25 34C9.25 27.4359 11.8576 21.1406 16.4991 16.4991C21.1406 11.8576 27.4359 9.25 34 9.25C40.5641 9.25 46.8594 11.8576 51.5009 16.4991C56.1424 21.1406 58.75 27.4359 58.75 34Z" stroke="black" stroke-width="2" stroke-linecap="round" stroke-linejoin="round"/>
</svg>
