<svg width="760" height="280" viewBox="0 0 760 280" fill="none" xmlns="http://www.w3.org/2000/svg">
<rect y="240" width="380" height="40" fill="#843939"/>
<rect x="341" y="200" width="8" height="40" fill="#C4BD28"/>
<rect x="18" y="200" width="8" height="40" fill="#C4BD28"/>
<rect x="363" y="200" width="8" height="40" fill="#C4BD28"/>
<rect x="320" y="200" width="8" height="40" fill="#C4BD28"/>
<rect x="296" y="200" width="8" height="40" fill="#C4BD28"/>
<rect x="272" y="200" width="8" height="40" fill="#C4BD28"/>
<rect x="247" y="200" width="8" height="40" fill="#C4BD28"/>
<rect x="222" y="200" width="8" height="40" fill="#C4BD28"/>
<rect x="200" y="200" width="8" height="40" fill="#C4BD28"/>
<rect x="176" y="200" width="8" height="40" fill="#C4BD28"/>
<rect x="152" y="200" width="8" height="40" fill="#C4BD28"/>
<rect x="130" y="200" width="8" height="40" fill="#C4BD28"/>
<rect x="40" y="200" width="8" height="40" fill="#C4BD28"/>
<rect x="109" y="200" width="8" height="40" fill="#C4BD28"/>
<rect x="85" y="200" width="8" height="40" fill="#C4BD28"/>
<rect x="61" y="200" width="8" height="40" fill="#C4BD28"/>
<line x1="1" y1="218.5" x2="381" y2="218.5" stroke="#C4BD28" stroke-width="3"/>
<line x1="0.996073" y1="208.5" x2="382.996" y2="207.5" stroke="#C4BD28" stroke-width="3"/>
<rect x="380" y="240" width="380" height="40" fill="#843939"/>
<rect x="721" y="200" width="8" height="40" fill="#C4BD28"/>
<rect x="398" y="200" width="8" height="40" fill="#C4BD28"/>
<rect x="380" y="200" width="8" height="40" fill="#C4BD28"/>
<rect x="743" y="200" width="8" height="40" fill="#C4BD28"/>
<rect x="700" y="200" width="8" height="40" fill="#C4BD28"/>
<rect x="676" y="200" width="8" height="40" fill="#C4BD28"/>
<rect x="652" y="200" width="8" height="40" fill="#C4BD28"/>
<rect x="627" y="200" width="8" height="40" fill="#C4BD28"/>
<rect x="602" y="200" width="8" height="40" fill="#C4BD28"/>
<rect x="580" y="200" width="8" height="40" fill="#C4BD28"/>
<rect x="556" y="200" width="8" height="40" fill="#C4BD28"/>
<rect x="532" y="200" width="8" height="40" fill="#C4BD28"/>
<rect x="510" y="200" width="8" height="40" fill="#C4BD28"/>
<rect x="420" y="200" width="8" height="40" fill="#C4BD28"/>
<rect x="489" y="200" width="8" height="40" fill="#C4BD28"/>
<rect x="465" y="200" width="8" height="40" fill="#C4BD28"/>
<rect x="441" y="200" width="8" height="40" fill="#C4BD28"/>
<line x1="380" y1="218.5" x2="760" y2="218.5" stroke="#C4BD28" stroke-width="3"/>
<line x1="379.996" y1="207.5" x2="759.996" y2="206.5" stroke="#C4BD28" stroke-width="3"/>
<line x1="26" y1="257.5" x2="89" y2="257.5" stroke="#8E8E8E" stroke-width="5"/>
<line x1="392" y1="257.5" x2="455" y2="257.5" stroke="#8E8E8E" stroke-width="5"/>
<line x1="641" y1="257.5" x2="704" y2="257.5" stroke="#8E8E8E" stroke-width="5"/>
<line x1="517" y1="257.5" x2="580" y2="257.5" stroke="#8E8E8E" stroke-width="5"/>
<line x1="265" y1="257.5" x2="328" y2="257.5" stroke="#8E8E8E" stroke-width="5"/>
<line x1="156" y1="257.5" x2="219" y2="257.5" stroke="#8E8E8E" stroke-width="5"/>
</svg>
