<svg width="760" height="280" viewBox="0 0 760 280" fill="none" xmlns="http://www.w3.org/2000/svg">
<rect width="380" height="280" fill="url(#paint0_linear_65_104)"/>
<circle cx="47" cy="52" r="23" fill="#696596"/>
<circle cx="72" cy="23" r="23" fill="#696596"/>
<circle cx="24" cy="46" r="23" fill="#696596"/>
<circle cx="36" cy="29" r="23" fill="#696596"/>
<circle cx="70" cy="44" r="23" fill="#696596"/>
<circle cx="89" cy="39" r="23" fill="#696596"/>
<circle cx="270" cy="91" r="23" fill="#696596"/>
<circle cx="295" cy="62" r="23" fill="#696596"/>
<circle cx="244" cy="85" r="23" fill="#696596"/>
<circle cx="259" cy="68" r="23" fill="#696596"/>
<circle cx="293" cy="83" r="23" fill="#696596"/>
<circle cx="312" cy="78" r="23" fill="#696596"/>
<rect x="380" width="380" height="280" fill="url(#paint1_linear_65_104)"/>
<circle cx="427" cy="52" r="23" fill="#696596"/>
<circle cx="452" cy="23" r="23" fill="#696596"/>
<circle cx="401" cy="46" r="23" fill="#696596"/>
<circle cx="416" cy="29" r="23" fill="#696596"/>
<circle cx="450" cy="44" r="23" fill="#696596"/>
<circle cx="469" cy="39" r="23" fill="#696596"/>
<circle cx="650" cy="91" r="23" fill="#696596"/>
<circle cx="675" cy="62" r="23" fill="#696596"/>
<circle cx="624" cy="85" r="23" fill="#696596"/>
<circle cx="639" cy="68" r="23" fill="#696596"/>
<circle cx="673" cy="83" r="23" fill="#696596"/>
<circle cx="692" cy="78" r="23" fill="#696596"/>
<path d="M195 39.2L196 38L197 39.2L196 41L195 39.2Z" fill="white"/>
<path d="M342 50.2L343 49L344 50.2L343 52L342 50.2Z" fill="white"/>
<path d="M170 91.2L171 90L172 91.2L171 93L170 91.2Z" fill="white"/>
<path d="M352 99.2L353 98L354 99.2L353 101L352 99.2Z" fill="white"/>
<path d="M34 119.2L35 118L36 119.2L35 121L34 119.2Z" fill="white"/>
<path d="M392 86.2L393 85L394 86.2L393 88L392 86.2Z" fill="white"/>
<path d="M385 105.2L386 104L387 105.2L386 107L385 105.2Z" fill="white"/>
<path d="M429 97.2L430 96L431 97.2L430 99L429 97.2Z" fill="white"/>
<path d="M467 78.2L468 77L469 78.2L468 80L467 78.2Z" fill="white"/>
<path d="M430 135.2L431 134L432 135.2L431 137L430 135.2Z" fill="white"/>
<path d="M129 117.2L130 116L131 117.2L130 119L129 117.2Z" fill="white"/>
<path d="M365 128.2L366 127L367 128.2L366 130L365 128.2Z" fill="white"/>
<path d="M479 102.2L480 101L481 102.2L480 104L479 102.2Z" fill="white"/>
<path d="M294 24.2L295 23L296 24.2L295 26L294 24.2Z" fill="white"/>
<path d="M486 119.2L487 118L488 119.2L487 121L486 119.2Z" fill="white"/>
<path d="M527 57.2L528 56L529 57.2L528 59L527 57.2Z" fill="white"/>
<path d="M517 91.2L518 90L519 91.2L518 93L517 91.2Z" fill="white"/>
<path d="M562 116.2L563 115L564 116.2L563 118L562 116.2Z" fill="white"/>
<path d="M569 49.2L570 48L571 49.2L570 51L569 49.2Z" fill="white"/>
<path d="M571 88.2L572 87L573 88.2L572 90L571 88.2Z" fill="white"/>
<path d="M519 105.2L520 104L521 105.2L520 107L519 105.2Z" fill="white"/>
<path d="M664 129.2L665 128L666 129.2L665 131L664 129.2Z" fill="white"/>
<path d="M715 44.2L716 43L717 44.2L716 46L715 44.2Z" fill="white"/>
<path d="M722 103.2L723 102L724 103.2L723 105L722 103.2Z" fill="white"/>
<path d="M134 42.2L135 41L136 42.2L135 44L134 42.2Z" fill="white"/>
<path d="M156 14.4L158.5 12L161 14.4L158.5 18L156 14.4Z" fill="white"/>
<path d="M285 130.2L286 129L287 130.2L286 132L285 130.2Z" fill="white"/>
<path d="M214 15.2L215 14L216 15.2L215 17L214 15.2Z" fill="white"/>
<path d="M208 85.2L209 84L210 85.2L209 87L208 85.2Z" fill="white"/>
<path d="M232 39.2L233 38L234 39.2L233 41L232 39.2Z" fill="white"/>
<path d="M188 62.2L189 61L190 62.2L189 64L188 62.2Z" fill="white"/>
<path d="M214 109.2L215 108L216 109.2L215 111L214 109.2Z" fill="white"/>
<path d="M110 75.2L111 74L112 75.2L111 77L110 75.2Z" fill="white"/>
<path d="M32 90.2L33 89L34 90.2L33 92L32 90.2Z" fill="white"/>
<path d="M57 81.2L58 80L59 81.2L58 83L57 81.2Z" fill="white"/>
<path d="M82 81.4L84 79L86 81.4L84 85L82 81.4Z" fill="white"/>
<path d="M139 83.2L140 82L141 83.2L140 85L139 83.2Z" fill="white"/>
<path d="M93 100.2L94 99L95 100.2L94 102L93 100.2Z" fill="white"/>
<path d="M138 60.2L139 59L140 60.2L139 62L138 60.2Z" fill="white"/>
<path d="M72 76.2L73 75L74 76.2L73 78L72 76.2Z" fill="white"/>
<path d="M93 67.2L94 66L95 67.2L94 69L93 67.2Z" fill="white"/>
<path d="M64 93.2L65 92L66 93.2L65 95L64 93.2Z" fill="white"/>
<path d="M111 91.2L112 90L113 91.2L112 93L111 91.2Z" fill="white"/>
<defs>
<linearGradient id="paint0_linear_65_104" x1="190" y1="0" x2="190" y2="280" gradientUnits="userSpaceOnUse">
<stop stop-color="#000326"/>
<stop offset="1" stop-color="#0057FF" stop-opacity="0.67"/>
</linearGradient>
<linearGradient id="paint1_linear_65_104" x1="570" y1="0" x2="570" y2="280" gradientUnits="userSpaceOnUse">
<stop stop-color="#000326"/>
<stop offset="1" stop-color="#0057FF" stop-opacity="0.67"/>
</linearGradient>
</defs>
</svg>
