<svg width="74" height="74" viewBox="0 0 74 74" fill="none" xmlns="http://www.w3.org/2000/svg">
<rect x="1" y="1" width="72" height="72" rx="6" fill="#DBFF00" fill-opacity="0.8" stroke="#DBFF00" stroke-width="2"/>
<path d="M37.5067 59.4972C35.0682 59.4972 32.9139 59.0651 31.0436 58.201C29.1852 57.325 27.7351 56.1236 26.6934 54.5966C25.6518 53.0578 25.1369 51.3059 25.1487 49.3409C25.1369 47.8021 25.4387 46.3816 26.0542 45.0795C26.6698 43.7656 27.5102 42.6707 28.5756 41.7947C29.6527 40.907 30.8542 40.3447 32.18 40.108V39.8949C30.4399 39.4451 29.055 38.4685 28.0251 36.9652C26.9953 35.45 26.4863 33.7277 26.4981 31.7983C26.4863 29.9517 26.9539 28.3004 27.9008 26.8445C28.8478 25.3885 30.1499 24.2403 31.8071 23.3999C33.4761 22.5594 35.376 22.1392 37.5067 22.1392C39.6137 22.1392 41.4958 22.5594 43.153 23.3999C44.8102 24.2403 46.1122 25.3885 47.0592 26.8445C48.018 28.3004 48.5033 29.9517 48.5152 31.7983C48.5033 33.7277 47.9766 35.45 46.9349 36.9652C45.9051 38.4685 44.5379 39.4451 42.8334 39.8949V40.108C44.1473 40.3447 45.331 40.907 46.3845 41.7947C47.438 42.6707 48.2784 43.7656 48.9058 45.0795C49.5332 46.3816 49.8528 47.8021 49.8646 49.3409C49.8528 51.3059 49.3201 53.0578 48.2666 54.5966C47.2249 56.1236 45.7749 57.325 43.9165 58.201C42.0699 59.0651 39.9333 59.4972 37.5067 59.4972ZM37.5067 55.5909C39.152 55.5909 40.5725 55.3246 41.768 54.7919C42.9636 54.2592 43.8869 53.5076 44.5379 52.5369C45.189 51.5663 45.5204 50.4299 45.5322 49.1278C45.5204 47.7547 45.1653 46.5414 44.4669 45.4879C43.7685 44.4344 42.8156 43.6058 41.6082 43.0021C40.4127 42.3984 39.0455 42.0966 37.5067 42.0966C35.956 42.0966 34.5711 42.3984 33.3518 43.0021C32.1444 43.6058 31.1916 44.4344 30.4932 45.4879C29.8066 46.5414 29.4693 47.7547 29.4811 49.1278C29.4693 50.4299 29.7829 51.5663 30.4221 52.5369C31.0732 53.5076 32.0024 54.2592 33.2098 54.7919C34.4172 55.3246 35.8495 55.5909 37.5067 55.5909ZM37.5067 38.3324C38.8087 38.3324 39.9629 38.072 40.969 37.5511C41.987 37.0303 42.786 36.3023 43.366 35.3672C43.9461 34.4321 44.242 33.3371 44.2538 32.0824C44.242 30.8513 43.952 29.7801 43.3838 28.8686C42.8156 27.9453 42.0284 27.2351 41.0223 26.7379C40.0161 26.2289 38.8443 25.9744 37.5067 25.9744C36.1454 25.9744 34.9558 26.2289 33.9378 26.7379C32.9198 27.2351 32.1326 27.9453 31.5763 28.8686C31.0199 29.7801 30.7477 30.8513 30.7595 32.0824C30.7477 33.3371 31.0258 34.4321 31.594 35.3672C32.174 36.3023 32.973 37.0303 33.991 37.5511C35.009 38.072 36.1809 38.3324 37.5067 38.3324Z" fill="#614040"/>
</svg>
