<svg width="74" height="74" viewBox="0 0 74 74" fill="none" xmlns="http://www.w3.org/2000/svg">
<rect x="1" y="1" width="72" height="72" rx="6" fill="#DBFF00" fill-opacity="0.8" stroke="#DBFF00" stroke-width="2"/>
<path d="M36.2403 22.1392C37.7318 22.151 39.2233 22.4351 40.7148 22.9915C42.2062 23.5478 43.5675 24.4711 44.7986 25.7614C46.0296 27.0398 47.018 28.7857 47.7638 30.9993C48.5095 33.2128 48.8824 35.9886 48.8824 39.3267C48.8824 42.5582 48.5746 45.4287 47.9591 47.9382C47.3554 50.4358 46.4794 52.5429 45.3312 54.2592C44.1949 55.9756 42.8099 57.2777 41.1764 58.1655C39.5547 59.0533 37.72 59.4972 35.6721 59.4972C33.6362 59.4972 31.8192 59.0947 30.2211 58.2898C28.635 57.473 27.3329 56.3426 26.3149 54.8984C25.3087 53.4425 24.6636 51.7557 24.3795 49.8381H28.7119C29.1025 51.5071 29.8779 52.8861 31.0379 53.9751C32.2098 55.0523 33.7545 55.5909 35.6721 55.5909C38.4775 55.5909 40.6911 54.3658 42.3128 51.9155C43.9463 49.4652 44.7631 46.0028 44.7631 41.5284H44.479C43.8161 42.5227 43.0289 43.3809 42.1175 44.103C41.206 44.825 40.1939 45.3814 39.0812 45.772C37.9685 46.1626 36.7848 46.358 35.5301 46.358C33.4468 46.358 31.5351 45.843 29.795 44.8132C28.0668 43.7715 26.6818 42.3452 25.6402 40.5341C24.6104 38.7112 24.0954 36.6278 24.0954 34.2841C24.0954 32.0587 24.5926 30.0227 25.5869 28.1761C26.5931 26.3177 28.0017 24.8381 29.8128 23.7372C31.6357 22.6364 33.7782 22.1037 36.2403 22.1392ZM36.2403 26.0455C34.7488 26.0455 33.4053 26.4183 32.2098 27.1641C31.0261 27.898 30.085 28.8923 29.3866 30.147C28.7001 31.3899 28.3568 32.7689 28.3568 34.2841C28.3568 35.7992 28.6882 37.1783 29.3511 38.4212C30.0258 39.6522 30.9432 40.6347 32.1032 41.3686C33.2751 42.0907 34.6068 42.4517 36.0983 42.4517C37.2228 42.4517 38.2704 42.2327 39.241 41.7947C40.2117 41.3449 41.058 40.7353 41.7801 39.9659C42.514 39.1847 43.0881 38.3028 43.5024 37.3203C43.9167 36.326 44.1238 35.2902 44.1238 34.2131C44.1238 32.7926 43.7806 31.4609 43.094 30.218C42.4193 28.9751 41.4842 27.969 40.2886 27.1996C39.1049 26.4302 37.7555 26.0455 36.2403 26.0455Z" fill="#614040"/>
</svg>
