<svg width="72" height="72" viewBox="0 0 72 72" fill="none" xmlns="http://www.w3.org/2000/svg">
<rect x="1" y="1" width="70" height="70" rx="5" fill="#DBFF00" fill-opacity="0.7" stroke="#DBFF00" stroke-width="2"/>
<path d="M35.7375 58.4972C34.246 58.4735 32.7545 58.1894 31.2631 57.6449C29.7716 57.1004 28.4103 56.183 27.1792 54.8928C25.9482 53.5907 24.9598 51.8329 24.214 49.6193C23.4683 47.3939 23.0954 44.6004 23.0954 41.2386C23.0954 38.0189 23.3973 35.1662 24.001 32.6804C24.6047 30.1828 25.4806 28.0817 26.6288 26.3771C27.777 24.6607 29.162 23.3587 30.7836 22.4709C32.4172 21.5831 34.2578 21.1392 36.3057 21.1392C38.3416 21.1392 40.1527 21.5476 41.7389 22.3643C43.3369 23.1693 44.639 24.2938 45.6452 25.7379C46.6513 27.1821 47.3024 28.8452 47.5983 30.7273H43.2659C42.8634 29.0937 42.0822 27.7384 40.9221 26.6612C39.7621 25.584 38.2233 25.0455 36.3057 25.0455C33.4884 25.0455 31.269 26.2706 29.6473 28.7209C28.0374 31.1712 27.2266 34.6098 27.2148 39.0369H27.4988C28.1617 38.0308 28.9489 37.1726 29.8604 36.4624C30.7836 35.7403 31.8016 35.1839 32.9143 34.7933C34.027 34.4027 35.2048 34.2074 36.4477 34.2074C38.531 34.2074 40.4368 34.7282 42.165 35.7699C43.8933 36.7997 45.2782 38.2261 46.3199 40.049C47.3615 41.8601 47.8824 43.9375 47.8824 46.2812C47.8824 48.5303 47.3793 50.59 46.3731 52.4602C45.367 54.3187 43.9524 55.7983 42.1295 56.8991C40.3184 57.9882 38.1878 58.5208 35.7375 58.4972ZM35.7375 54.5909C37.229 54.5909 38.5666 54.218 39.7503 53.4723C40.9458 52.7266 41.8869 51.7263 42.5734 50.4716C43.2718 49.2169 43.621 47.8201 43.621 46.2812C43.621 44.7779 43.2836 43.4107 42.6089 42.1797C41.9461 40.9368 41.0287 39.9484 39.8568 39.2145C38.6968 38.4806 37.371 38.1136 35.8795 38.1136C34.755 38.1136 33.7074 38.3385 32.7368 38.7884C31.7661 39.2263 30.9139 39.83 30.18 40.5994C29.4579 41.3688 28.8897 42.2507 28.4754 43.245C28.0611 44.2275 27.854 45.2633 27.854 46.3523C27.854 47.7964 28.1913 49.1458 28.866 50.4006C29.5526 51.6553 30.4877 52.6674 31.6714 53.4368C32.867 54.2062 34.2223 54.5909 35.7375 54.5909Z" fill="#614040"/>
</svg>
