<svg width="74" height="74" viewBox="0 0 74 74" fill="none" xmlns="http://www.w3.org/2000/svg">
<rect x="1" y="1" width="72" height="72" rx="6" fill="#DBFF00" stroke="#DBFF00" stroke-width="2"/>
<path d="M36.5 46.5L41.5 41.5M41.5 41.5L46.5 36.5M41.5 41.5L36.5 36.5M41.5 41.5L46.5 46.5M14 41.5L30.035 57.535C30.9725 58.4727 32.244 58.9997 33.57 59H54C55.3261 59 56.5979 58.4732 57.5355 57.5355C58.4732 56.5979 59 55.3261 59 54V29C59 27.6739 58.4732 26.4021 57.5355 25.4645C56.5979 24.5268 55.3261 24 54 24H33.57C32.244 24.0003 30.9725 24.5273 30.035 25.465L14 41.5Z" stroke="#FF0909" stroke-width="5" stroke-linecap="round" stroke-linejoin="round"/>
</svg>
