<svg width="74" height="74" viewBox="0 0 74 74" fill="none" xmlns="http://www.w3.org/2000/svg">
<rect x="1" y="1" width="72" height="72" rx="6" fill="#DBFF00" fill-opacity="0.8" stroke="#DBFF00" stroke-width="2"/>
<path d="M26.1275 59V55.804L38.1303 42.6648C39.5389 41.1259 40.699 39.7884 41.6104 38.652C42.5219 37.5038 43.1966 36.4266 43.6346 35.4205C44.0844 34.4025 44.3093 33.3371 44.3093 32.2244C44.3093 30.946 44.0015 29.8393 43.386 28.9041C42.7823 27.969 41.9537 27.2469 40.9002 26.7379C39.8467 26.2289 38.663 25.9744 37.3491 25.9744C35.9523 25.9744 34.7331 26.2644 33.6914 26.8445C32.6616 27.4126 31.8626 28.2116 31.2944 29.2415C30.738 30.2713 30.4599 31.4787 30.4599 32.8636H26.2695C26.2695 30.733 26.7608 28.8627 27.7433 27.2528C28.7257 25.643 30.0633 24.3883 31.756 23.4886C33.4606 22.589 35.3723 22.1392 37.4911 22.1392C39.6218 22.1392 41.5098 22.589 43.1552 23.4886C44.8005 24.3883 46.0908 25.6016 47.0259 27.1286C47.9611 28.6555 48.4286 30.3542 48.4286 32.2244C48.4286 33.562 48.186 34.87 47.7006 36.1484C47.2272 37.415 46.3986 38.8295 45.2148 40.392C44.043 41.9427 42.4154 43.8366 40.332 46.0739L32.1644 54.8097V55.0938H49.0678V59H26.1275Z" fill="#614040"/>
</svg>
