<svg width="74" height="74" viewBox="0 0 74 74" fill="none" xmlns="http://www.w3.org/2000/svg">
<rect x="1" y="1" width="72" height="72" rx="6" fill="#DBFF00" stroke="#DBFF00" stroke-width="2"/>
<path d="M38.4886 52.1818V50.2642C38.4886 48.9384 38.7609 47.7251 39.3054 46.6243C39.8617 45.5116 40.6667 44.6238 41.7202 43.9609C42.7855 43.2862 44.0758 42.9489 45.5909 42.9489C47.1297 42.9489 48.42 43.2862 49.4616 43.9609C50.5033 44.6238 51.2905 45.5116 51.8232 46.6243C52.3558 47.7251 52.6222 48.9384 52.6222 50.2642V52.1818C52.6222 53.5076 52.3499 54.7268 51.8054 55.8395C51.2727 56.9403 50.4796 57.8281 49.4261 58.5028C48.3845 59.1657 47.1061 59.4972 45.5909 59.4972C44.0521 59.4972 42.7559 59.1657 41.7024 58.5028C40.6489 57.8281 39.8499 56.9403 39.3054 55.8395C38.7609 54.7268 38.4886 53.5076 38.4886 52.1818ZM42.1108 50.2642V52.1818C42.1108 53.2827 42.3712 54.2711 42.892 55.147C43.4129 56.0111 44.3125 56.4432 45.5909 56.4432C46.8338 56.4432 47.7098 56.0111 48.2188 55.147C48.7396 54.2711 49 53.2827 49 52.1818V50.2642C49 49.1634 48.7514 48.1809 48.2543 47.3168C47.7571 46.4408 46.8693 46.0028 45.5909 46.0028C44.348 46.0028 43.4543 46.4408 42.9098 47.3168C42.3771 48.1809 42.1108 49.1634 42.1108 50.2642ZM20.3778 31.3722V29.4545C20.3778 28.1288 20.6501 26.9155 21.1946 25.8146C21.7509 24.7019 22.5559 23.8142 23.6094 23.1513C24.6747 22.4766 25.965 22.1392 27.4801 22.1392C29.0189 22.1392 30.3092 22.4766 31.3509 23.1513C32.3925 23.8142 33.1797 24.7019 33.7124 25.8146C34.245 26.9155 34.5114 28.1288 34.5114 29.4545V31.3722C34.5114 32.6979 34.2391 33.9171 33.6946 35.0298C33.1619 36.1307 32.3688 37.0185 31.3153 37.6932C30.2737 38.3561 28.9953 38.6875 27.4801 38.6875C25.9413 38.6875 24.6451 38.3561 23.5916 37.6932C22.5381 37.0185 21.7391 36.1307 21.1946 35.0298C20.6501 33.9171 20.3778 32.6979 20.3778 31.3722ZM24 29.4545V31.3722C24 32.473 24.2604 33.4614 24.7812 34.3374C25.3021 35.2015 26.2017 35.6335 27.4801 35.6335C28.723 35.6335 29.599 35.2015 30.108 34.3374C30.6288 33.4614 30.8892 32.473 30.8892 31.3722V29.4545C30.8892 28.3537 30.6406 27.3712 30.1435 26.5071C29.6463 25.6312 28.7585 25.1932 27.4801 25.1932C26.2372 25.1932 25.3435 25.6312 24.799 26.5071C24.2663 27.3712 24 28.3537 24 29.4545ZM21.7273 59L46.7273 22.6364H50.7756L25.7756 59H21.7273Z" fill="#2400FF"/>
</svg>
