<svg width="74" height="74" viewBox="0 0 74 74" fill="none" xmlns="http://www.w3.org/2000/svg">
<rect x="1" y="1" width="72" height="72" rx="6" fill="#DBFF00" fill-opacity="0.8" stroke="#DBFF00" stroke-width="2"/>
<path d="M38.6332 59.4972C36.2894 59.4972 34.2002 59.0947 32.3654 58.2898C30.5425 57.4848 29.0924 56.3662 28.0153 54.9339C26.9499 53.4898 26.3699 51.8149 26.2752 49.9091H30.7496C30.8443 51.081 31.2468 52.093 31.957 52.9453C32.6673 53.7857 33.5965 54.4368 34.7447 54.8984C35.8929 55.3601 37.1654 55.5909 38.5621 55.5909C40.1246 55.5909 41.5096 55.3187 42.717 54.7741C43.9244 54.2296 44.8713 53.4721 45.5579 52.5014C46.2444 51.5308 46.5877 50.4062 46.5877 49.1278C46.5877 47.7902 46.2563 46.6125 45.5934 45.5945C44.9305 44.5646 43.9599 43.7597 42.6815 43.1797C41.4031 42.5997 39.8406 42.3097 37.994 42.3097H35.082V38.4034H37.994C39.4381 38.4034 40.7047 38.143 41.7937 37.6222C42.8945 37.1013 43.7527 36.3674 44.3683 35.4205C44.9956 34.4735 45.3093 33.3608 45.3093 32.0824C45.3093 30.8513 45.0371 29.7801 44.4925 28.8686C43.948 27.9571 43.1786 27.2469 42.1843 26.7379C41.2018 26.2289 40.0418 25.9744 38.7042 25.9744C37.4495 25.9744 36.2657 26.2053 35.1531 26.6669C34.0522 27.1167 33.1526 27.7737 32.4542 28.6378C31.7558 29.4901 31.377 30.5199 31.3178 31.7273H27.0565C27.1275 29.8215 27.7016 28.1525 28.7788 26.7202C29.8559 25.276 31.2646 24.1515 33.0046 23.3466C34.7565 22.5417 36.68 22.1392 38.7752 22.1392C41.0243 22.1392 42.9537 22.5949 44.5636 23.5064C46.1734 24.406 47.4104 25.5956 48.2745 27.0753C49.1386 28.5549 49.5707 30.1529 49.5707 31.8693C49.5707 33.9171 49.0321 35.6631 47.9549 37.1072C46.8896 38.5514 45.4395 39.5516 43.6048 40.108V40.392C45.9012 40.7708 47.6945 41.7474 48.9847 43.3217C50.275 44.8842 50.9201 46.8196 50.9201 49.1278C50.9201 51.1046 50.3815 52.8802 49.3043 54.4545C48.239 56.017 46.783 57.2481 44.9364 58.1477C43.0898 59.0473 40.9888 59.4972 38.6332 59.4972Z" fill="#614040"/>
</svg>
