<svg width="74" height="74" viewBox="0 0 74 74" fill="none" xmlns="http://www.w3.org/2000/svg">
<rect x="1" y="1" width="72" height="72" rx="6" fill="#DBFF00" stroke="#DBFF00" stroke-width="2"/>
<path d="M51.9763 34H47.5729C47.3125 32.7334 46.8567 31.6207 46.2057 30.6619C45.5665 29.7031 44.7852 28.8982 43.862 28.2472C42.9505 27.5843 41.9384 27.0871 40.8257 26.7557C39.713 26.4242 38.553 26.2585 37.3456 26.2585C35.1439 26.2585 33.1494 26.8149 31.3619 27.9276C29.5864 29.0402 28.1718 30.6797 27.1183 32.8459C26.0767 35.0121 25.5558 37.6695 25.5558 40.8182C25.5558 43.9669 26.0767 46.6243 27.1183 48.7905C28.1718 50.9567 29.5864 52.5961 31.3619 53.7088C33.1494 54.8215 35.1439 55.3778 37.3456 55.3778C38.553 55.3778 39.713 55.2121 40.8257 54.8807C41.9384 54.5492 42.9505 54.058 43.862 53.407C44.7852 52.7441 45.5665 51.9332 46.2057 50.9744C46.8567 50.0038 47.3125 48.8911 47.5729 47.6364H51.9763C51.6449 49.4948 51.0412 51.1579 50.1652 52.6257C49.2893 54.0935 48.2003 55.3423 46.8982 56.3722C45.5961 57.3902 44.1342 58.1655 42.5125 58.6982C40.9027 59.2308 39.1804 59.4972 37.3456 59.4972C34.2443 59.4972 31.4862 58.7396 29.0715 57.2244C26.6567 55.7093 24.7568 53.5549 23.3719 50.7614C21.9869 47.9678 21.2945 44.6534 21.2945 40.8182C21.2945 36.983 21.9869 33.6686 23.3719 30.875C24.7568 28.0814 26.6567 25.9271 29.0715 24.4119C31.4862 22.8968 34.2443 22.1392 37.3456 22.1392C39.1804 22.1392 40.9027 22.4055 42.5125 22.9382C44.1342 23.4709 45.5961 24.2521 46.8982 25.282C48.2003 26.3 49.2893 27.5428 50.1652 29.0107C51.0412 30.4666 51.6449 32.1297 51.9763 34Z" fill="#FF0909"/>
</svg>
