<svg width="74" height="74" viewBox="0 0 74 74" fill="none" xmlns="http://www.w3.org/2000/svg">
<rect x="1" y="1" width="72" height="72" rx="6" fill="#DBFF00" stroke="#DBFF00" stroke-width="2"/>
<path d="M36.5044 54.2841C35.6285 54.2841 34.8768 53.9704 34.2495 53.343C33.6221 52.7157 33.3084 51.964 33.3084 51.0881C33.3084 50.2121 33.6221 49.4605 34.2495 48.8331C34.8768 48.2057 35.6285 47.892 36.5044 47.892C37.3804 47.892 38.132 48.2057 38.7594 48.8331C39.3868 49.4605 39.7005 50.2121 39.7005 51.0881C39.7005 51.6681 39.5525 52.2008 39.2566 52.6861C38.9725 53.1714 38.5878 53.562 38.1025 53.858C37.629 54.142 37.0963 54.2841 36.5044 54.2841Z" fill="#2400FF"/>
</svg>
