<svg width="74" height="74" viewBox="0 0 74 74" fill="none" xmlns="http://www.w3.org/2000/svg">
<rect x="2" y="2" width="70" height="70" rx="5" fill="#DBFF00" fill-opacity="0.8"/>
<rect x="1" y="1" width="72" height="72" rx="6" stroke="#DBFF00" stroke-opacity="0.8" stroke-width="2"/>
<path d="M37.5 59.4972C34.8248 59.4972 32.5462 58.7692 30.6641 57.3132C28.782 55.8454 27.3438 53.7206 26.3494 50.9389C25.3551 48.1454 24.858 44.7718 24.858 40.8182C24.858 36.8883 25.3551 33.5324 26.3494 30.7507C27.3556 27.9571 28.7997 25.8265 30.6818 24.3587C32.5758 22.879 34.8485 22.1392 37.5 22.1392C40.1515 22.1392 42.4183 22.879 44.3004 24.3587C46.1944 25.8265 47.6385 27.9571 48.6328 30.7507C49.639 33.5324 50.142 36.8883 50.142 40.8182C50.142 44.7718 49.6449 48.1454 48.6506 50.9389C47.6562 53.7206 46.218 55.8454 44.3359 57.3132C42.4538 58.7692 40.1752 59.4972 37.5 59.4972ZM37.5 55.5909C40.1515 55.5909 42.2112 54.3125 43.679 51.7557C45.1468 49.1989 45.8807 45.553 45.8807 40.8182C45.8807 37.6695 45.5433 34.9884 44.8686 32.7749C44.2057 30.5613 43.2469 28.8745 41.9922 27.7145C40.7493 26.5545 39.2519 25.9744 37.5 25.9744C34.8722 25.9744 32.8184 27.2706 31.3388 29.8629C29.8591 32.4434 29.1193 36.0952 29.1193 40.8182C29.1193 43.9669 29.4508 46.642 30.1136 48.8438C30.7765 51.0455 31.7294 52.7204 32.9723 53.8686C34.227 55.0168 35.7363 55.5909 37.5 55.5909Z" fill="#614040"/>
</svg>
