<svg width="72" height="72" viewBox="0 0 72 72" fill="none" xmlns="http://www.w3.org/2000/svg">
<rect x="1" y="1" width="70" height="70" rx="5" fill="#DBFF00" fill-opacity="0.7" stroke="#DBFF00" stroke-width="2"/>
<path d="M35.4179 58.4972C33.3345 58.4972 31.4584 58.0829 29.7893 57.2543C28.1203 56.4257 26.7827 55.2893 25.7765 53.8452C24.7704 52.401 24.22 50.7557 24.1253 48.9091H28.3866C28.5524 50.5545 29.2981 51.9157 30.6238 52.9929C31.9614 54.0582 33.5595 54.5909 35.4179 54.5909C36.9094 54.5909 38.2351 54.2417 39.3952 53.5433C40.567 52.8449 41.4844 51.8861 42.1473 50.6669C42.822 49.4358 43.1594 48.045 43.1594 46.4943C43.1594 44.9081 42.8102 43.4936 42.1118 42.2507C41.4252 40.996 40.4783 40.0076 39.2709 39.2855C38.0635 38.5634 36.6845 38.1965 35.1338 38.1847C34.0211 38.1728 32.8788 38.3445 31.7069 38.6996C30.5351 39.0428 29.5703 39.4867 28.8128 40.0312L24.6934 39.5341L26.8952 21.6364H45.7872V25.5426H30.5883L29.3099 36.267H29.523C30.2687 35.6752 31.2039 35.1839 32.3284 34.7933C33.4529 34.4027 34.6248 34.2074 35.844 34.2074C38.0694 34.2074 40.0521 34.7401 41.7922 35.8054C43.5441 36.8589 44.9172 38.303 45.9115 40.1378C46.9176 41.9725 47.4207 44.0677 47.4207 46.4233C47.4207 48.7434 46.8999 50.8149 45.8582 52.6378C44.8284 54.4489 43.4079 55.8812 41.5969 56.9347C39.7858 57.9763 37.7261 58.4972 35.4179 58.4972Z" fill="#614040"/>
</svg>
